<?xml version="1.0" encoding="utf-8"?>
<!-- Generator: Adobe Illustrator 17.0.1, SVG Export Plug-In . SVG Version: 6.00 Build 0)  -->
<!DOCTYPE svg PUBLIC "-//W3C//DTD SVG 1.1//EN" "http://www.w3.org/Graphics/SVG/1.1/DTD/svg11.dtd">
<svg version="1.1" id="Layer_2" xmlns="http://www.w3.org/2000/svg" xmlns:xlink="http://www.w3.org/1999/xlink" x="0px" y="0px"
	 width="452.042px" height="547.096px" viewBox="0 0 452.042 547.096" enable-background="new 0 0 452.042 547.096"
	 xml:space="preserve" preserveAspectRatio="xMidYMid meet">
<g id="bolexman">
	<g>
		<path fill="#FFFFFF" d="M212.213,119.198c-0.36-18.168,3.391-29.059,12.778-32.911c-2.345,3.288-7.691,8.424-8.678,23.774
			c-0.964,14.957,7.188,34.701,24.168,39.706c0,0-0.065-0.77,4.119,0.624c0,0-5.41-2.188-10.017-5.509
			c-1.858-1.339-16.502-11.558-15.965-34.018c0.573-24.036,17.582-32.36,19.889-33.414c-1.974,0.981-19.034,11.676-18.877,33.653
			c0.158,22.098,13.134,31.032,15.398,32.581c0,0-11.778-9.907-12.174-28.455c-0.035-1.629,0.58-3.352,1.482-4.38
			c2.034-2.318,6.233-4.035,6.592,0.195c0.372,4.412,3.14,18.406,9.477,23.871c0,0-6.553-8.134-6.631-22.68
			c-0.15-27.836,18.314-37.574,18.314-37.574s-5.171,0.436-13.422,2.097C205.52,83.431,210.803,115.475,212.213,119.198z"/>
		<path fill="#FFFFFF" d="M89.363,273.095c2.025,0.208-4.175-4.875-4.662-5.489c-0.24-0.303,1.464-2.498,13.653-16.714
			c0,0-16.386,15.891-15.445,16.959c0.94,1.069,5.3,4.032,3.455,3.691c-2.065-0.382-15.721-2.177-15.721-2.177
			c-0.613,1.594,28.69,108.146,49.28,144.782c0.795,0.281,1.854,1.054,2.653,1.327C107.32,385.59,89.62,331.677,72.422,271.126
			C72.422,271.126,88.986,273.057,89.363,273.095z"/>
		<path fill="#FFFFFF" d="M34.437,293.367c0,0-1.174,33.137,11.703,62.627c3.297,7.55,4.918,10.934,5.266,15.744
			c0.605,0.5,4.676,4.17,5.286,4.664c-0.294-5.498-1.715-12.525-6.392-20.972C37.719,332.707,35.562,295.872,34.437,293.367z"/>
		<path fill="#FFFFFF" d="M234.03,258.918c-2.424-2.726-14.747-19.822-14.747-19.822s8.271,12.872,12.662,20.634
			c0.914,1.615-18.661,12.173-18.661,12.173c3.937,0.152,34.404-10.798,34.404-10.798s-13.011,35.043-25.622,64.288
			c-11.123,25.796-41.662,88.098-42.147,95.704c3.925-8.455,38.624-80.573,44.064-94.644c4.28-11.071,26.701-68.292,26.701-68.292
			l-30.276,11.031C220.411,269.192,236.453,261.643,234.03,258.918z"/>
		<path fill="#FFFFFF" d="M207.745,168.533c1.637-0.416,4.677-5.838,6.911-13.702c0,0-2.264,0.209-2.294-0.833
			c-0.016-0.537-0.687-0.605-1.516-0.268c0.46-0.665,0.793-1.165,0.92-1.372c0.58-0.938,0.805-4.647,0.876-5.004
			c0,0-0.204-0.449-1.099-0.803c-0.494-0.197-1.205-0.422-1.205-0.422c-5.317,8.802-12.424,14.317-12.424,14.317
			s1.431,1.608,1.966,1.698c0.518,0.086,2.163,0.003,4.167-0.809c-1.011,0.808-2.882,1.878-4.381,2.058
			c-0.845,0.101-2.751-1.506-3.017-1.923c0,0-7.939,5.753-17.471,7.332c0,0,16.741,0.024,24.605-0.111
			c-0.023,1.14-0.599,30.936-0.776,33.683c-0.18,2.799-0.917,3.343-1.097,3.581c-0.179,0.238-0.488,2.389,1.038,1.661
			c2.313-1.106,4.171-7.209,4.111-13.822c-0.036-4.016,0.395-24.29,0.417-25.223C207.61,168.558,207.702,168.544,207.745,168.533z"
			/>
		<path fill="#FFFFFF" d="M157.219,62.838c0.191,0.385,0.455,0.822,0.578,0.761c0.684-0.339,0.493-0.5,0.607-0.727
			c0.129-0.258,0.729-0.453,1.041-0.357c0.312,0.097,0.588-0.804,0.106-0.852c-0.479-0.049-0.299-0.511-1.188-0.614
			c-1.02-0.118-1.015,0.501-1.444,0.821C156.238,62.376,157.025,62.453,157.219,62.838z"/>
		<path fill="#FFFFFF" d="M198.854,70.278c0,0,0-5.809-0.222-6.372c-0.221-0.564-15.774-1.325-15.774-1.325
			c0,1.553,14.252,8.01,14.744,8.188C198.094,70.948,198.854,70.278,198.854,70.278z"/>
		<path fill="#FFFFFF" d="M152.875,139.981c-0.045,0.178-0.663,24.146-0.447,24.62c1.163,2.547,9.92,3.396,9.92,3.396
			c-6.716-1.742-8.047-3.531-8.176-3.932c-0.214-0.653,0.267-24.261,0.267-24.261C154.44,139.659,152.875,139.981,152.875,139.981z"
			/>
		<path fill="#FFFFFF" d="M149.959,140.794c-0.223,0.046-0.804,25.886-0.433,26.846c0.67,1.742,11.392,0.874,11.392,0.874
			c-7.039-1.196-9.128-2.538-9.116-3.345c0.015-0.76,0.538-24.873,0.538-24.873S150.184,140.749,149.959,140.794z"/>
		<path fill="#FFFFFF" d="M218.617,67.373c0.625-0.119,3.067-1.846,3.306-1.519c0.238,0.328,1.073,0.953,1.22,2.026
			c0.15,1.073,0.94-2.237-1.011-3.982c-0.237-0.212-3.248,2.076-4.111,2.791C217.723,66.936,217.992,67.493,218.617,67.373z"/>
		<path fill="#FFFFFF" d="M217.188,64.663c-0.168,0.189,0,0.975,0.38,0.953c0.801-0.047,3.862-1.97,3.939-2.472
			c0.041-0.268-0.268-0.987-0.535-0.983C220.491,62.169,217.932,63.829,217.188,64.663z"/>
		<path fill="#FFFFFF" d="M219.84,60.403c-0.537,0.179-3.271,1.698-3.706,2.354c-0.24,0.359,0.101,0.924,0.666,0.744
			c0.567-0.178,3.73-1.936,3.727-2.174C220.522,61.088,220.375,60.224,219.84,60.403z"/>
		<path fill="#FFFFFF" d="M214.359,60.016c0.565-0.089,2.859-1.728,3.246-1.876c0.387-0.149,0.945-0.516,0.769-0.899
			c-0.173-0.383-0.738-0.829-1.185-0.502c-0.448,0.328-2.683,1.877-3.248,2.503C213.795,59.403,213.793,60.105,214.359,60.016z"/>
		<path fill="#FFFFFF" d="M217.188,55.786c-0.061-0.269-0.547-0.952-0.866-0.835c-0.504,0.188-3.364,2.045-3.395,2.681
			c-0.025,0.548,0.656,0.567,1.013,0.299C214.298,57.663,217.246,56.055,217.188,55.786z"/>
		<path fill="#FFFFFF" d="M303.264,141.701c-0.056,0.052-0.11,0.105-0.167,0.157C303.096,141.858,303.158,141.802,303.264,141.701z"
			/>
		<path fill="#FFFFFF" d="M313.645,118.623c-2.238,14.218-9.758,21.925-10.958,23.077c8.582-7.933,11.73-18.231,12.209-25.579
			c0.657-10.088-1.967-16.711-1.967-16.711C314.047,103.968,314.537,112.949,313.645,118.623z"/>
		<path fill="#FFFFFF" d="M318.841,116.479c-1.374,14.125-8.088,24.083-12.958,27.926c0,0,12.432-7.022,13.995-28.239
			c1.464-19.887-9.097-31.318-9.097-31.318S320.538,99.009,318.841,116.479z"/>
		<path fill="#FFFFFF" d="M245.009,113.039c1.52,31.366,24.397,40.288,33.065,39.663c0,0-24.241-2.624-28.843-30.176
			c-0.244-1.457-1.2-7.799,2.018-13.299c2.259-3.864,9.131-15.659,8.382-11.401c-5.077,28.883,10.668,41.933,10.668,41.933
			s-9.542-10.886-8.847-30.532c0.62-17.521,3.263-20.733,9.748-30.012c-20.108,45.764,14.946,79.231,14.946,79.231
			s-20.514-24.17-17.388-56.622c0,0,0.532-3.715,0.779-4.826c0.316-1.408-0.05,3.746,0.664,3.947
			c0.485,0.136,1.143,1.311,1.925,1.579c0.584,0.2,1.252-5.424,1.18-4.033c-2.754,53.062,31.029,77.164,51.903,73.773
			c28.219-4.584,40.896-39.744,38.704-65.972c-3.196-38.298-25.883-62.035-50.625-60.364c-19.215,1.298-30.265,12.005-36.622,23.894
			C260.805,70.64,243.599,83.932,245.009,113.039z M277.003,85.599c0.405,0.535,0.883,1.117,1.115,1.211
			c0.446,0.179,1.298,1.519,1.386,1.251c0.09-0.267,0.045-2.234-0.268-2.636c-0.313-0.402-1.251-2.859-0.714-3.038
			c0.535-0.179,0.749,1.563,1.023,2.145c0.272,0.581,0.941,2.637,1.389,2.816c0.448,0.178-0.357,0.517-0.448,0.75
			c-0.088,0.233,0,1.841,0.805,2.11c0.805,0.268,0.94-0.894,1.565,0.894c0.625,1.787,1.787,5.004,2.412,5.361
			c0.627,0.357-0.535-4.111-0.892-5.808c-0.358-1.699-1.922-7.934-2.28-8.28c-0.271-0.26-2.128-1.885-3.422-2.581
			c6.138-18.494,18.701-31.476,34.489-32.74c25.977-2.079,47.219,25.162,49.57,59.283c2.166,31.481-13.803,57.968-33.381,63.735
			c9.567-3.318,23.903-13.192,30.56-39.776c4.059-16.21,1.17-29.75,1.17-29.75s0.605,15.792-2.518,28.87
			c-2.788,11.676-12.742,37.21-35.956,41.253c-1.812,0.316-3.413,0.41-4.732,0.398c-11.572-1.253-22.505-9.005-30.487-20.713
			c0,0,0.995,0.782,9.75,1.26c10.432,0.571,28.099-11.499,28.894-38.247c0.655-22.043-14.423-35.193-16.15-37.041
			c-0.076-0.103,14.913,18.437,13.171,38.59c-1.3,15.055-10.122,36.413-31.52,33.816c0,0,23.42-0.276,26.042-34.293
			c0.976-12.688-5.224-22.828-6.541-24.959c1.098,1.819,5.648,9.657,5.407,24.542c-0.118,7.387-3.855,31.248-27.513,34.434
			c0,0-2.702-0.07-4.143-2.268c0.447-0.416,2.226-0.389,3.956-0.303c2.516,0.126,9.498-1.361,14.68-9.284
			c5.184-7.924,7.898-14.537,7.721-25.796c-0.18-11.26-5.064-25.931-19.483-33.378c-14.417-7.447,1.49,2.399,0.894,2.34
			c-0.594-0.06-3.424,1.429-2.872,1.728c0.55,0.298,3.764,3.097,4.124,3.931c0.358,0.834,12.643,10.021,11.281,29.785
			c-1.093,15.848-9.791,26.572-21.583,28.684c-0.101-0.192-0.198-0.391-0.297-0.585c2.195-0.133,19.208-3.859,21.322-27.59
			c0.622-7.019-1.43-23.204-14.675-31.143c-0.584-0.351-1.385-0.756-1.186-0.114c0.104,0.34-1.017,0.617-0.628,1.276
			c0.522,0.876,2.612,2.196,3.098,2.995c0.476,0.787,2.979,2.195,3.47,2.948c1.134,1.733,7.818,11.259,6.61,22.519
			c0,0-0.465-5.833-2.051-11.125c-1.448-4.837-4.506-9.114-4.691-9.384c-0.805-1.16-0.271,3.307-0.76,2.726
			c-0.492-0.581-1.61-3.128-1.387-1.966c0.224,1.162,0.224,2.993,0.538,3.216c0.314,0.224,0.314,0.67,0.044,0.626
			c-0.267-0.045-0.358,0.045-0.402,0.804c-0.045,0.761-0.133,0.761-0.447,0.581c-0.313-0.179-0.983-0.357-1.295,0.268
			s-1.028-1.072-1.117-0.938c-0.089,0.134-0.938,0.894-1.562-0.09c-0.627-0.983-1.027-0.491-0.94,0.045
			c0.088,0.536-2.234-1.832-2.057-1.564c0.18,0.268,1.342,3.307,1.075,3.441c-0.269,0.134-1.521,0.238-1.923,1.147
			c-0.402,0.908-2.904,1.444-3.172,0.64c-0.267-0.804,0.446-2.323,0.537-1.966c0.09,0.357,0.581,1.52,1.206,1.117
			c0.625-0.402,1.832-0.938,1.875-1.341c0.047-0.402-0.176-3.574-2.412-4.333c-2.233-0.76-2.858-1.609-1.653-1.251
			c1.207,0.357,1.742,0.089,1.564-0.358c-0.18-0.446-0.76-1.921-1.251-1.519c-0.49,0.402-0.758-0.536-0.805-1.073
			c-0.043-0.536-0.489-0.045-0.67-0.447c-0.177-0.402-0.042-1.073-0.579-1.564c-0.537-0.492-0.944-1.743-1.366-1.52
			c-0.422,0.224-0.561,1.609,0,2.1c0.562,0.492-0.69-0.313-0.823-0.045c-0.135,0.268-0.403,1.699,0.58,2.592
			c0.984,0.893,1.117,1.34,0.402,0.804c-0.715-0.536-1.57-0.581-1.119,0.089c0.449,0.671,1.076,1.788,1.521,1.921
			c0.448,0.135,1.652,1.118,1.832,1.922c0.179,0.803,1.072,1.564,0.76,1.876c-0.314,0.313-0.76,0.536-0.76,0.804
			c0,0.269-0.893,0.537-1.25-0.089c-0.359-0.625-0.947-1.454-1.201-1.41c-1.046,0.18-1.371,0.252-1.633,1.693
			c-0.051,0.278-0.324,7-0.189,7.85c0.135,0.848,0.939,1.162,0.894,1.832c-0.046,0.67-0.358,1.162,0.312,1.385
			c0.669,0.223,1.95-0.313,2.306,0.67c0.358,0.983,0.94,1.339,3.217,1.563c1.05,0.103,3.852-0.672,6.572-2.272
			c0.002,2.143-0.024,5.74-0.271,5.846c-0.313,0.134-0.492-0.268-0.94-0.491c-0.446-0.223-2.049-1.099-2.144-0.313
			c-0.048,0.403,0.422,1.537-0.223,1.699c-2.503,0.625-7.024-1-9.298-3.274c-0.717-0.715,0.38,5.285,0.473,5.553
			c0.087,0.268,8.332-1.474,10.834-1.832c2.502-0.357,7.776-1.653,8.043-2.189c0.268-0.536,0.135-1.251,0.537-1.295
			c0.402-0.045,1.028-1.43,0.982-0.984c-0.045,0.447-0.134,4.379-0.358,4.513c-0.222,0.134-0.805,1.564-0.045,2.547
			c0.758,0.983,2.323,1.787,2.145,2.324c-0.177,0.536-0.09,1.25-0.579,0.759c-0.493-0.491-0.94-0.536-1.117-0.268
			c-0.18,0.268-1.565,0.133-1.52-0.76c0.042-0.893,0.357-2.502-0.67-2.099c-1.027,0.402-11.259,4.871-16.667,5.317
			c-0.338,0.028-1.518,1.161,0.716,1.028c2.234-0.134,12.51-4.067,12.645-3.754c0.135,0.313-0.049,1.141,1.072,1.162
			c2.382,0.045-1.487,1.382-2.471,1.653c-0.905,0.25-9.692,3.018-12.028,3.785c-1.772-5.852-2.927-12.118-3.314-18.649
			C274.185,102.613,275.017,93.689,277.003,85.599z M291.166,116.657c-0.442,0.295-0.158-4.325-0.092-6.464
			c2.297-1.841,4.13-4.344,4.159-7.476c0.005-0.939-1.252-1.341-1.163-1.966c0.09-0.626,0.044-3.396-0.179-3.53
			c0,0,0.537-0.984,0.849,0.268c0.312,1.251,0.223,2.144,1.52,2.949c1.294,0.804,1.43,0.596,1.742,1.55
			c0.312,0.953,1.564,5.376,1.34,5.823c-0.223,0.447-1.297,1.788-1.965,3.575c-0.671,1.787-3.308,4.424-4.157,5.094
			c-0.848,0.67,0.537-1.073,0.582-1.966C293.846,113.619,291.701,116.301,291.166,116.657z"/>
		<path fill="#FFFFFF" d="M172.492,168.537c8.245,0.96,16.031-6.709,16.621-16.536c0.492-8.215-4.544-17.009-11.527-18.654
			c-13.942-3.284-20.568,7.402-21.179,15.794c-1.609,22.1,16.598,19.766,16.598,19.766c-5.042-0.134-14.199-2.265-15.039-15.823
			c-0.076-1.257,0.139-5.462,1.301-8.366C159.266,144.718,154.038,166.388,172.492,168.537z M161.697,150.015
			c0.651-7.576,6.093-13.194,12.645-12.824c6.552,0.369,11.513,6.871,11.079,14.521c-0.43,7.651-6.124,13.349-12.677,12.979
			C166.194,164.321,161.041,157.648,161.697,150.015z"/>
		<path fill="#FFFFFF" d="M154.797,184.261c0.274,0.212,1.385-1.37,1.355-1.757c-0.031-0.388-1.458-0.805-1.49-0.626
			C154.633,182.057,154.068,183.694,154.797,184.261z"/>
		<path fill="#FFFFFF" d="M153.412,181.133c-0.567-0.148-2.147-0.417-2.234,0.238c-0.088,0.655,0.864,3.574,2.472,3.068
			C153.996,184.33,153.977,181.282,153.412,181.133z"/>
		<path fill="#FFFFFF" d="M164.076,177.767c0.09-4.423-2.8-7.491-7.327-7.412c-4.366,0.076-6.806,3.077-6.806,3.077l-2.399,0.136
			c0,0-1.929,1.878-2.025,6.017c-0.094,3.992,2.794,6.503,4.23,7.238c2.323,1.191,4.721,0.878,4.721,0.878
			c-7.819-0.938-8.027-7.491-8.058-8.117c-0.03-0.625,0.567-0.239,0.834-0.179c0.268,0.059,0.865-0.566,1.013-0.864
			c0.149-0.297,0.564-0.237,0.564-1.119c0-0.881,1.7-6.418,8.164-6.418c6.463,0,6.552,7.15,6.493,6.299
			c-0.06-0.85-1.415-5.42-6.643-5.51c-6.17-0.105-7.834,4.841-8.101,7c-0.034,0.268-0.656-0.104-0.715,1.386
			c-0.061,1.49,1.489,7.297,8.758,6.91c7.266-0.386,6.732-9.085,6.759-9.264L164.076,177.767z M161.723,177.827
			c-0.24-0.029-0.745-0.119-0.805,0.178c-0.06,0.299,0.387,0.716,0.655,0.716c0.267,0-0.15,1.847,0,2.055
			c0.149,0.209-1.49,0.119-1.52-0.148c-0.03-0.268,0.12-1.162-0.148-1.281c-0.269-0.119-2.057-1.101-1.787-1.548
			c0.268-0.447,0.029-0.804,0.595-0.626s1.58-0.536,1.192-0.686c-0.387-0.149-1.431-0.774-1.34-1.102
			c0.088-0.328,0.298-1.489-0.329-1.102c-0.626,0.387-0.893,1.609-1.428,1.817c-0.538,0.209-2.564,1.519-2.652,1.966
			c-0.089,0.447-0.984,2.145-0.18,2.92c0.805,0.774,2.205,0.982,3.008,0.625c0.807-0.358,1.341-1.161,1.489-0.774
			c0.15,0.387-0.028,1.102,0.507,1.429c0.538,0.328-1.042,0.525-0.982,0.793c0.06,0.268,1.325,1.291-0.633,1.441
			c-1.959,0.148-1.301,1.072-1.925,0.714c-0.626-0.357-1.465-0.163-1.807-0.081c-0.522,0.125-2.121-1.051-2.926-3.106
			c-0.878-2.244-0.528-5,1.317-7.105c1.767-2.011,3.888-2.166,5.295-1.921c2.055,0.357,3.963,1.861,4.402,3.529
			C161.723,176.531,161.961,177.857,161.723,177.827z"/>
		<path fill="#FFFFFF" d="M204.35,3.241c-0.165,3.984-20.866,13.338-22.971,14.279c-2.88-0.686-14.207-2.69-14.473-2.394
			c-0.505,0.566-0.06,3.097-0.06,3.097s4.4,0.744,9.565,1.493c-0.256,0.188-0.338,0.224-0.517,0.383
			c-1.895-0.283-7.646-1.132-8.093-1.132c-0.27,0-0.388,1.044,0.207,1.222c0.495,0.148,5.516,0.932,7.417,1.195
			c-0.071,0.653-0.153,1.456-0.252,1.844c-0.148,0.596-1.1,1.713-1.163,2.636c-0.06,0.923-0.445,4.111,1.802,5.705
			c2.155,1.526,2.22,3.783,3.74,4.528c1.518,0.745,2.964,1.742,3.886,1.831c0.925,0.09,3.546-0.879,3.398-1.146
			c-0.369-0.664-1.108-3.339-0.963-3.563c1.146-1.782,2.393-3.244,2.028-5.816c-0.385-2.698-1.378-4.756-5.207-5.932
			c-0.483-0.148-1.174-1.824-1.147-2.838c2.74-1.125,22.856-9.536,24.262-14.468c0.18-0.626,0.241,2.8,0.241,2.8
			s-0.27,1.251,0,1.518c0.267,0.269-0.358,0.715-1.163,0.537c-0.805-0.179-2.057,0.179,0,1.519c2.055,1.34,2.682,1.787,2.592,2.591
			c-0.09,0.804,1.073,1.609,0.715,1.877c-0.357,0.269-1.432,0.357-0.625,1.072c0.805,0.715,1.341,0.626,1.43,1.341
			c0.088,0.715,0.893,1.073,0,1.073c-0.894,0-0.805,0.357-0.447,1.072c0.358,0.715,0.889,2.115,0.417,3.098
			c-0.15,0.311,2.663-2.625,2.175-3.902c-2.979-7.775-4.766-17.068-5.63-17.426c-1.256-0.521-7.624-3.202-29.31,0.938
			C176.2,2.272,204.558-1.794,204.35,3.241z M181.682,33.147c-3.487,0.002-3.487-3.723-3.487-3.723c0-1.222,0.955,0.372,1.192,1.072
			c0.563,1.655,1.907,1.579,2.144,1.668C181.77,32.255,182.312,33.147,181.682,33.147z"/>
		<path fill="#FFFFFF" d="M163.511,12.576c0.132,0.625,0.179,1.519,0.715,1.832c0.536,0.312-0.225,6.77-0.269,7.569
			c-0.044,0.799,1.204-1.464,1.339-2.005c0.133-0.541,0.048-4.385,0.36-4.608c0.313-0.223,0.044-1.34,0.402-1.43
			c0.356-0.089,1.875-0.045,1.295-0.804c-0.581-0.76-1.027-3.342-3.085-3.322c-1.574,0.015-28.535,0.869-28.535,0.869l26.882,1.139
			C162.616,11.816,163.376,11.951,163.511,12.576z"/>
		<path fill="#FFFFFF" d="M111.892,28.074c1.109,0.088,0.819-1.046,0.949-3.551c0.014-0.271,0.289-0.552,0.682-0.84
			c2.458,0.027,8.926,0.114,8.78,0.259c-0.179,0.178-1.063,2.055-1.018,2.368c0.045,0.312,1.235-0.197,1.922-1.474
			c2.234-4.156,7.456-8.74,11.79-9.053c4.335-0.312,9.194,0.675,11.399,8.248c0.137,0.471-2.769,1.475-2.769,2.279
			c0,0.804,5.719,1.742,7.014,2.099c0.805,0.223,3.262-3.261,5.006-3.664c1.198-0.276-5.989-0.357-6.033-0.759
			c-0.045-0.402-2.856-10.013-11.706-10.053c-7.194-0.032-12.194,4.747-14.591,8.115c-0.095,0.133-4.165,0.113-6.385-0.018
			c1.958-0.712,4.531-1.493,5.515-1.842c2.145-0.759,3.664-2.055,3.887-2.457c0.224-0.403-0.134-1.028-0.626-0.849
			s-11.081,4.513-12.556,5.139c-1.474,0.625-2.28,1.206-2.278,4.065C110.876,27.385,110.73,27.982,111.892,28.074z"/>
		<path fill="#FFFFFF" d="M161.611,28.422c0.647,0.3,0.827-0.792,0.647-1.078c-0.179-0.285-1.228-1.077-2.368-1.077
			c-2.681,0-3.44,2.155-3.44,2.155c0.76-0.703,1.532-0.289,2.659-0.792C160.359,27.071,160.963,28.121,161.611,28.422z"/>
		<path fill="#FFFFFF" d="M204.126,58.75c-0.089,0.582,0.044,5.094,0.044,5.094s-0.446,0.089-0.358,0.67
			c0.091,0.581-0.312,3.698,0.401,4.15c0.717,0.453,0.658,0.944,0.441,1.168c-0.215,0.224-0.35,0.715-0.528,0.581
			c-0.179-0.134-2.995-1.876-4.335-0.581c-0.569,0.55-1.162,1.251-0.088,2.368c1.071,1.116,3.842,4.11,4.244,4.155
			c0.401,0.045,1.252-0.581,0.983,0.224c-0.254,0.76-0.306,6.733,2.032,9.054c-0.573,0.411-1.135,0.833-1.691,1.264
			c-3.454,2.681-5.301,2.402-5.301,2.402c-1.311,0.298-17.273,4.415-18.349,25.2c-0.647,12.469,6.105,21.166,11.897,25.48
			c-8.245-7.994-2.783-10.467-0.696-11.42c1.662-0.761,5.436-0.587,6.882-0.372c0.363,1.001,0.749,1.952,1.154,2.859h-2.966
			c-0.312,0-0.052,1.004,0.484,1.026c0.391,0.016,2.082,0.022,2.968,0.023c0.305,0.635,0.619,1.244,0.943,1.833H199.3
			c-0.337,0,0.088,1.006,0.468,1.006h3.089c0.295,0.502,0.598,0.985,0.903,1.451h-2.936c-0.362,0,0.129,1.025,0.621,1.025
			c0.37,0,2.158,0.014,3.028,0.021c0.362,0.509,0.728,0.992,1.099,1.456h-2.986c-0.316,0,0.29,1.073,0.803,1.073h3.076
			c0.32,0.364,0.637,0.715,0.96,1.049h-2.994c-0.424,0,0.644,0.927,1.18,0.927h2.74c0.462,0.442,0.922,0.854,1.382,1.24h-2.771
			c-0.291,0,0.649,0.648,1.452,0.648h2.116c5.193,4.063,9.815,4.751,9.815,4.751c-17.157-7.268-21.513-23.866-21.566-34.315
			c-0.064-12.303,4.17-19.362,4.17-19.362c1.37-2.681,2.069-0.347,1.736,0.425c-1.238,2.883-3.817,7.439-3.702,18.937
			c0.196,19.667,13.186,27.812,13.186,27.812s-11.346-9.795-11.034-27.693c0.207-11.905,2.606-15.514,4.624-18.399
			c-1.162,3.188-1.786,5.017-2.239,10.533c-1.594,19.4,7.054,26.976,7.054,26.976s-6.839-8.727-4.379-27.827
			c2.844-22.086,22.286-27.231,22.286-27.231s-7.863,1.351-13.105,2.304c-3.886,0.706-6.633,2.343-9.35,4.16
			c-2.065-2.527-1.731-4.015-1.442-4.533c0.297-0.536-0.06-1.429-0.3-1.489c-0.237-0.06-1.47-1.131,0.12-2.145
			c1.59-1.013,1.369,2.443,1.43,3.516c0.06,1.072,1.445,0.834,1.982,0.178c0.537-0.655-1.296-2.641,0.758-2.859
			c3.366-0.358,6.911-5.362,7.865-6.315c0.952-0.954,1.608-1.311,1.428-1.907c-0.176-0.595,0.894-1.43,0-1.191
			c-0.892,0.238-1.965,0.298-1.905,0.833c0.059,0.536-2.799,5.303-2.203,2.384c0.595-2.919-0.325-3.429-0.325-3.429
			c-0.071-2.886-2.976-4.517-2.976-4.517c-0.264,3.844-2.219,9.255-2.219,9.255c1.759-1.36,2.506-3.557,2.643-4.585
			c0.136-1.028,0.314,0.447,0.314,1.385s0.847,0.805,0.938,0.536c0.09-0.267,1.119-1.25,1.119-1.25
			c-0.314,5.854-6.169,4.612-6.169,4.612c1.028-2.055,2.637-10.242,2.637-10.242s-2.905-0.909-5.08,2.219
			c-0.718,1.034-0.869,2.799-0.869,2.799s-0.424-6.473-0.495-6.924c-0.131-0.844-0.205-2.123,0.331-2.646
			c0.357-0.348,1.367-1.836,2.18-2.285c2.457-1.353,4.221-3.419,5.427-3.062c1.206,0.357,1.673,0.438,2.036,0.715
			c0.585,0.45,1.295,0.292,1.74,0.426c0.449,0.134,1.208,1.118,1.342,1.474c0.132,0.357-0.06,1.534,0.342,2.115
			c0.097,0.139,0.184,0.311,0.268,0.493c-0.899,0.537-3.574,2.148-3.724,2.396c-0.177,0.298-0.268,0.924,0.567,0.834
			c0.643-0.069,2.715-1.357,3.702-2.027c0.092,0.162,0.191,0.303,0.304,0.403c0,0,0.724,0.163,0.73-0.164
			c0.035-1.637-0.252-4.468-2.457-6.018c-1.792-1.259-1.402-0.215-4.125-1.742c-1.001-0.561-1.952-0.045-4.006,0.983
			C207.88,54.148,204.349,57.275,204.126,58.75z M201.458,94.123c-0.815,1.873-1.88,4.572-2.743,7.834
			c-0.945,1.562-4.158,0.985-5.418,0.804c-4.17-0.596-4.512-1.907-3.916-4.05c0.597-2.144,2.358-4.656,4.979-5.848
			C196.982,91.671,202.056,92.753,201.458,94.123z"/>
		<path fill="#FFFFFF" d="M155.128,119.373c-0.114,0.401-0.262,1.867-0.202,3.118c0.058,1.251-0.538,3.932,5.361,4.348
			c5.139,0.364,11.88,0.792,16.382,1.967c5.481,1.43,9.376,7.236,11.797,10.544c4.707,6.435,5.777,10.128,8.102,9.175
			c1.433-0.588,1.214-2.635,0.129-4.261c-0.975-1.462-1.441-1.935-3.823-3.544c-2.515-1.698-13.846-10.987-12.45-27.941
			c1.192-14.476,9.948-20.792,17.039-24.008c0.902-0.41,1.787-3.039,2.025-4.17c0.24-1.132-0.774-2.263-1.787-2.324
			c-1.012-0.059-2.86,2.384-7.506,7.863c-4.646,5.481-8.164,7.389-10.666,8.282c-2.502,0.894-13.225,0.298-16.085,0.358
			c-2.859,0.06-5.898,0.119-6.613,0.834c-1.213,1.212-1.133,4.468-1.073,5.957s1.251,1.37,1.549,1.37
			c0.298,0-0.237,11.141-0.298,11.439C156.951,118.678,155.461,118.201,155.128,119.373z M159.571,113.196
			c0.121-1.549,0.774-2.677,2.086-2.68c1.549-0.004,2.023,1.488,2.025,2.382c0.004,1.549-0.538,2.979-2.025,2.979
			C160.168,115.877,159.453,114.746,159.571,113.196z"/>
		<path fill="#FFFFFF" d="M150.463,110.864c0,0-0.238,0.775-0.535,3.217c-0.299,2.442-1.023,25.096-0.485,25.685
			c0.542,0.588,0.84-0.902,1.019-1.378c0.179-0.476,1.013-25.617,0.893-26.213C151.238,111.578,150.999,110.03,150.463,110.864z"/>
		<path fill="#FFFFFF" d="M147.613,141.903c0.408-0.596,0.726-3.813,0.726-3.813l0.635-28.894c0,0,0.222-1.311-0.635-0.774
			c0,0-0.557,0.059-0.618,1.37c-0.059,1.311-0.832,31.098-0.832,31.098S147.207,142.498,147.613,141.903z"/>
		<path fill="#FFFFFF" d="M144.684,141.188c0,0,1.49,1.966,1.49,1.073c0-0.894,0.715-22.937,0.715-22.937h-1.907L144.684,141.188z"
			/>
		<path fill="#FFFFFF" d="M117.282,228.178c0,0-4.997,10.676-13.174,14.537c-8.177,3.861-73.138,30.663-74.501,38.159
			c-0.659,3.624-3.384,32.234-6.073,62.357v0.001c-0.03,0.356-0.06,0.748-0.092,1.17c0.459,0.559,0.921,1.114,1.385,1.668
			c0.042-0.738,0.081-1.4,0.114-1.974c3.17-30.112,6.28-58.781,6.936-62.313c1.287-6.926,67.04-34.911,73.073-37.92
			C111.29,240.7,116.6,233.431,117.282,228.178z"/>
	</g>
	<path fill="#FFFFFF" d="M269.403,249.553c13.174,3.486,24.119,6.752,26.191,8.477c5.795-1.779,9.628,8.592,10.649,9.399
		c1.02,0.806,1.289,3.761,1.665,4.781c0.376,1.02,1.504,2.633,2.525,4.137s11.496,15.896,12.518,18.911
		c2.419,7.135,6.247,18.54,10.432,19.064c6.281,0.787,17.63,4.826,33.209,11.269c-1.581,1.575-4.624,4.477-5.122,5.259
		c-1.054,1.656-0.535,6.197-0.239,12.461c-2.147,8.853-3.206,18.015,1.596,22.549c-2.137-0.081-5.834-0.043-7.691,3.129
		c-0.865,1.478,1.317,6.131,1.317,6.131c-0.463,0.138-2.431,1.861-2.687,3.102c-0.437,2.124,1.73,5.057,2.416,6.059
		c0.072,1.154,0.134,3.184,0.636,5.501c-3.173-0.013-12.28-4.017-13.948-4.712c-2.437-1.015-23.981-10.541-24.619-10.906
		c-3.254-1.856-7.887-4.026-10.912-5.606c-6.326-3.304-17.115-23.251-18.485-24.661s-3.621-5.273-4.679-7.677
		c-0.629-1.431-4.038-8.223-3.184-17.441c4.191-27.277,11.489-49.62,11.489-49.62s-14.708,30.726-18.417,76.584
		c-1.643,20.32,0.076,55.574-0.213,66.625l3.039-2.139c0.186-4.712-1.443-45.868-0.124-66.964c0.217-3.472,0.293-4.731,0.836-8.611
		c3.979,7.482,7.081,10.826,8.21,11.954c1.128,1.129,13.464,19.787,19.956,23.465c1.16,0.657,7.429,3.462,11.076,5.327
		c0.749,0.383,24.821,10.967,25.788,11.612c0.966,0.645,11.537,4.926,14.78,4.989c4.688,8.872,16.761,8.985,21.6,7.531
		c0.16,0.028,1.642,0.706,4.22,0.625c2.579-0.08,4.03-1.047,7.172-1.209c3.143-0.161,4.352-0.726,5.319-1.209s4.433,0,9.348-1.128
		c4.916-1.128,13.055-5.882,15.392-7.736c2.337-1.853,2.337-4.674,2.74-8.058c0.403-3.385,0.967-3.949,2.337-5.48
		s2.659-2.982,3.465-4.271s-0.047-5.802-0.047-5.802c0.103-0.342,0.988-0.251,3.432-2.176c3.859-3.039,2.344-11.406,0.901-13.786
		c0.048,1.683,2.38,7.862-0.673,12.262c-0.868,1.251-3.786,2.667-3.786,2.667c-0.369,0.211-0.729,0.394-1.092,0.585l0,0
		c-0.001,0.001-0.004,0.002-0.006,0.003c-0.271,0.143-0.544,0.291-0.825,0.461c-0.038,0.021-0.077,0.047-0.117,0.075
		c-3.721,2.119-16.875,9.438-18.745,9.661c-1.839-0.397-0.433-0.721-0.24-1.623c0.127-0.595,0-1.154-0.481-1.01
		c-0.481,0.144-1.455,1.797-2.416,2.092c-1.33,0.409-4.845-0.264-5.662-0.558c-0.818-0.293-1.058-1.101-0.769-1.63
		c0.288-0.529,0.625-1.395,0.433-2.068c-0.493-0.433-0.493,1.082-1.298,1.25c-0.339,0.071-0.625-0.721-2.116-3.078
		c-1.49-2.356-7.697-2.809-8.703-2.885c-0.637-0.048-2.933,1.971-3.943,3.318c-0.986,1.314-1.061,2.057-0.631,3.199
		c-1.053-1-1.643-1.942-1.542-3.934c0.358-3.536,3.285-9.54,13.834-10.3c7.143-0.514,12.995-0.246,13.912-1.114
		c0.669-0.766,1.428-1.243,3.399-2.012c2.383-0.93,3.936-2.285,6.408-5.591c2.585-3.016,3.114-3.702,5.567-3.745
		c-1.179-0.978-3.728-0.882-3.454-2.025c1.414-1.985,3.227-3.955,4.411-5.663l1.929-2.106c0.21-0.056,0.423-0.115,0.634-0.176
		c0.331,1.474,0.683,4.31,2.009,4.929c-0.763-1.586-0.952-3.08-0.879-5.292c0.451-0.163,0.804-0.322,0.946-0.451
		c0.524-0.477,0.822-0.629,2.073-1.062c1.25-0.433,2.356-1.154,3.091-1.861h-0.001c0.902-0.381,1.823-0.791,2.767-1.234
		c-0.022,0.008-0.042,0.013-0.062,0.019c6.874-2.738,11.092-8.002,12.725-12.845c1.561-3.092,2.267-7.22,2.011-11.994
		c-0.496-9.258-4.585-18.745-10.174-23.607c-4.776-4.155-11.018-6.444-17.578-6.444c-6.557,0-12.722,2.257-17.446,6.227
		c-10.495,6.124-12.488,17.444-10.906,26.442c-0.052,0.821-0.057,1.798,0.003,2.893c-0.291,0.39-0.607,0.998-0.625,1.108
		c-0.096,0.546-0.169,1.084-0.231,1.618c-4.781-0.273-7.254,1.372-8.177,2.123c-0.967,0.787-1.854,1.067-3.143,0.583
		c-1.29-0.484-5.641,0.08-8.623,0.806c-2.982,0.725-5.157,3.706-5.641,4.915c-0.206,0.516-0.001,0.21-1.483,1.693
		c-8.874-3.09-27.532-10.639-34.24-11.425c-3.847-0.451-7.98-15.357-9.055-18.044c-1.074-2.686-11.389-17.728-12.356-18.91
		c-0.967-1.182-1.935-3.116-2.579-3.976c-0.644-0.859-0.436-3.882-1.397-4.835c-1.103-1.094-4.161-10.864-12.155-11.309
		c-0.076-0.004-0.141-0.047-0.205-0.066c-11.767-3.762-17.281-5.249-25.009-7.192c-4.509-1.133-29.688-7.06-35.286-8.721
		c-18.878-5.602-28.898-13.409-33.221-17.942c0-4.148,0.057-9.8,0.057-12.471c0.036-0.18,0.021-0.433-0.001-0.635
		c0-0.001,0-0.003,0-0.004l0,0c-0.02-0.178-0.045-0.314-0.045-0.314s-51.023,2.925-53.683,3.406c-0.072-0.98-0.19-2.089-0.351-2.379
		c-0.297-0.535-1.372-0.298-1.549-0.238c-0.18,0.06,0.177,0.358,0.832,0.894c0.657,0.535-0.832,1.548-1.31,1.727
		c-0.475,0.18-0.358,0.537,0,0.835c0.359,0.298-0.655,1.43-1.43,0.798c-0.772-0.633-0.357,0.93-0.117,1.288
		c0.238,0.356-2.117-0.149-4.202-0.924c-0.221-0.082-0.595-0.216-1.077-0.386c3.554,0.282,4.792-2.326,5.749-5.936
		c0.936-3.537,0.877-21.112,0.877-21.112c-0.083-2.033-1.581-3.29-1.693-4.513c-0.042-0.452-0.058-4.257,0-4.781
		c0.059-0.523,1.214-2.315,1.631-2.971c0.416-0.655,0.21-1.266,0.21-2.458c0-1.191-0.635-1.996-0.992-2.234
		c-0.357-0.238-0.565-0.558-0.565-1.094c0-0.537-0.626-0.53-0.626-0.53l0.566-25.237c0,0-1.899-1.186-1.906-0.849
		c-0.021,0.953-1.429,62.004-1.489,63.017s-1.192,5.302-2.979,5.123c-0.87-0.086-9.917-2.747-19.496-5.601
		c-10.075-3.001-18.477-6.214-21.057-7.629c-0.626-0.343-1.959-8.211-2.467-18.991c-0.317-6.759,0.383-96.648,1.18-98.578
		c0.607-1.474,1.986-1.816,5.798-2.889c3.812-1.072,41.047-12.809,41.465-12.511c0.418,0.298,0.714,0.239,0.714,2.621
		c0,2.383-0.357,26.333-0.536,26.75c0,0-0.21,1.433-1.52,1.493c-1.31,0.059-2.382-0.42-3.842,1.632
		c-1.019,1.435-1.311,2.922-1.191,6.586c0.137,4.233,2.002,4.781,2.681,5.064c2.144,0.893,3.485-0.626,3.721,2.085
		c0.007,0.055,0.013,0.101,0.02,0.142c-1.188,3.083-2.601,7.503-3.028,11.953c-0.773,8.102,0.18,13.643,0.954,17.277
		c0.374,1.752,2.205,2.263,2.205,2.263s0.059-15.37,0.239-15.667c0.176-0.298,0.297-1.49,0.058-1.43
		c-0.238,0.059-0.477-1.132,0-1.609c0.474-0.476-0.297-0.595-0.537-0.536c-0.238,0.059,0.179-1.133,0.417-1.311
		c0.238-0.178,0.318-6.305,0.294-7.558c-0.042-2.267-1.511,4.476-1.061,1.046c0.383-2.921,1.862-5.044,2.166-5.51
		c-0.244,1.65-0.328,7.137-0.268,7.151c0.061,0.015,0.297,0.045,0.357,0.462s0.298,1.132,0.715,1.251
		c0.418,0.119,0.598-1.132,0.598-1.132s0.237-6.971,0.237-7.864c0-0.894-0.477-0.954-0.477-0.954v-1.966l-1.072-0.03
		c0,0,0.494-33.462,0.749-41.811c0.034,0.005,0.071,0.007,0.116,0.005c4.551-0.229,5.61-3.418,5.33-1.94
		c-0.283,1.476-0.158,5.724,0.788,5.76c0.402-0.741,0.165-4.103,0.421-4.745c0.256-0.641,0.707,0,0.769,0.256
		c0.064,0.257,0.377,0.384,0.989,0.293c0.456-0.068,0.258-0.641,0.321-1.281c0.065-0.642-1.629-0.621-1.885-0.558
		c-0.258,0.065-0.385-0.314,0.064-0.57c0.45-0.256,0.988-0.595,0.576-0.988c-0.412-0.393-2.308,0.347-3.846,0.603
		c-1.079,0.18-3.008,1.696-3.622,2.564c0.025-0.734,0.048-1.177,0.067-1.258c0.194-0.835,0.625-1.609,1.547-1.758
		c0.924-0.149-0.399-0.252-0.904-0.221c-0.507,0.029-5.47,1.948-5.47,1.948s-1.103-0.7-1.728-0.67
		c-0.625,0.03-1.549-0.193-1.639,0.105c-0.088,0.298,0.449,1.202,0.122,1.321c-0.328,0.119-0.955,0.317-0.925,0.049
		s0.455-1.668-0.439-1.341c-0.894,0.328-1.52,0.209-1.52,0.447s-0.149,1.668-0.357,1.609c-0.208-0.06-0.067-1.519-0.424-1.281
		s-4.893,1.482-4.982,1.772c-0.196,0.637,0.052,1.452-0.335,1.631c-0.387,0.179-16.674,5.384-16.912,5.384
		c-0.239,0-0.092-0.193,0.215-0.834c0.147-0.306-0.024-0.974-0.148-1.065c-0.299-0.22-1.676-0.067-1.609,0.32
		c0.135,0.777,0.217,0.894-0.01,0.924c-0.228,0.03-1.799,0.231-1.844,1.393c-0.007,0.179-0.423-1.251-0.528-1.304
		c-0.352-0.172-5.325,1.684-5.325,1.907c0,0.417,0.24,1.443-0.067,1.519c-0.917,0.226-6.523,1.757-7.357,2.711
		s-1.251,1.489-1.489,5.005c-0.012,0.173-10.144-5.749-9.682-15.816c0.379-8.294,3.724-15.64,17.441-16.354
		c-0.291,0.121-0.582,0.243-0.871,0.363c-1.623,0.677-1.168,3.867-1.168,3.867s47.283-19.976,48.912-20.673
		c1.251-0.536,1.987,0.613,2.18,1.728c0.24,1.37-0.334,20.91-0.334,20.91h5.6c0,0,0.03-17.396,0.03-21.924
		c0-1.769-0.663-2.881-1.564-3.573c0.103-2.718,1.533-3.611,2.277-4.231c0.805-0.67,13.183-1.921,13.718-1.699
		c0.268,0.112-0.2,1.193-0.135,3.337c0.052,1.619,0.668,4.311,0.67,5.011l-14.997-1.02c0,0,0.327,0.547,1.489,0.834
		c0.415,0.102,2.071-0.03,2.175,0.283c0.105,0.313,0.91,1.251,1.549,0.969c0.64-0.284,0.492-1.277,0.953-1.063
		c0.462,0.213,1.892,0.168,2.115,0.408c0.222,0.238,1.669,0,1.906,0.387c0.239,0.387,0.82,1.519,1.252,1.266
		c0.43-0.253,1.429-1.251,1.847-0.894c0.415,0.358,2.218-0.06,2.681,0.358c0.462,0.417,1.206,0.76,1.042,0.402
		c-0.146-0.321-1.617-1.431-0.051-1.432c1.133,0.941,1.725,3.252,1.868,4.293c0.18,1.311,0.367,20.552,0.367,20.552h3.147
		c0,0,0.001,0.087-0.004-0.545c1.937,0.145,2.682,0.722,3.525,0.424c0.508-0.179,1.598,0.346,1.871,0.528
		c0.628,0.418,1.295,0.04,1.965-0.227c0.67-0.269,2.101,0.984,2.592,1.162c0.831,0.301,1.697-0.044,2.144-0.224
		c0.447-0.179,2.257,0.746,2.702,0.861c0.725,0.187,1.855-0.593,2.705-0.459c0.848,0.134,1.522,1.111,1.815,1.169
		c1.073,0.212,1.402-0.722,2.339-0.722c0.94,0,1.385,1.698,2.502,1.696c1.119-0.002,0.447-1.383,0.67-3.06
		c0.224-1.677,2.478-3.194,2.478-3.194c-1.041,0.074-3.301,0.94-4.384,3.194c-0.432,0.655-20.318-1.783-22.932-2.05
		c-0.006-0.644-0.012-1.473-0.021-2.426c0.319,0.17,0.719,0.33,1.223,0.477c3.664,1.073,5.154,0.478,6.644,1.132
		c1.49,0.656,3.007-1.132,4.527,0c1.006,0.751,2.682,0.271,3.129-0.519c0.445-0.791,1.25-0.344,1.875-0.613
		c0.627-0.267,0.358-1.176-0.089-2.42c-0.446-1.245-0.716-0.887-0.537-3.389c0.18-2.503,2.49-13.82,3.129-17.604L195.6,33.15
		c0,0-2.027,15.907-1.819,18.051c0.212,2.144-0.595,0.09-0.863-3.485c-0.267-3.575-1.608-9.473-2.322-9.562
		c-0.395-0.048-1.67,1.609-1.252,3.397c0.312,1.348-4.374,0.188-5.719-0.179c-2.038-0.556-3.752-1.162-3.752,0.179
		c0,1.34,4.362,1.558,2.947,1.826c-0.945,0.18-0.534,2.195-0.534,2.195s-2.413,1.487-3.604,2.946
		c-0.043-3.769-0.101-7.739-0.166-9.871c-0.178-5.734-2.189-6.002-2.875-6.18c-0.221-0.058-0.638-0.079-1.102-0.08
		c-1.952-4.275-1.302-6.583-0.778-8.261c0.2-0.641,0.75-0.894,0.926-1.117c0.181-0.223,0-0.76,0-0.76s-11.119,1.098-16.664,1.921
		c-3.586,0.532-4.265,3.795-4.395,5.117c-1.575-0.565-3.287-0.368-3.621-0.231c-4.33,1.786-19.75,8.394-35.182,14.901
		c-0.181-4.46,0.066-13.228,0.066-15.402c0-0.554-1.369-0.577-1.369,0.074c0,2.92-0.077,11.434-0.001,15.848
		c-2.305,0.971-4.595,1.935-6.832,2.873c-1.309-0.305-2.825-0.637-3.937-1.002c-4.519-1.484-11.379-2.562-18.409-2.68
		c-7.029-0.119-11.379,0.595-20.732,4.289c-10.218,4.035-22.222,8.639-23.235,16.086s6.256,10.784,15.252,14.656
		c8.996,3.873,9.829,7.626,20.435,9.175c8.98,1.312,15.139,1.129,17.973,1.621c-0.79,22.193-1.094,82.553-0.599,88.482
		c0.596,7.149,0.977,18.024,3.286,19.66c2.779,1.97,11.461,5.554,21.248,8.874c-0.937-0.048-1.636,0.15-1.724,0.932
		c-0.18,1.598-0.77,11.57-0.089,12.839c0.169,0.315,1.507,1.027,3.543,1.967c-0.171,0.873-0.302,1.89-0.442,3.362
		c-0.757,8.025,0.425,85.195,5.213,141.279c0,0,2.249,27.098,2.698,39.469c0.06,1.651,0.528,7.295,0.627,11.017
		c0.623,0.191,0.417,1.141,1.042,1.327c-0.512-21.153-1.251-54.44-1.275-58.652c-0.028-4.945,3.162-47.444,6.232-62.515
		c3.331-16.353,14.495-28.265,14.083-32.253c-0.091-0.885-3.028-6.36-4.695-6.966c-1.666-0.606-16.505,16.657-16.505,16.657
		s18.453-29.708,24.358-30.163c5.906-0.454,29.701,31.828,29.701,31.828s-16.051-16.201-17.869-16.051
		c-0.984,0.08-3.396,2.425-3.331,4.24c0.152,4.24,6.663,14.688,7.874,20.896c3.605,18.466,8.982,44.27,9.219,93.158
		c-0.812,16.218-1.566,35.641-1.838,49.105c0.549,0.043,0.188,0.004,0.739,0.043c0.314-12.405,17.876-163.637,20.926-197.96
		c3.55-0.317,5.861-0.554,6.093-0.647c0.259-0.105-0.027-5.357-0.073-5.621c-0.001-0.127,11.464,11.201,33.527,17.749
		C240.422,242.861,263.642,248.029,269.403,249.553z M138.339,101.629c-0.028-4.318,1.102-6.344,2.384-6.344
		c0.923,0,1.073,1.251,1.073,1.251C139.501,95.285,138.339,101.629,138.339,101.629z M94.02,86.086
		c-1.313-0.19-4.661-1.35-9.269-3.053c-1.546-0.571-3.591-2.337-3.044-3.863c0.297-0.834-2.707-6.375-3.481-9.353
		c-1.039-3.993,0.55-9.322,1.998-9.294c0,0-1.847,5.302-0.655,8.757c1.192,3.456,3.224,12.132,14.476,15.848L94.02,86.086z
		 M118.114,219.886c-0.673-0.313-0.685-1.19-0.685-3.215c0-2.026-0.06-8.46,0.685-8.594c1.55-0.279,17.843,5.526,23.326,7.044
		c5.48,1.519,5.836,2.294,5.954,2.533c0.12,0.239-0.267,11.497-0.267,12.331s-0.298,0.776-0.893,0.953
		C145.637,231.118,120.509,221.007,118.114,219.886z M151.436,243.682c-4.709,0.098-15.682-9.306-23.106-17.737
		c9.045,3.714,19.811,7.825,19.811,7.825c0.674,0.018,10.143-0.662,20.998-1.493C161.956,238.565,154.253,243.624,151.436,243.682z
		 M200.299,224.231c-0.125,1.427-0.567,2.978-1.425,4.173c-0.432,0.602-0.886-1.35-1.619-0.246
		c-1.045,1.574-1.569-0.998-2.054-0.416c-0.51,0.613,0.044,2.052-1.429,1.113c0.097,0.062-1.214-0.554-2.479,0.152
		c-0.413,0.23-1.529,0.738-1.494,0.252c0.025-0.349,1.082-3.227,0.469-3.151c-1.389,0.173-2.81,2.657-2.956,3.064
		c-0.263,0.735-1.813,0.709-2.561,0.688c-2.175-0.058-3.825,0.336-6.073,0.451c-4.488,0.229-8.983,0.582-13.473,0.704
		c-0.919,0.025-3.026,0.456-3.381-0.908c-0.132-0.502-1.422,1.25-1.643,0.858c-0.794-1.407-1.134-0.881-2.335-0.52
		c-0.581,0.175-1.097,1.112-2.018,1.332c-1.666,0.397-5.071,0.961-5.193,0.298c-0.01-0.055,2.338-1.038,1.973-1.352
		c-0.259-0.225-2.284-0.618-2.152-1.313c0.094-0.493,2.22-2.442,0.949-2.442c-2.431,0-1.134-3.789-1.072-5.36
		c0.081-2.05,0.04-4.1,0.064-6.153c0.031-2.61,0.191-2.578,2.814-2.787c0.003,0.005,0.358,0.883,0.86,1.103
		c0.929-0.165,0.382-1.361,1.512-1.192c0.914,0.136,1.686-0.352,2.449,0.11c0.068,0.041,3.197-0.047,3.359-0.102
		c0.271-0.092,1.12,0.019,1.765-0.177c0.537-0.164,1.25-0.408,2.096,0.043c0.023,0.012,1.621-0.261,2.17-0.058
		c1.474,0.545,3.666-0.351,3.764-0.443c1.13-1.078,0.979,0.852,1.486,0.635c1.252-0.538,0.804-1.135,2.561-0.997
		c0.961,0.075,1.794-0.386,2.8-0.234c1.178,0.178,3.029-0.192,4.274-0.206c0.844-0.01,3.745-1.222,4.313-0.759
		c0.869,0.71,2.757,0.317,3.825,0.521c0.46,0.088,1.66-0.731,2.158-0.791c0.808-0.098,1.657,0.41,2.462,0.482
		c-0.051-0.005,0.549-0.012,1.068,0.173c0.547,0.194,0.907,0.271,1.001,0.541c1.23,3.545,2.205-0.867,2.54-1.027
		c0.298,0.02,0.489,0.108,0.597,0.42C200.369,215.171,200.693,219.79,200.299,224.231z M448.723,306.885
		c-0.098-0.197-0.13-0.394-0.183-0.601c0.055,0.171,0.11,0.341,0.163,0.51C448.723,306.741,448.723,306.885,448.723,306.885z
		 M448.61,302.819c-0.031-0.261-0.174-0.405-0.319-0.694c0.145,0.288,0.289,0.432,0.322,0.685
		C448.611,302.813,448.61,302.816,448.61,302.819z M447.971,297.757c0.168,0.372,0.33,0.743,0.485,1.112
		c-0.028,0.064-0.057,0.129-0.085,0.194c-0.171-0.36-0.346-0.72-0.527-1.081C447.887,297.907,447.93,297.831,447.971,297.757z
		 M422.848,320.666c-0.306-0.361-0.608-0.715-0.906-1.063c0.383-0.312,0.671-1.178,0.96-1.178
		C424.2,318.714,423.623,319.724,422.848,320.666z M423.115,324.548c-0.264-0.348-0.53-0.691-0.799-1.028
		c0.177-0.234,0.356-0.473,0.543-0.721C423.479,323.331,423.911,324.052,423.115,324.548z M446.282,298.101
		c0.134-0.593-0.876-0.737-0.443-1.314c0.144,0.433,0.433,0.721,0.562,1.113C446.361,297.967,446.322,298.034,446.282,298.101z
		 M446.887,302.038c-0.039,0.087-0.183,0.087-0.183,0.231c0-0.577-0.866-0.866-0.479-1.587
		C446.456,301.135,446.677,301.586,446.887,302.038z M445.406,307.174c0,0,0,0.144-0.048,0.094c0.112,0.286,0.214,0.568,0.317,0.852
		c-0.269,0.209-0.413,0.497-0.557,0.786C445.406,308.328,443.963,307.895,445.406,307.174z M404.111,304.296
		c0.47-0.151,1.047,0.137,1.48,0.137c-0.577,1.01-1.154,2.164-2.453,1.494C403.447,305.404,403.773,304.858,404.111,304.296z
		 M402.705,302.846c-0.144,0,0.144-0.577,0.345-0.83c0.337-0.057,0.678-0.103,1.025-0.137
		C403.715,302.557,403.282,303.423,402.705,302.846z M442.545,299.367c-0.226-0.426-0.594-0.854-0.779-1.284
		c-0.184-0.43-0.184-0.863,0.321-1.296c0.144,0.289,0.433,0.577,0.55,0.866c0.173,0.289,0.345,0.577,0.515,0.865
		C442.966,298.798,442.683,299.083,442.545,299.367z M443.255,302.869c-0.158,0.265-0.446,0.554-0.59,0.842
		c-0.433-0.721-1.01-1.298-0.123-2.014C442.787,302.086,443.025,302.476,443.255,302.869z M441.768,300.516
		c-0.257,0.311-0.545,0.599-0.69,0.887c-0.433-0.721-1.443-1.731-0.577-2.596c0.144,0.288,0.433,0.577,0.698,0.835
		C441.389,299.933,441.578,300.225,441.768,300.516z M420.161,309.049c-0.144,0.145-0.577-0.144-0.751-0.501
		c-0.244-0.227-0.491-0.449-0.74-0.667c0.481-0.564,0.769-1.141,1.202-1.718C421.171,307.174,421.748,308.183,420.161,309.049z
		 M421.459,312.557c0.18,0.459,0.072,0.892-0.577,1.108c-0.289,0-1.01-0.721-1.32-1.237c0.244-0.372,0.492-0.75,0.748-1.138
		C420.811,311.613,421.279,312.098,421.459,312.557z M432.999,302.125c0.145,0.144-0.433,1.154-1.01,1.154
		c-0.144,0.144-0.433-0.289-0.659-0.467c-0.243-0.214-0.488-0.426-0.736-0.638C431.268,300.682,432.422,300.826,432.999,302.125z
		 M433.288,298.23c0.144-0.144,0.577,0.289,0.772,0.529c0.237,0.231,0.473,0.463,0.709,0.696c-0.182,0.506-0.615,1.371-1.047,1.371
		C432.134,300.538,432.134,299.24,433.288,298.23z M431.832,297.956c-0.194,0.289-0.389,0.578-0.584,0.87
		c-0.403-0.252-0.681-0.516-0.854-0.788c-0.172-0.272-0.244-0.55-0.232-0.832c0.024-0.563,0.385-1.14,0.962-1.717
		c0.217,0.433,0.686,0.793,0.953,1.174S432.414,297.446,431.832,297.956z M429.537,301.259c-0.289-0.289-0.433-0.433-0.723-0.655
		c-0.244-0.23-0.482-0.462-0.719-0.697c0.072-0.333,0.288-0.536,0.504-0.746s0.433-0.426,0.505-0.787
		c0.216,0.289,0.469,0.54,0.722,0.782C431.124,299.672,430.114,300.538,429.537,301.259z M429.619,295.416
		c-0.212,0.305-0.43,0.617-0.65,0.934c-1.451-1.15-1.595-2.593-0.008-3.025C429.393,293.181,430.691,294.479,429.619,295.416z
		 M428.199,297.465c-0.392,0.477-0.825,0.91-0.97,1.487c-0.577-0.433-1.01-1.01-1.587-1.443c0.433-0.433,1.154-2.02,1.846-0.785
		C427.728,296.965,427.964,297.213,428.199,297.465z M425.258,295.935c-0.176,0.256-0.353,0.513-0.53,0.771
		c-0.528-0.207-1.105-0.64-1.249-1.073c-0.144-0.577,0.432-1.298,0.865-1.298c0.433-0.144,1.01,0.433,1.443,0.866
		C425.498,295.345,425.354,295.633,425.258,295.935z M423.902,297.912c-0.423,0.463-0.712,1.04-1,1.472
		c-0.433-0.432-1.154-0.721-1.299-1.154c-0.289-0.433,0.721-0.721,0.874-1.41C422.959,297.167,423.434,297.534,423.902,297.912z
		 M421.459,301.403c-0.144,0.145-0.577-0.144-0.765-0.391c-0.24-0.177-0.482-0.35-0.724-0.52c0.191-0.387,0.479-0.964,0.768-0.964
		C422.036,299.528,422.613,300.682,421.459,301.403z M419.583,304.289c-0.721-0.721-2.02-0.866-0.894-1.903
		c0.193-0.287,0.386-0.573,0.581-0.862C420.882,302.125,420.593,303.134,419.583,304.289z M420.411,297.558
		c-0.259-0.183-0.516-0.363-0.772-0.543c-0.199-0.228-0.632-0.372-0.632-0.516c0-0.361,0.216-0.829,0.527-1.091
		c0.311-0.261,0.716-0.316,1.093,0.151c0.263,0.175,0.527,0.35,0.792,0.529C421.072,296.592,420.737,297.079,420.411,297.558z
		 M419.687,298.617c-0.264,0.386-0.524,0.769-0.779,1.146c-0.258-0.174-0.515-0.346-0.769-0.519
		c-0.255-0.173-0.505-0.347-0.754-0.522c0.258-0.39,0.517-0.781,0.776-1.17c0.249,0.177,0.5,0.357,0.754,0.535
		C419.169,298.265,419.428,298.441,419.687,298.617z M416.843,302.269c-0.216,0.144-0.685-0.036-0.961-0.358
		s-0.358-0.785,0.198-1.206c0.194-0.297,0.391-0.595,0.588-0.896c0.44,0.147,0.752,0.347,0.952,0.572
		C418.222,301.052,417.816,301.944,416.843,302.269z M417.82,295.72c-0.415-0.292-0.83-0.571-1.244-0.837
		c0.321-0.481,0.639-0.955,0.952-1.422c0.417,0.262,0.835,0.538,1.252,0.824C418.461,294.759,418.141,295.237,417.82,295.72z
		 M417.1,296.801c-0.402,1.14-1.268,1.429-1.845,0.419c-0.288-0.433,0.289-0.866,0.596-1.249
		C416.268,296.233,416.684,296.51,417.1,296.801z M414.981,300.018c-0.199,0.305-0.397,0.607-0.591,0.905
		c-0.433-0.241-0.722-0.529-1.299-0.674c0.432-1.154,1.443-2.597,2.308-1.154C415.544,299.24,415.112,299.672,414.981,300.018z
		 M415.473,294.224c-0.362-0.322-1.227-0.322-1.227-0.755c0-1.154,1.154-1.443,2.175-0.659
		C416.11,293.273,415.794,293.744,415.473,294.224z M414.742,295.323c-0.104,0.66-0.516,0.99-0.956,1.042
		c-0.441,0.054-0.91-0.178-1.126-0.622c-0.144-0.151,0.433-0.561,0.647-1.097C413.818,294.863,414.299,295.09,414.742,295.323z
		 M413.151,297.725c-0.636,0.649-0.636,1.947-1.79,1.658c-0.289-0.144-0.577-0.432-0.866-0.432c0.433-0.577,0.721-1.299,1.181-1.861
		C412.184,297.284,412.676,297.498,413.151,297.725z M411.156,295.45c-0.517-0.105-0.95-0.25-1.527-0.394
		c0.433-1.01,1.443-1.298,2.406-0.891C411.743,294.59,411.45,295.019,411.156,295.45z M410.357,296.651
		c-0.439,1.002-1.449,2.012-2.603,1.435c0.433-0.577,0.721-1.154,1.117-1.771C409.373,296.4,409.869,296.513,410.357,296.651z
		 M408.62,299.384c-0.289,0.433-0.577,1.01-0.907,1.511c-0.475-0.114-0.949-0.197-1.421-0.248
		C406.456,299.672,407.61,298.951,408.62,299.384z M408.37,302.314c0.394,0.388,1.26,0.243,1.26,0.676
		c-0.144,1.154-1.01,1.298-2.048,0.581C407.849,303.143,408.112,302.724,408.37,302.314z M408.995,301.316
		c0.245-0.627,0.621-1.05,1.006-1.18c0.386-0.131,0.783,0.026,1.071,0.544c0.144,0.291-0.288,0.868-0.7,1.296
		C409.914,301.729,409.454,301.507,408.995,301.316z M410.839,303.624c1.243,0.521,1.387,1.242,0.377,2.252
		c-0.288-0.433-0.865-0.577-1.2-0.97C410.292,304.474,410.567,304.047,410.839,303.624z M411.474,302.642
		c0.319-1.094,1.618-1.815,2.05-0.661c0.144,0.433-0.432,1.01-0.865,1.587c0-0.144-0.144-0.144-0.164-0.223
		C412.152,303.097,411.812,302.865,411.474,302.642z M413.083,305.315c0.509,0.352,0.98,0.709,1.162,1.068
		c0.181,0.358,0.073,0.719-0.576,1.08c-0.433,0.144-1.01-0.433-1.424-0.842C412.523,306.187,412.802,305.752,413.083,305.315z
		 M413.76,304.265c0.099-0.349,0.292-0.596,0.493-0.831c0.201-0.235,0.41-0.458,0.539-0.76c1.617,0.46,1.329,1.47,0.422,2.59
		C414.725,304.927,414.239,304.598,413.76,304.265z M415.54,307.11c0.87,0.352,1.736,1.65,0.582,2.084
		c-0.432,0.144-1.154-0.289-1.403-0.814C414.981,307.969,415.252,307.549,415.54,307.11z M416.274,306
		c0.424-0.557,0.857-1.567,1.145-1.567c1.587,0.289,1.443,1.442,0.258,2.624C417.215,306.693,416.749,306.338,416.274,306z
		 M417.926,309.005c0.792,0.333,1.369,0.91,1.225,1.631c-0.144,1.587-1.442,0-2.002-0.437
		C417.399,309.812,417.658,309.414,417.926,309.005z M421.15,304.218c0.19-0.279,0.376-0.554,0.561-0.825
		c1.479,0.896,1.479,1.906,0.325,3.06C421.603,305.731,419.872,305.154,421.15,304.218z M422.404,302.376
		c0.209-0.54,0.498-0.828,0.786-1.262c0.866,0.721,2.308,1.731,0.721,2.453c-0.289,0.144-0.577-0.288-0.768-0.509
		C422.9,302.824,422.654,302.597,422.404,302.376z M424.11,300.285c-0.162-0.469,0.021-0.978,0.829-1.367
		c0.15-0.156,0.429,0.295,0.704,0.502c0.249,0.229,0.498,0.46,0.745,0.693c-0.457,0.425-0.601,1.435-1.034,1.29
		C424.777,301.187,424.272,300.754,424.11,300.285z M425.653,303.445c1.143,0.844,1.72,2.142,0.422,2.719
		c-0.433,0-1.01-0.866-1.33-1.398C425.049,304.323,425.352,303.883,425.653,303.445z M426.616,302.557
		c-0.108-0.505,0.108-1.082,0.757-1.587c0.144,0.289,0.433,0.577,0.673,0.735c0.241,0.231,0.486,0.461,0.733,0.69
		c-0.374,0.438-0.671,1.308-0.967,1.312C427.157,303.495,426.724,303.063,426.616,302.557z M427.374,306.657
		c0.172-0.248,0.344-0.496,0.519-0.746c0.491,0.686,1.645,1.407,0.653,2.154c-0.185,0.26-0.369,0.519-0.551,0.777
		c-0.31-0.402-0.718-0.747-0.921-1.092C426.869,307.405,426.869,307.06,427.374,306.657z M428.041,311.006
		c0.334,0.454,0.659,0.909,0.98,1.359c-0.313,0.425-0.618,0.838-0.916,1.244c-0.065-0.073-0.126-0.146-0.192-0.219
		c-0.287-0.329-0.572-0.662-0.852-1C427.384,311.932,427.711,311.471,428.041,311.006z M428.816,309.912
		c0.189-0.266,0.378-0.533,0.569-0.801c0.297-0.206,0.441-0.495,0.585-0.783c0.721,0.577,1.298,1.443,0.447,2.146
		c-0.201,0.272-0.401,0.544-0.601,0.815C429.49,310.828,429.159,310.368,428.816,309.912z M429.97,306.164
		c-0.144-0.289-0.289-0.577-0.632-0.7c-0.217-0.221-0.437-0.441-0.658-0.66c0.28-0.516,0.857-1.382,1.145-1.382
		C431.413,303.712,431.124,305.154,429.97,306.164z M432.134,305.587c1.154,0.865,0.866,2.019-0.216,2.928
		c-0.336-0.466-0.689-0.926-1.058-1.378C431.124,306.452,431.701,306.164,432.134,305.587z M433.271,308.87
		c0.202-0.251,0.406-0.502,0.611-0.754c1.136,1.077,1.136,2.231-0.162,3.097C433.288,310.492,432.278,309.482,433.271,308.87z
		 M434.154,305.875c-0.433-0.721-1.731-1.442-0.602-2.179c0.179-0.241,0.352-0.479,0.521-0.715
		C435.452,303.712,435.308,304.866,434.154,305.875z M435.446,306.173c0.15-0.297,0.294-0.586,0.583-0.73
		c0.721,1.01,0.865,2.597-0.289,3.318c0-0.289-0.288-0.577-0.42-0.933c-0.158-0.292-0.322-0.583-0.49-0.873
		C435.069,306.703,435.26,306.434,435.446,306.173z M436.03,303.134c-0.145,0.144-0.434-0.288-0.608-0.507
		c-0.207-0.231-0.424-0.459-0.647-0.682c0.387-0.541,0.676-0.974,0.965-1.551c0.505,0.505,0.939,0.973,1.068,1.422
		C436.938,302.265,436.757,302.698,436.03,303.134z M436.355,299.415c0.107-0.464,0.684-0.753,0.828-1.185
		c0.289,0.289,0.649,0.613,0.866,0.974c0.217,0.36,0.293,0.754,0.006,1.186c-0.432,0.577-0.871,0.147-1.057-0.25
		C436.787,299.896,436.573,299.655,436.355,299.415z M437.76,303.134c1.298,0.289,1.154,2.308,0,3.03
		c0-0.289-0.289-0.577-0.436-0.883c-0.17-0.292-0.348-0.581-0.532-0.868C437.183,304,437.471,303.134,437.76,303.134z
		 M438.453,301.941c0.173-0.393,0.461-1.114,0.75-0.97c1.01,0.289,1.443,1.875,0.433,2.741c-0.144-0.289-0.433-0.577-0.576-0.92
		C438.863,302.506,438.66,302.222,438.453,301.941z M440.757,296.484c-0.401-0.851-1.555-1.572-0.545-2.438
		c0.289,0.577,0.866,1.01,1.166,1.607C441.176,295.926,440.969,296.202,440.757,296.484z M439.895,297.621
		c-0.404,0.32-0.404,0.753-0.837,1.042c-0.216-0.505-0.685-0.974-0.902-1.389c-0.216-0.415-0.18-0.775,0.613-1.064
		c0.144-0.144,0.433,0.289,0.567,0.595C439.528,297.074,439.713,297.346,439.895,297.621z M438.729,293.845
		c-0.392-0.52-1.979-1.818-0.825-2.107c0.433-0.144,0.866,1.01,1.4,1.308C439.118,293.308,438.926,293.574,438.729,293.845z
		 M437.907,294.966c-0.291,0.379-0.58,0.667-0.868,1.1c-0.721-1.01-1.731-1.587-0.433-2.597c0.144,0.288,0.289,0.577,0.639,0.745
		C437.47,294.461,437.69,294.712,437.907,294.966z M436.278,297.176c-0.297,0.42-0.581,0.836-0.853,1.249
		c-0.694-0.484-1.271-1.061-1.127-1.782C434.586,295.201,435.885,296.499,436.278,297.176z M434.896,293.602
		c-0.371-0.138-0.702-0.351-0.939-0.638c-0.237-0.288-0.381-0.648-0.381-1.081c0.072-0.361,0.325-0.577,0.606-0.61
		c0.282-0.032,0.595,0.118,0.787,0.491c0.226,0.247,0.453,0.495,0.679,0.744C435.34,292.73,435.044,293.167,434.896,293.602z
		 M434.061,294.741c-0.34,0.46-0.629,0.892-0.917,1.325c-0.361-0.505-0.83-1.01-1.028-1.461c-0.198-0.451-0.126-0.848,0.596-1.137
		c0.146-0.146,0.432,0.289,0.667,0.531C433.605,294.248,433.832,294.496,434.061,294.741z M432.568,291.238
		c-0.434-0.366-1.011-0.798-1.299-1.52c-0.145-0.577,0.577-1.154,1.01-0.866c0.433,0.433,0.721,0.866,1.135,1.216
		C433.131,290.459,432.848,290.85,432.568,291.238z M431.819,292.28c-0.118,0.468-0.695,0.757-0.839,1.19
		c-1.01-0.433-1.731-1.875-0.577-2.597c0.144,0.288,0.433,0.577,0.737,0.708C431.381,291.82,431.607,292.054,431.819,292.28z
		 M430.082,289.041c-1.121-0.332-1.987-1.631-0.689-2.063c0.433-0.144,1.01,0.577,1.511,0.917
		C430.63,288.277,430.355,288.66,430.082,289.041z M429.367,290.039c-0.281,0.638-0.67,0.918-1.061,0.912
		c-0.391-0.007-0.788-0.295-1.076-0.8c-0.144-0.288,0.433-0.721,0.676-1.123C428.419,289.362,428.909,289.7,429.367,290.039z
		 M427.86,292.185c-0.487,0.563-0.775,1.717-1.352,1.717c-1.875-0.288-1.298-1.587,0-2.596c0-0.144,0.433,0.288,0.659,0.372
		C427.41,291.847,427.641,292.016,427.86,292.185z M425.985,289.527c-0.315-0.193-0.725-0.326-1.054-0.47
		c-0.875-0.059-0.587-1.069-0.298-1.357c0.721-0.577,1.442,0.288,2.177,0.648C426.533,288.743,426.258,289.136,425.985,289.527z
		 M424.427,290.088c0.291,0.149,0.575,0.297,0.852,0.446c-0.396,0.818-0.918,1.408-1.413,1.594c-0.496,0.186-0.964-0.03-1.253-0.824
		c-0.072-0.218,0.113-0.841,0.451-1.251C423.401,289.645,423.888,289.454,424.427,290.088z M423.219,293.483
		c-0.339,0.487-0.673,0.969-1.003,1.446c-1.334-0.451-1.911-1.604-0.757-2.181C421.892,292.604,422.613,293.181,423.219,293.483z
		 M419.872,290.007c-0.144-0.288,0.721-1.154,1.208-1.77c0.442,0.244,0.876,0.497,1.306,0.749
		C421.748,290.296,420.593,291.45,419.872,290.007z M420.374,291.925c-0.296,0.435-0.588,0.866-0.878,1.297
		c-0.421-0.278-0.842-0.549-1.263-0.805c0.28-0.413,0.56-0.828,0.843-1.246C419.506,291.415,419.938,291.666,420.374,291.925z
		 M419.297,288.57c-0.212,0.31-0.422,0.618-0.631,0.924c-0.381-0.353-1.246-0.208-1.246-0.785c0-1.443,1.443-2.308,2.308-1.01
		C419.872,287.843,419.439,288.276,419.297,288.57z M417.944,290.555c-0.194,0.597-0.576,0.964-0.983,1.056s-0.84-0.089-1.129-0.594
		c-0.144-0.288,0.434-0.726,0.643-1.139C416.967,290.083,417.456,290.308,417.944,290.555z M416.526,287.483
		c-0.196,0.289-0.389,0.575-0.582,0.859c-0.544-0.067-0.976-0.211-1.409-0.355c0.433-1.01,1.443-2.02,2.596-1.443
		C416.843,286.834,416.698,287.266,416.526,287.483z M415.221,289.416c-0.2,0.514-0.551,0.877-0.926,1.005
		c-0.374,0.127-0.771,0.019-1.059-0.414c-0.144-0.144,0.288-0.721,0.581-0.998C414.284,289.126,414.752,289.263,415.221,289.416z
		 M413.744,291.632c-0.254,0.558-0.525,0.943-0.895,1.125s-0.839,0.164-1.488-0.078c0.289-0.548,0.577-0.961,0.957-1.435
		C412.792,291.357,413.267,291.481,413.744,291.632z M411.704,289.864c-0.487-0.145-0.92-0.148-1.353-0.153
		c0.144-0.568,0.433-0.893,0.805-1.035c0.372-0.142,0.827-0.1,1.306,0.055C412.21,289.105,411.957,289.483,411.704,289.864z
		 M410.954,290.967c-0.17,1.204-1.469,1.349-2.334,1.204c0.289-0.577,0.866-0.866,0.956-1.385
		C410.029,290.83,410.489,290.889,410.954,290.967z M409.207,293.456c-0.442,0.879-1.308,1.6-2.318,1.456
		c0.432-0.433,0.432-1.154,1.004-1.609C408.331,293.334,408.77,293.385,409.207,293.456z M407.428,296.159
		c-0.395,0.628-0.972,2.503-1.838,1.493c-0.433-0.288,0.288-0.865,0.567-1.459C406.583,296.152,407.006,296.141,407.428,296.159z
		 M407.06,301.962c-0.23,0.588-0.489,0.988-0.835,1.17c-0.346,0.182-0.779,0.146-1.356-0.142c0.289-0.289,0.577-0.721,0.733-1.171
		C406.087,301.835,406.572,301.88,407.06,301.962z M404.989,307.772c0.458,0.123,1.179,0.268,1.179,0.556
		c-0.144,1.154-1.01,1.443-1.95,0.719C404.459,308.645,404.717,308.22,404.989,307.772z M405.785,306.472
		c0.527-1.173,1.104-2.183,2.403-1.173c-0.433,0.577-0.577,1.154-1.046,1.729C406.677,306.804,406.225,306.621,405.785,306.472z
		 M407.489,308.891c0.41,0.447,1.131,0.447,1.131,0.735c0,1.443-0.866,1.587-2.009,0.666
		C406.886,309.852,407.179,309.384,407.489,308.891z M408.264,307.663c0.356-0.634,0.789-1.499,1.078-1.499
		c1.443,0,1.154,1.442,0.177,2.352C409.089,308.206,408.671,307.921,408.264,307.663z M409.857,310.393
		c0.483,0.29,0.975,0.582,1.474,0.89c-0.288,0.455-0.567,0.896-0.84,1.33c-0.505-0.304-0.997-0.597-1.471-0.881
		C409.289,311.3,409.568,310.854,409.857,310.393z M410.563,309.269c0.221-0.509,0.654-0.941,0.942-1.518
		c0.433,0.432,1.303,0.43,1.316,0.996c0.01,0.425-0.559,0.995-0.806,1.454C411.506,309.883,411.02,309.576,410.563,309.269z
		 M412.447,311.98c0.646,0.243,1.223,0.675,1.223,0.964c0,1.298-1.154,1.154-2.051,0.346
		C411.89,312.862,412.163,312.428,412.447,311.98z M413.126,310.902c0.255-0.41,0.543-1.276,0.976-1.276
		c1.298,0,1.443,1.299,0.431,2.229C414.057,311.517,413.587,311.2,413.126,310.902z M414.874,313.701
		c0.815,0.686,2.113,1.696,0.671,2.273c-0.433,0.144-1.01-0.577-1.489-1.064C414.33,314.508,414.602,314.105,414.874,313.701z
		 M415.574,312.64c0.259-0.417,0.548-1.283,0.98-1.283c1.298,0.289,1.875,1.875,0.433,2.453c-0.144,0.144-0.433-0.289-0.674-0.544
		C416.068,313.048,415.821,312.84,415.574,312.64z M417.216,315.962c0.781,0.733,1.647,1.598,0.492,2.464
		c-0.289-0.577-0.866-1.01-1.233-1.384C416.719,316.688,416.967,316.327,417.216,315.962z M417.944,314.884
		c0.342-0.497,0.63-1.218,0.919-1.218c1.442,0.289,1.587,1.875,0.288,2.453c-0.144,0.144-0.433-0.289-0.587-0.533
		C418.357,315.345,418.15,315.111,417.944,314.884z M420.989,315.931c0.524,0.454,0.822,0.934,0.844,1.39
		c0.023,0.456-0.23,0.889-0.807,1.25c-0.288-0.577-0.721-0.721-1.001-1.234C420.34,316.877,420.662,316.408,420.989,315.931z
		 M421.722,314.855c0.259-0.379,0.523-0.764,0.793-1.157c0.38,0.431,0.753,0.863,1.12,1.293c-0.277,0.39-0.549,0.774-0.819,1.154
		C422.445,315.705,422.081,315.275,421.722,314.855z M422.325,311.646c-0.144-0.289-0.289-0.577-0.609-0.742
		c-0.222-0.24-0.445-0.479-0.67-0.717c0.413-0.56,0.701-1.426,1.134-1.426C423.623,309.194,423.623,310.636,422.325,311.646z
		 M422.927,307.423c0.408-0.538,0.696-1.404,1.129-1.404c1.298,0.433,1.587,2.02,0.144,2.741c-0.144,0.144-0.433-0.289-0.623-0.582
		C423.361,307.923,423.145,307.672,422.927,307.423z M425.592,309.235c0.173-0.251,0.347-0.502,0.52-0.754
		c0.187,0.244,0.373,0.487,0.558,0.727c0.186,0.24,0.372,0.478,0.556,0.716c-0.339,0.478-0.675,0.952-1.008,1.424
		c-0.379-0.459-0.762-0.91-1.144-1.362C425.247,309.737,425.419,309.487,425.592,309.235z M426.307,313.454
		c1.21,0.644,1.066,1.798,0.057,2.519c-0.144-0.577-0.866-0.577-1.053-1.109C425.64,314.399,425.971,313.929,426.307,313.454z
		 M426.533,317.912c1.129,0.658,0.984,1.668-0.026,2.389c-0.144-0.433-0.721-0.721-0.892-1.165
		C425.922,318.729,426.229,318.319,426.533,317.912z M428.313,320.179c0.792,0.844,0.215,1.565-0.506,1.853
		c-0.144,0.144-0.433-0.289-0.506-0.599C427.636,321.018,427.973,320.6,428.313,320.179z M428.424,317.98
		c-1.05-0.708-1.195-1.862-0.185-2.295c0.289-0.144,0.722,0.866,1.143,1.099C429.068,317.177,428.749,317.575,428.424,317.98z
		 M430.169,317.868c0.666,0.702,0.378,1.567-0.488,2c0-0.289-0.289-0.577-0.46-0.819
		C429.546,318.646,429.862,318.253,430.169,317.868z M430.108,315.872c-1.003-0.909-1.292-1.63-0.282-2.496
		c0.289,0.433,0.721,1.01,1.084,1.483C430.639,315.202,430.373,315.539,430.108,315.872z M431.676,315.977
		c0.746,0.717,0.602,1.295-0.119,1.872c-0.144-0.289-0.433-0.577-0.65-0.904C431.163,316.624,431.419,316.302,431.676,315.977z
		 M431.655,313.913c-0.387-0.681-1.685-1.691-0.449-2.338c0.206-0.28,0.413-0.56,0.621-0.841c0.189,0.261,0.374,0.523,0.556,0.784
		c0.182,0.262,0.36,0.523,0.534,0.786c-0.22,0.282-0.437,0.559-0.649,0.828C432.058,313.401,431.854,313.661,431.655,313.913z
		 M433.018,314.275c0.207-0.264,0.422-0.538,0.642-0.819c0.615,0.533,0.595,0.982,0.346,1.407c-0.249,0.425-0.718,0.822-1.007,1.255
		C432.567,315.396,432.278,314.819,433.018,314.275z M434.324,316.514c0.218-0.259,0.444-0.53,0.678-0.812
		c0.883,0.993,0.305,2.147-0.704,2.868c-0.144-0.361-0.361-0.721-0.43-1.068C433.798,317.155,433.875,316.822,434.324,316.514z
		 M435.191,313.432c-1.037-0.921-0.46-1.642,0.405-2.363c0.289,0.289,0.433,0.721,0.681,1.002
		C435.92,312.523,435.556,312.977,435.191,313.432z M436.459,313.904c0.183-0.229,0.365-0.458,0.547-0.687
		c1.042,1.026,0.465,1.891-0.4,2.757C436.317,315.252,435.452,314.531,436.459,313.904z M437.13,310.987
		c-0.478-0.32-0.537-0.805-0.386-1.281c0.151-0.477,0.513-0.946,0.879-1.238c-0.003,0.435,0.576,0.722,0.571,1.162
		C437.839,310.082,437.485,310.534,437.13,310.987z M438.934,310.76c0.495,0.443,0.706,0.881,0.668,1.316
		c-0.039,0.435-0.327,0.868-0.832,1.301c-0.289-0.433-0.577-0.866-0.888-1.271C438.239,311.652,438.59,311.203,438.934,310.76z
		 M439.05,308.548c-1.001-0.653-0.424-2.383,0.585-2.383c0.144,0,0.289,0.577,0.485,1.018
		C439.765,307.639,439.408,308.094,439.05,308.548z M440.766,308.421c0.745,0.772,0.745,2.07-0.121,2.647
		c-0.289-0.432-0.721-0.866-0.88-1.371C440.098,309.275,440.432,308.849,440.766,308.421z M440.987,306.035
		c-0.775-0.737-0.631-2.179,0.235-2.323c0.289,0,0.433,0.721,0.63,1.147C441.57,305.247,441.282,305.639,440.987,306.035z
		 M442.541,306.109c0.845,0.921,0.701,1.931-0.165,2.652c-0.144-0.577-0.433-1.01-0.722-1.478
		C441.958,306.889,442.253,306.495,442.541,306.109z M443.058,310.071c0.269-0.347,0.537-0.699,0.807-1.056
		c0.674,0.611,0.386,1.765-0.336,1.909C443.242,311.069,442.953,310.492,443.058,310.071z M444.161,306.423
		c-0.198-0.836-1.352-1.846-0.198-2.135c0.433,0,0.289,1.01,0.72,1.372C444.513,305.914,444.338,306.168,444.161,306.423z
		 M443.882,299.728c0.235,0.381,0.468,0.759,0.694,1.138c-0.18,0.248-0.469,0.537-0.613,0.825
		C443.53,300.971,443.242,300.394,443.882,299.728z M444.659,298.574c0.172-0.201,0.172-0.201,0.315-0.344
		c-0.138,0.573,1.155,0.72,0.349,1.451C445.102,299.312,444.88,298.943,444.659,298.574z M445.497,304.408
		c-0.38-0.84-1.245-1.562-0.235-2.283c0.289,0.432,0.577,0.866,0.757,1.429C445.849,303.837,445.676,304.122,445.497,304.408z
		 M445.877,294.284c-0.039-0.671-1.337-0.959-0.616-1.825c0.289,0.433,0.577,1.01,0.828,1.46
		C446.021,294.039,445.949,294.163,445.877,294.284z M445.163,295.473c-0.045,0.16-0.19,0.16-0.19,0.305
		c0.144-0.866-1.298-1.01-0.721-2.02c0.144,0.289,0.433,0.577,0.462,0.89C444.867,294.922,445.016,295.197,445.163,295.473z
		 M444.227,296.934c-0.092,0.138-0.187,0.28-0.281,0.42c-0.271-0.711-1.136-1-0.704-2.154
		C443.674,295.777,443.819,296.355,444.227,296.934z M443.242,293.037c-0.289-0.721-1.154-1.154-1.01-2.02
		c0.289,0.289,0.577,0.577,0.688,0.801c0.201,0.278,0.396,0.559,0.586,0.843C443.386,292.748,443.386,292.892,443.242,293.037z
		 M442.539,294.054c-0.163,0.136-0.163,0.425-0.307,0.569c0-1.01-1.587-0.577-0.866-2.164c0.289,0.144,0.433,0.433,0.594,0.763
		C442.16,293.497,442.352,293.774,442.539,294.054z M441.174,290.334c-0.24-0.759-1.539-0.904-1.106-1.913
		c0.289,0.721,1.154,0.721,1.366,1.525C441.349,290.073,441.262,290.202,441.174,290.334z M440.466,291.38
		c-0.109,0.213-0.253,0.358-0.397,0.646c-0.433-0.577-1.298-0.866-1.154-1.731c0-0.577,0.721-0.289,0.869,0.323
		C440.01,290.874,440.239,291.127,440.466,291.38z M438.941,287.779c-0.088-0.399-0.455-0.564-0.746-0.791
		c-0.291-0.227-0.507-0.515-0.291-1.165c0.289,0.216,0.541,0.469,0.76,0.733c0.219,0.264,0.405,0.539,0.563,0.801
		C439.133,287.495,439.038,287.636,438.941,287.779z M438.229,288.826c-0.297,0.156-0.435,0.442-0.425,0.724
		c-0.308-0.422-0.755-0.738-1.013-1.079c-0.257-0.34-0.33-0.701,0.103-1.206c0.288,0.289,0.578,0.577,0.691,0.799
		C437.801,288.317,438.015,288.571,438.229,288.826z M437.008,290.594c-0.182,0.258-0.367,0.521-0.557,0.789
		c-0.422-0.51-1.288-1.232-1.144-1.808C435.74,288.709,436.462,290.151,437.008,290.594z M435.596,287.122
		c-0.577-0.865-2.164-1.154-1.01-2.164c0.144,0.288,0.433,0.577,0.738,0.704c0.252,0.224,0.497,0.456,0.736,0.694
		C435.74,286.545,435.596,286.834,435.596,287.122z M434.779,288.17c-0.193,0.25-0.482,0.539-0.482,0.827
		c-0.577-0.433-1.01-1.01-1.587-1.443c0.288-0.145,0.433-0.433,0.577-0.721c0.288,0.144,0.577,0.288,0.75,0.648
		C434.292,287.704,434.538,287.934,434.779,288.17z M432.954,285.011c-0.676-0.053-0.964-0.774-1.541-0.918
		c0.433-1.154,1.443-0.289,2.067,0.167C433.31,284.502,433.136,284.751,432.954,285.011z M431.453,285.609
		c0.255,0.157,0.503,0.314,0.743,0.471c-0.206,0.32-0.35,0.464-0.495,0.753c-0.577-0.577-2.164-1.01-1.01-1.587
		C430.836,285.102,431.268,285.391,431.453,285.609z M430.269,283.432c-0.587-0.349-1.453-0.493-1.453-0.926
		c0-1.443,1.154,0,1.991,0.163C430.627,282.922,430.447,283.178,430.269,283.432z M429.521,284.49
		c-0.56,1.189-1.859,0.035-2.003-0.398c-0.144-0.721,0.577-0.433,1.17-0.071C428.967,284.179,429.246,284.336,429.521,284.49z
		 M428.3,286.218c-0.244,0.883-0.624,1.04-1.065,0.919c-0.582-0.16-1.304-0.304-1.304-0.737c-0.072-0.361,0.144-0.721,0.464-0.898
		c0.319-0.177,0.742-0.17,1.082,0.205C427.753,285.878,428.027,286.048,428.3,286.218z M426.249,283.516
		c-0.462-0.433-1.184-0.288-1.184-0.721c0-0.866,0.866-0.144,1.622,0.121C426.541,283.114,426.396,283.314,426.249,283.516z
		 M425.508,284.539c-0.256,0.355-0.515,0.715-0.775,1.081c-0.429-0.264-0.855-0.514-1.282-0.753
		c0.255-0.354,0.506-0.699,0.753-1.037C424.647,284.057,425.08,284.294,425.508,284.539z M423.996,286.661
		c-0.285,0.409-0.573,0.823-0.864,1.244c-0.519-0.205-1.096-0.494-1.096-0.782C422.036,285.968,423.19,285.824,423.996,286.661z
		 M420.738,283.66c0.288-0.288,0.433-0.721,0.729-1.025c0.532,0.188,1.055,0.398,1.565,0.627
		C422.613,284.525,421.748,284.093,420.738,283.66z M421.569,285.296c-0.398,1.249-1.552,1.538-2.274,0.384
		c-0.144-0.144,0.577-0.577,0.747-1.038C420.563,284.837,421.071,285.057,421.569,285.296z M419.503,283.156
		c-0.497-0.218-0.93-0.362-1.362-0.362c0.288-1.01,1.154-0.866,2.015-0.555C419.942,282.537,419.725,282.844,419.503,283.156z
		 M418.748,284.233c-0.463,1.014-1.473,1.591-2.05,0.725c-0.144-0.144,0.577-0.577,0.66-1.035
		C417.827,284.009,418.291,284.112,418.748,284.233z M416.76,282.575c-0.495-0.069-1.071-0.069-1.504-0.213
		c0.433-0.866,1.443-0.577,2.092-0.583C417.154,282.038,416.958,282.305,416.76,282.575z M415.93,283.723
		c-0.386,0.947-1.251,1.379-2.261,0.947c0.289-0.288,0.433-0.721,0.763-1.043C414.934,283.639,415.434,283.673,415.93,283.723z
		 M414.272,286.08c-0.303,0.594-0.673,1.11-1.071,1.364c-0.398,0.254-0.83,0.254-1.263-0.179c-0.289-0.144,0.577-0.721,0.852-1.316
		C413.282,285.979,413.776,286.022,414.272,286.08z M412.152,284.629c-0.395-0.009-0.788-0.006-1.174,0.012
		c0.216-0.308,0.432-0.613,0.649-0.914c0.408-0.046,0.816-0.076,1.222-0.09C412.616,283.964,412.384,284.295,412.152,284.629z
		 M411.263,285.925c-0.289,0.429-0.578,0.863-0.866,1.3c-0.379-0.025-0.754-0.036-1.123-0.033c0.253-0.395,0.509-0.787,0.766-1.174
		C410.448,285.969,410.857,285.939,411.263,285.925z M409.582,288.477c-0.097,0.665-0.818,1.53-1.684,0.953
		c0.145-0.288,0.433-0.577,0.548-0.921C408.817,288.485,409.195,288.474,409.582,288.477z M407.906,290.703
		c-0.007,0.026,0.137,0.026,0.137,0.026c-0.433,0.721-1.01,1.875-1.587,1.154c-0.288-0.144,0.289-0.721,0.59-1.146
		C407.328,290.716,407.613,290.703,407.906,290.703z M406.421,293.281c-0.542,0.766-0.83,1.92-1.84,1.92
		c0.289-0.577,0.433-1.298,0.884-1.809C405.781,293.338,406.101,293.299,406.421,293.281z M405.711,299.079
		c-0.698,0.449-0.409,1.892-1.996,1.603c0.289-0.433,0.577-1.01,0.844-1.491C404.937,299.134,405.32,299.095,405.711,299.079z
		 M402.994,298.23c0.433-0.433,0.288-1.01,0.723-1.435c0.279-0.108,0.557-0.201,0.837-0.283
		C403.86,297.076,404.148,298.374,402.994,298.23z M402.128,296.066c0.144-0.289,0.433-0.577,0.413-0.891
		c0.132-0.303,0.267-0.607,0.407-0.914c0.334-0.215,0.623-0.215,0.911-0.359C403.138,294.624,403.138,295.922,402.128,296.066z
		 M402.321,299.76c0.24-0.105,0.384-0.109,0.673-0.266c-0.216,0.229-0.289,0.6-0.428,0.916c-0.14,0.316-0.346,0.577-0.833,0.595
		C401.921,300.606,402.118,300.192,402.321,299.76z M401.39,298.732c-0.127-0.07-0.271,0.074-0.416,0.074
		c0.433-0.289,0.289-1.01,0.91-1.109C401.715,298.052,401.551,298.396,401.39,298.732z M401.047,302.48
		c0.216-0.067,0.216-0.067,0.36-0.067c-0.288,0.289-0.288,0.721-0.701,0.819C400.815,302.99,400.929,302.74,401.047,302.48z
		 M401.781,304.369c0.347-0.081,0.492-0.081,0.78-0.081c-0.433,0.721-0.577,1.731-1.522,1.491
		C401.269,305.337,401.517,304.865,401.781,304.369z M402.381,307.215c0.469,0.247,1.191-0.041,1.191,0.247
		c0,0.866-0.866,1.154-1.716,0.662C402.018,307.84,402.194,307.536,402.381,307.215z M403.536,310.192
		c0.397,0.182,0.812,0.383,1.244,0.604c-0.171,0.277-0.337,0.545-0.493,0.8c-0.443-0.231-0.852-0.428-1.225-0.592
		C403.213,310.744,403.371,310.474,403.536,310.192z M404.742,313.325c0.415,0.239,0.852,0.5,1.31,0.786
		c-0.163,0.269-0.317,0.527-0.463,0.771c-0.511-0.333-0.954-0.599-1.311-0.786C404.42,313.86,404.574,313.602,404.742,313.325z
		 M405.418,312.217c0.16-0.26,0.329-0.533,0.503-0.815c0.428,0.236,0.87,0.491,1.322,0.76c-0.178,0.289-0.35,0.569-0.516,0.84
		C406.273,312.718,405.836,312.457,405.418,312.217z M407.135,314.808c0.457,0.301,0.928,0.621,1.412,0.958
		c-0.17,0.288-0.335,0.568-0.492,0.839c-0.489-0.358-0.957-0.694-1.397-1C406.809,315.35,406.968,315.085,407.135,314.808z
		 M407.81,313.696c0.377-1.329,1.387-0.751,1.819-0.03c0.144,0.289-0.144,0.721-0.4,0.971
		C408.741,314.31,408.268,313.996,407.81,313.696z M409.612,316.506c0.739,0.477,1.605,1.198,0.595,1.631
		c-0.288,0.144-0.721-0.433-1.11-0.759C409.26,317.097,409.431,316.808,409.612,316.506z M410.318,315.356
		c0.322-0.248,0.466-0.68,0.611-0.969c0.865,0.433,1.731,1.01,0.649,1.838C411.155,315.924,410.734,315.634,410.318,315.356z
		 M411.837,318.144c0.534,0.426,1.399,0.859,1.399,1.291c-0.144,1.443-1.298,0-1.988-0.413
		C411.438,318.737,411.634,318.445,411.837,318.144z M412.62,316.998c0.184-0.303,0.473-0.591,0.617-0.88
		c0.865,0.577,2.019,1.298,0.865,2.019c-0.144,0.144-0.433-0.288-0.737-0.542C413.118,317.392,412.869,317.192,412.62,316.998z
		 M414.283,320.226c0.396,0.364,0.828,0.797,1.33,1.23c-0.181,0.265-0.356,0.521-0.522,0.763c-0.437-0.379-0.894-0.767-1.363-1.162
		C413.903,320.793,414.087,320.517,414.283,320.226z M415.055,319.096c0.345-0.238,0.489-0.67,0.634-0.959
		c0.289,0.721,1.154,0.721,1.298,1.443c0,0.289-0.288,0.577-0.577,0.721c-0.289,0-0.577-0.289-0.698-0.578
		C415.493,319.512,415.274,319.303,415.055,319.096z M416.563,322.351c0.365,0.351,0.725,0.708,1.083,1.069
		c-0.166,0.232-0.325,0.456-0.477,0.67c-0.337-0.319-0.706-0.658-1.101-1.013C416.225,322.845,416.391,322.603,416.563,322.351z
		 M417.302,321.272c0.179-0.261,0.364-0.53,0.556-0.808c0.36,0.374,0.721,0.754,1.08,1.139c-0.182,0.257-0.359,0.506-0.533,0.749
		C418.042,321.987,417.673,321.628,417.302,321.272z M418.631,319.35c0.232-0.347,0.52-0.636,0.665-0.925
		c0.433,0.721,1.443,1.443,0.417,2.089C419.348,320.123,418.987,319.734,418.631,319.35z M419.826,322.581
		c0.284,0.321,0.566,0.648,0.844,0.981c-0.172,0.226-0.336,0.443-0.496,0.655c-0.282-0.311-0.567-0.618-0.856-0.922
		C419.483,323.063,419.652,322.825,419.826,322.581z M420.602,321.489c0.185-0.26,0.373-0.524,0.566-0.795
		c0.288,0.347,0.576,0.701,0.863,1.061c-0.19,0.253-0.376,0.5-0.556,0.741C421.186,322.153,420.895,321.818,420.602,321.489z
		 M421.508,324.59c0.259,0.326,0.514,0.657,0.765,0.993c-0.155,0.191-0.304,0.374-0.447,0.55c-0.255-0.313-0.516-0.624-0.781-0.932
		C421.194,325.005,421.349,324.8,421.508,324.59z M423.272,312.598c0.172-0.249,0.345-0.5,0.519-0.752s0.35-0.506,0.527-0.762
		c0.386,0.445,0.763,0.894,1.133,1.346c-0.176,0.248-0.351,0.495-0.525,0.74c-0.174,0.246-0.347,0.49-0.518,0.732
		C424.037,313.465,423.659,313.03,423.272,312.598z M424.543,315.95c0.955,0.601,1.388,1.611,0.234,2.043
		c-0.433,0.144-0.577-0.577-1.068-0.87C423.984,316.735,424.264,316.342,424.543,315.95z M424.554,322.776
		c-1.075-0.744-0.643-1.754,0.223-2.475c0.289,0.433,0.433,0.866,0.801,1.211C425.22,321.954,424.877,322.378,424.554,322.776z
		 M424.862,325.51c-0.197,0.218-0.391,0.433-0.584,0.644c-0.124-0.179-0.249-0.355-0.375-0.532c0.062-0.076,0.12-0.147,0.183-0.225
		c0.119-0.146,0.244-0.301,0.368-0.453C424.59,325.134,424.726,325.318,424.862,325.51z M426.307,322.661
		c0.778,0.813,0.201,1.246-0.52,1.823c-0.144,0-0.289-0.289-0.452-0.625C425.643,323.48,425.967,323.081,426.307,322.661z
		 M427.378,324.618c0.717,0.588,0.284,1.309-0.437,1.598c-0.144-0.289-0.289-0.433-0.431-0.616
		C426.784,325.291,427.074,324.964,427.378,324.618z M428.46,326.609c0.039,0.068,0.077,0.136,0.116,0.204
		c-0.258,0.232-0.519,0.465-0.783,0.699c-0.032-0.049-0.064-0.098-0.097-0.147C427.928,327.138,428.184,326.884,428.46,326.609z
		 M428.372,323.479c0.155-0.581,0.876-0.581,1.02-1.158c0.577,0.866,0.144,1.443-0.585,2.075
		C428.662,324.087,428.517,323.781,428.372,323.479z M429.42,325.642c0.281-0.286,0.577-0.592,0.888-0.913
		c0.384,0.909-0.77,0.621-0.77,1.198C429.537,325.783,429.393,325.783,429.42,325.642z M430.957,326.392
		c0.038,0.1,0.072,0.195,0.107,0.291c-0.252,0.208-0.5,0.41-0.743,0.608c-0.039-0.071-0.078-0.14-0.118-0.211
		C430.458,326.849,430.709,326.62,430.957,326.392z M430.784,322.323c-0.67-0.867-0.237-1.589,0.484-2.166
		c0.289,0.289,0.433,0.721,0.47,1.156C431.418,321.653,431.099,321.99,430.784,322.323z M431.293,323.703
		c0.293-0.307,0.592-0.621,0.895-0.941c0.378,0.713-0.487,1.001-0.776,1.434C431.413,324.052,431.268,323.908,431.293,323.703z
		 M432.748,324.72c0.396,0.631-0.47,0.631-0.614,1.063c0-0.144-0.144-0.144-0.177-0.318
		C432.224,325.214,432.488,324.966,432.748,324.72z M432.631,320.363c-0.497-0.928-0.497-1.361,0.225-2.082
		c0.144,0.433,0.433,0.721,0.577,1.224C433.164,319.795,432.896,320.081,432.631,320.363z M433.923,320.918
		c0.664,0.681-0.057,1.114-0.634,1.402c0-0.144-0.144-0.433-0.168-0.546C433.386,321.493,433.654,321.207,433.923,320.918z
		 M433.752,323.763c0.267-0.257,0.529-0.51,0.787-0.762c0.48,0.763-0.241,0.907-0.674,1.195
		C433.865,324.052,433.721,323.908,433.752,323.763z M435.029,324.993c0.008,0.045,0.018,0.092,0.026,0.137
		c-0.247,0.193-0.487,0.38-0.721,0.561c-0.006-0.024-0.012-0.048-0.018-0.072C434.552,325.413,434.789,325.204,435.029,324.993z
		 M434.838,319.93c0.235-0.319,0.497-0.551,0.74-0.777c0.242-0.226,0.467-0.447,0.621-0.744c0.358,0.508,0.202,0.877-0.1,1.21
		c-0.302,0.332-0.751,0.631-1.001,1.014C435.015,320.403,434.926,320.166,434.838,319.93z M436.27,321.283
		c0.234-0.237,0.465-0.472,0.693-0.706c0.068,0.242,0.132,0.483,0.189,0.721c-0.465,0.443-0.93,0.88-1.393,1.304
		c-0.062-0.198-0.132-0.402-0.201-0.605C435.799,321.757,436.036,321.519,436.27,321.283z M437.429,322.806
		c0.016,0.124,0.028,0.246,0.04,0.369c-0.436,0.365-0.864,0.716-1.28,1.052c-0.017-0.074-0.035-0.151-0.053-0.227
		C436.566,323.61,436.998,323.212,437.429,322.806z M437.237,317.252c0.378-0.413,0.667-0.99,1.1-1.423
		c0.866,0.865-0.144,1.587-0.777,2.272C437.459,317.818,437.352,317.535,437.237,317.252z M439.144,318.269
		c0.347,1.022-0.374,1.455-0.951,2.032c-0.144-0.289-0.144-0.577-0.189-0.797C438.392,319.091,438.773,318.679,439.144,318.269z
		 M439.573,320.736c0.022,0.189,0.047,0.377,0.064,0.56c-0.344,0.308-0.685,0.61-1.021,0.903c-0.024-0.149-0.051-0.299-0.079-0.449
		C438.879,321.419,439.223,321.082,439.573,320.736z M440.501,313.377c0.433,0.577,0.577,1.154-0.166,1.586
		c-0.192,0.225-0.389,0.455-0.591,0.689C438.914,314.819,439.924,314.098,440.501,313.377z M440.807,316.38
		c0.196-0.227,0.388-0.451,0.576-0.671c0.561,0.986-0.305,1.563-0.882,2.285C440.212,317.416,440.212,316.839,440.807,316.38z
		 M441.331,318.907c0.2-0.216,0.4-0.433,0.597-0.651c0.448,0.891-0.417,1.468-1.139,1.901
		C440.501,319.58,441.222,319.291,441.331,318.907z M440.931,323.622c0.336-0.285,0.673-0.578,1.009-0.874
		c-0.02,0.107-0.047,0.208-0.071,0.313c-0.317,0.243-0.635,0.481-0.952,0.714C440.922,323.724,440.926,323.673,440.931,323.622z
		 M440.958,321.871c0.408-0.416,0.697-0.704,1.13-1.137c0,0,0,0.103,0.006,0.113C441.713,321.199,441.334,321.539,440.958,321.871z
		 M441.8,313.221c-0.361-0.355-0.397-0.712-0.271-1.053s0.416-0.666,0.707-0.957c0.142,0.29,0.429,0.579,0.454,0.915
		C442.406,312.481,442.111,312.845,441.8,313.221z M443.24,313.478c0.579,0.908-0.142,1.486-0.575,2.062
		c-0.144-0.288-0.144-0.721-0.323-0.971C442.655,314.195,442.954,313.831,443.24,313.478z M443.933,315.97
		c0.318,0.869,0.03,1.446-0.836,1.879c0-0.289,0-0.577-0.083-0.811C443.327,316.68,443.634,316.324,443.933,315.97z
		 M443.389,321.433c0.294-0.275,0.587-0.553,0.877-0.836c-0.014,0.184-0.03,0.365-0.054,0.54c-0.279,0.247-0.562,0.49-0.847,0.728
		C443.375,321.722,443.384,321.578,443.389,321.433z M443.578,319.291c0.237-0.245,0.474-0.49,0.707-0.74
		C444.26,318.993,443.859,319.107,443.578,319.291z M444.102,312.394c0.294-0.316,0.583-0.604,0.727-1.037
		c0.216,0.433,0.289,0.758,0.223,1.056c-0.065,0.299-0.269,0.572-0.604,0.901C444.341,313.009,444.224,312.702,444.102,312.394z
		 M445.645,313.864c0.193,0.667,0.193,1.389-0.528,1.821c-0.144-0.289-0.144-0.577-0.22-0.879
		C445.151,314.492,445.4,314.178,445.645,313.864z M446.14,316.462c0.131,0.521-0.445,0.666-0.734,1.098c0-0.144,0-0.144-0.01-0.235
		C445.647,317.039,445.896,316.752,446.14,316.462z M445.387,321.823c0.058-0.052,0.117-0.104,0.174-0.157
		c-0.066,0.135-0.141,0.261-0.217,0.387C445.36,321.978,445.372,321.9,445.387,321.823z M445.555,319.293
		c0.283-0.29,0.427-0.434,0.716-0.723c0.144,0.577-0.289,0.866-0.709,1.312C445.564,319.69,445.561,319.493,445.555,319.293z
		 M446.087,311.119c-0.249-0.627-0.53-0.921,0.05-1.5c-0.004,0.291,0.281,0.582,0.359,0.916
		C446.361,310.732,446.223,310.927,446.087,311.119z M446.704,305.01c0.144,0.288,0.144,0.577,0.33,0.923
		c-0.16,0.277-0.328,0.559-0.504,0.847C445.983,306.164,446.127,305.443,446.704,305.01z M446.962,312.102
		c0.174,0.553,0.319,0.986-0.114,1.419c-0.144-0.289-0.144-0.577-0.249-0.92C446.721,312.436,446.842,312.269,446.962,312.102z
		 M447.137,299.24c0.144,0.433,0.289,0.866,0.536,1.302c-0.018,0.037-0.037,0.074-0.056,0.11
		C447.569,300.105,446.56,299.961,447.137,299.24z M447.289,296.307c-0.051,0.098-0.105,0.197-0.158,0.297
		c0.295-0.682-1.003-0.393-0.282-1.403C446.848,295.633,446.992,296.066,447.289,296.307z M446.077,291.147
		c0.194,0.591,0.627,0.88,0.771,1.457c-0.288-0.433-0.577-0.866-0.866-1.318C446.014,291.239,446.045,291.193,446.077,291.147z
		 M444.182,288.203c0.358,0.649,1.223,1.083,1.079,1.948c-0.433-0.577-0.721-1.299-1.243-1.711
		C444.074,288.36,444.128,288.282,444.182,288.203z M444.488,291.212c-0.089,0.132-0.179,0.266-0.271,0.402
		c-0.109-0.886-1.408-0.742-0.975-2.04C443.674,290.151,444.251,290.44,444.488,291.212z M442.065,285.516
		c0.224,0.256,0.445,0.518,0.662,0.784c0.218,0.266,0.433,0.537,0.644,0.813c-0.06,0.086-0.12,0.171-0.184,0.261
		c-0.213-0.268-0.429-0.534-0.649-0.797s-0.443-0.524-0.67-0.781C441.936,285.699,442,285.608,442.065,285.516z M441.782,287.662
		c0.223,0.262,0.444,0.526,0.661,0.791c-0.21,0.111-0.21,0.255-0.355,0.399c-0.288-0.721-1.875-1.443-1.01-1.875
		C441.222,286.834,441.655,287.41,441.782,287.662z M439.822,283.182c0.679,0.333,0.823,1.055,1.4,1.343
		c-0.144,0.144-0.144,0.144-0.288,0.288c-0.433-0.577-1.01-0.866-1.294-1.377C439.702,283.349,439.762,283.265,439.822,283.182z
		 M439.604,285.141c0.219,0.238,0.435,0.48,0.648,0.724c-0.184,0.102-0.184,0.247-0.328,0.391c-0.144-0.721-1.443-0.577-1.01-1.875
		C439.058,284.67,439.347,284.958,439.604,285.141z M437.282,281.097c0.622,0.399,1.055,0.832,1.632,1.265
		c-0.866,0.144-1.154-0.866-1.765-1.082C437.193,281.218,437.239,281.155,437.282,281.097z M436.452,282.259
		c0.427,0.323,0.848,0.659,1.259,1.017c0.481,0.24,0.337,0.384,0.048,0.673C437.327,283.371,436.317,283.516,436.452,282.259z
		 M437.045,284.926c-0.094,0.138-0.189,0.276-0.288,0.419c-0.296-0.676-1.162-0.82-1.595-1.397
		C436.317,283.371,436.462,284.67,437.045,284.926z M434.656,279.445c0.507,0.176,1.084,0.608,1.517,1.041
		c-0.577-0.288-1.154-0.577-1.577-0.956C434.616,279.502,434.637,279.474,434.656,279.445z M433.864,280.567
		c0.578,0.207,1.443,0.64,1.443,0.929c0,1.01-1.01-0.577-1.664-0.614C433.716,280.778,433.791,280.672,433.864,280.567z
		 M433.505,278.84c-0.007,0.009-0.013,0.018-0.019,0.027c-0.167-0.094-0.334-0.188-0.501-0.278
		C433.157,278.67,433.331,278.755,433.505,278.84z M433.716,282.365c0.254,0.158,0.502,0.319,0.746,0.481
		c-0.308,0.814-1.462-0.195-1.606-0.628C432.567,281.784,433.432,282.217,433.716,282.365z M431.179,279.132
		c0.522,0.248,1.039,0.511,1.552,0.796c-0.065,0.093-0.132,0.187-0.198,0.28c-0.505-0.305-1.009-0.597-1.516-0.871
		C431.071,279.268,431.126,279.199,431.179,279.132z M431.011,280.81c0.266,0.145,0.53,0.29,0.792,0.437
		c-0.39,0.97-1.112-0.472-1.833-0.472C430.259,279.909,430.547,280.775,431.011,280.81z M428.643,278.093
		c0.442,0.153,0.88,0.32,1.314,0.499c-0.038,0.049-0.076,0.097-0.115,0.146c-0.42-0.202-0.842-0.39-1.266-0.567
		C428.599,278.145,428.622,278.119,428.643,278.093z M427.711,279.219c0.447,0.179,0.886,0.37,1.315,0.57
		c-0.08,0.104-0.16,0.209-0.241,0.316c-0.428-0.219-0.857-0.425-1.287-0.618C427.57,279.396,427.641,279.307,427.711,279.219z
		 M427.319,277.675c-0.001,0.001-0.003,0.003-0.004,0.005c-0.039-0.014-0.078-0.026-0.117-0.04
		C427.238,277.651,427.278,277.663,427.319,277.675z M428.005,281.135c-0.178,0.239-0.358,0.481-0.54,0.727
		c-0.439-0.229-0.878-0.44-1.317-0.641c0.184-0.241,0.365-0.476,0.543-0.706C427.139,280.71,427.576,280.917,428.005,281.135z
		 M424.737,278.253c0.582,0.146,1.152,0.313,1.707,0.5c-0.056,0.072-0.114,0.146-0.173,0.22c-0.548-0.213-1.097-0.406-1.647-0.575
		C424.662,278.349,424.7,278.301,424.737,278.253z M423.802,279.469c0.542,0.152,1.551,0.296,1.551,0.585
		c0,1.01-1.298,0.144-2.003,0.017C423.503,279.867,423.654,279.666,423.802,279.469z M423.334,278.034
		c-0.218-0.073-0.399-0.108-0.578-0.14C422.97,277.854,423.189,277.816,423.334,278.034z M424.179,281.71
		c-0.137,0.184-0.275,0.369-0.414,0.556c-0.575-0.049-1.008-0.626-1.585-0.626C422.469,280.486,423.479,281.64,424.179,281.71z
		 M422.216,277.776c0.004,0.007,0.009,0.011,0.013,0.017c-0.008-0.002-0.016-0.004-0.024-0.006
		C422.209,277.784,422.213,277.78,422.216,277.776z M421.268,278.873c0.479,0.17,0.768,0.17,1.201,0.17
		c-0.144,1.01-1.01,0.289-1.591,0.297C421.009,279.182,421.139,279.026,421.268,278.873z M420.037,280.38
		c0.422,0.086,0.84,0.186,1.252,0.299c-0.263,0.961-1.128,0.24-1.705,0.24C419.728,280.775,419.872,280.486,420.037,280.38z
		 M418.464,278.609c0.398,0.002,0.831,0.002,1.264,0.002c-0.144,0.721-1.01,0.288-1.533,0.294
		C418.285,278.805,418.375,278.707,418.464,278.609z M417.213,280.035c0.495,0.018,0.928,0.018,1.361,0.163
		c-0.289,0.721-1.154,0.433-1.767,0.329C416.943,280.36,417.079,280.196,417.213,280.035z M415.817,278.735
		c0.304,0.02,0.593,0.02,0.882-0.124c-0.289,0.433-0.721,0-0.961,0.203C415.764,278.787,415.79,278.761,415.817,278.735z
		 M414.514,280.108c0.31-0.054,0.742-0.054,1.031-0.054c-0.144,0.721-0.866,0.288-1.401,0.476
		C414.267,280.387,414.39,280.246,414.514,280.108z M412.999,281.915c0.4-0.055,0.802-0.097,1.203-0.128
		c-0.146,0.195-0.293,0.392-0.44,0.591c-0.385-0.003-0.763,0.001-1.138,0.017C412.748,282.233,412.873,282.073,412.999,281.915z
		 M411.83,280.586c0.25-0.066,0.5-0.125,0.749-0.179c-0.09,0.109-0.18,0.22-0.271,0.332c-0.248,0.04-0.495,0.087-0.742,0.137
		C411.655,280.78,411.741,280.681,411.83,280.586z M410.12,282.56c0.333-0.105,0.665-0.2,0.997-0.284
		c-0.068,0.091-0.135,0.181-0.201,0.272c-0.308,0.045-0.612,0.098-0.915,0.161C410.04,282.659,410.08,282.609,410.12,282.56z
		 M409.367,281.443c-0.009,0.012-0.019,0.024-0.03,0.036c-0.067,0.023-0.136,0.045-0.205,0.069
		C409.211,281.513,409.289,281.476,409.367,281.443z M408.745,284.352c0.366-0.119,0.734-0.222,1.1-0.31
		c-0.178,0.255-0.354,0.513-0.53,0.773c-0.353,0.055-0.701,0.122-1.047,0.201C408.424,284.793,408.584,284.572,408.745,284.352z
		 M407.15,286.678c0.386-0.133,0.774-0.247,1.161-0.343c-0.204,0.317-0.407,0.636-0.608,0.957c-0.355,0.043-0.704,0.1-1.047,0.171
		C406.819,287.2,406.982,286.939,407.15,286.678z M406.172,285.453c0.123-0.066,0.246-0.129,0.37-0.191
		c-0.077,0.116-0.153,0.232-0.229,0.348c-0.105,0.04-0.211,0.075-0.316,0.118C406.054,285.635,406.113,285.544,406.172,285.453z
		 M405.728,289.006c0.296-0.154,0.728-0.154,1.017-0.298c-0.144,0.721-0.721,1.154-1.467,1.065
		C405.424,289.519,405.575,289.264,405.728,289.006z M404.806,287.744c0.064-0.045,0.208-0.189,0.208-0.189
		c0,0.288,0,0.577-0.381,0.5C404.69,287.951,404.748,287.847,404.806,287.744z M404.413,291.313
		c0.312-0.151,0.745-0.151,1.034-0.296c-0.577,0.577-0.721,1.731-1.667,1.51C403.985,292.122,404.194,291.718,404.413,291.313z
		 M403.628,289.947c0.024-0.022,0.087-0.084,0.087-0.084c0,0.144-0.144,0.433-0.31,0.528
		C403.48,290.243,403.553,290.095,403.628,289.947z M362.818,343.671c-0.576-7.431-0.577-10.675-0.072-11.829
		c0.505-1.154,6.996-7.285,7.357-8.223s2.308-4.111,4.183-4.76c1.875-0.649,7.369-1.43,8.872-1.154
		c2.621,0.481,1.418,2.693,4.039-0.505c1.261-1.539,5.121-2.813,7.408-2.159l-10.265,17.951c-2.914,2.962-8.831-1.242-8.399-4.936
		c-0.972,1.806-1.295,12.084,2.763,14.854l-7.598,13.915C367.934,354.8,363.403,351.22,362.818,343.671z M356.726,383.241
		c-0.763-0.719-2.215-2.583-2.31-4.588c-0.031-0.653,1.629-2.869,2.47-2.312c0.44,0.733,0.97,1.632,1.551,2.61
		C359.374,383.016,358.221,383.292,356.726,383.241z M381.092,397.879c-1.017,0.105-3.342-0.063-7.238-0.785
		c-3.895-0.721-10.973-3.479-12.502-5.674c-3.366-4.833-3.258-6.275-3.732-7.338c1.808,0.121,1.995-1.534,2.054-3.063
		c1.749,2.891,3.974,5.787,5.272,7.119c2.741,2.813,9.305,5.337,11.829,6.059c2.525,0.721,4.773,1.022,5.35,2.176
		C382.443,397.008,381.787,397.534,381.092,397.879z M395.508,396.795c-0.479,0.169-0.973,0.391-1.482,0.598
		c-2.837,0.707-3.871,0.447-5.45-0.156c-2.732-1.23-6.987-3.097-11.548-4.302c-6.275-1.659-9.881-4.616-11.252-5.698
		c-0.784-0.619-2.709-3.685-4.587-6.738c-0.35-1.566-0.17-3.355-0.065-6.209c0.144-3.931-1.479-5.193-2.453-5.59
		s-0.886,0.149-0.613,0.289c3.09,1.574,2.055,5.554,1.731,6.852c-0.257,1.027-0.646,1.129-0.996,0.77
		c-0.476-0.76-0.9-1.419-1.24-1.914l0,0c-0.287-0.765-1.593-3.165-1.586-4.59c0.012-2.657,6.315-3.239,7.285-2.453
		c-0.404,0.548-0.822,1.675,0.284,3.731c1.171,2.176,4.143,5.721,5.583,7.1c1.987,1.903,6.367,7.507,8.655,8.751
		c4.111,2.236,9.364,2.48,11.565,2.5c10.387,0.096,15.027-0.529,15.075-0.24C404.816,390.403,399.64,394.81,395.508,396.795z
		 M382.894,370.839c0.04-1.491,3.474-4.448,3.943-4.52c0.857-0.132,5.434,0.481,7.213,1.635c1.06,0.688,0.631,2.264,0.653,3.558
		c0.015,0.876,0.339,1.768,0.261,2.02c-0.192,0.625-0.517,0.685-4.568,0.623h0.002c-2.659-0.046-4.517-0.459-4.517-0.459
		C383.555,373.099,382.834,373.099,382.894,370.839z M382.113,374.145c2.024,1.364,10.859,1.22,14.281,1.37
		c2.933,0.129,7.177,1.407,10.711,1.37c1.959-0.02,3.834-1.079,4.663-0.394c0.403,0.333,0.59,0.334,0.948-1.151
		c0.231-0.655,9.029-5.454,9.029-5.454c3.283-1.874,1.609,1.492,1.609,1.492l0.001-0.001c-0.411,0.97-0.861,1.539-1.155,2.324
		c1.302-1.204,3.521-5.812,3.842-6.154c1.331-1.421,2.437,1.753,0.363,5.326c-0.457,0.789-2.324,2.624-2.945,3.327
		s-0.767,1.506-0.952,2.176c-0.434,1.573-0.687,7.499-1.963,8.86c-0.322,0.343-8.127,6.107-9.04,4.327
		c-0.144-1.443,5.41-6.852,6.996-10.891c-0.222-0.081-2.633,3.606-4.781,5.148c-0.941,0.647-2.254,0.753-4.812,0.839
		c-4.292,0.144-13.704,0.757-17.635,0.721c-2.649-0.024-6.103-0.017-9.225-0.568c-1.053-0.298-0.896-0.601-1.077-1.356
		c-0.288-1.202-1.491-1.924-1.202-1.298c0.744,1.541,0.099,2.009-0.873,1.924c-0.389-0.157-0.743-0.332-1.05-0.529
		c-1.886-1.215-4.462-4.033-6.295-6.048c-0.84-1.689-0.947-8.408-4.043-10.608c-0.618-0.439-1.007-0.054-0.577,0.234
		c1.23,0.824,2.848,4.622,2.995,8.621l0,0c-0.16-0.161-0.294-0.289-0.398-0.374c-0.664-0.546-4.944-5.167-5.698-8.102
		c-0.337-1.31,3.936-4.871,6.958-4.619c4.367,0.364,5.791,1.377,7.266,2.792C379.11,368.568,378.795,371.909,382.113,374.145z
		 M424.093,334.118c0,0-6.383,9.755-12.781,19.266c-0.424,0.123-2.381,0.998-3.838,2.19c-0.684,0.56-9.309,0.255-14.194,0.911
		c-10.375,1.394-13.802,6.083-14.462,9.253c0,0-0.741-1.213-3.439-1.871c3.334-5.491,24.386-42.469,24.386-42.469
		s-2.278-5.856-2.466-8.913c6.126,17.047,19.831,21.327,32.469,19.818C427.47,333.284,424.093,334.118,424.093,334.118z
		 M426.217,329.898c-11.673-0.787-23.744-9.444-27.031-19.356c-4.182-12.61-0.148-20.482,3.986-25.054
		c-0.239,0.305-0.474,0.614-0.698,0.932l0.002,0.003c-0.004,0.003-0.008,0.007-0.011,0.01c-0.064,0.089-0.129,0.177-0.191,0.267
		c-0.525,0.763-0.987,1.544-1.394,2.34l0.005,0.005c-0.005,0.005-0.01,0.01-0.015,0.015c-0.359,0.706-0.673,1.424-0.944,2.15
		l0.079,0.069c-0.059,0.064-0.116,0.13-0.174,0.195c-0.252,0.709-0.463,1.424-0.635,2.148l0.081,0.054
		c-0.045,0.057-0.088,0.117-0.132,0.175c-0.693,3.078-0.676,6.263-0.083,9.384c0.043,0.241,0.025,0.102,0.071,0.367
		c0.1,0.485,0.214,0.97,0.341,1.451c0,0,0.06,0.283,0.172,0.622c0.134,0.462,0.279,0.922,0.436,1.379
		c0.104,0.324,0.351,0.961,0.351,0.961c0.15,0.388,0.308,0.774,0.474,1.156c0.307,0.698,0.69,1.517,0.774,1.647
		c0.222,0.436,0.453,0.867,0.695,1.293c0.173,0.283,0.463,0.773,0.794,1.325c0.776,1.222,1.637,2.391,2.57,3.494
		c0,0,1.457,1.602,3.206,3.268c0.327,0.286,0.659,0.564,0.997,0.835c0.927,0.736,2.79,1.938,4.092,2.734
		c9.531,5.819,21.63,4.472,24.597,3.23c5.82-2.435,8.016-5.167,8.725-5.884C442.262,327.963,434.202,330.436,426.217,329.898z
		 M400.534,300.521c-0.145,0.308-0.286,0.609-0.42,0.9c-0.015,0.005-0.03,0.009-0.046,0.013c0.095-0.262,0.199-0.542,0.307-0.831
		C400.427,300.573,400.481,300.549,400.534,300.521z M447.267,315.308c-0.011-0.062-0.021-0.123-0.034-0.186
		c0.192-0.158,0.192-0.303,0.336-0.447C447.714,314.964,447.425,315.108,447.267,315.308z M447.569,317.705
		c0-0.289,0-0.577,0.124-0.81c0.002,0.223-0.001,0.442-0.01,0.654C447.714,317.56,447.569,317.705,447.569,317.705z
		 M447.399,309.137c-0.262-0.521-0.406-1.242,0.171-1.675c0.144,0.289,0.144,0.577,0.294,0.89
		C447.713,308.615,447.558,308.876,447.399,309.137z M447.858,304.577c0-0.433-0.721-0.577-0.327-1.065
		c0.119,0.29,0.234,0.579,0.344,0.867C447.858,304.433,447.858,304.577,447.858,304.577z M448.163,311.581
		c-0.077-0.285-0.163-0.574-0.25-0.864c0.145-0.224,0.286-0.449,0.426-0.675c0.078,0.306,0.149,0.608,0.214,0.908
		C448.427,311.162,448.295,311.371,448.163,311.581z M448.57,313.304c0.106-0.155,0.207-0.313,0.31-0.47
		c0.008,0.063,0.013,0.125,0.021,0.187c-0.096,0.151-0.196,0.3-0.296,0.45C448.595,313.417,448.582,313.359,448.57,313.304z
		 M449.008,315.719c-0.026,0.04-0.051,0.081-0.077,0.12c-0.012-0.158-0.026-0.318-0.043-0.479c0.045-0.061,0.088-0.122,0.133-0.183
		C449.019,315.36,449.017,315.541,449.008,315.719z M449.285,301.105c-0.07-0.165-0.138-0.329-0.209-0.495
		c0.014-0.03,0.028-0.06,0.043-0.09c0.065,0.171,0.129,0.343,0.192,0.512C449.303,301.057,449.294,301.081,449.285,301.105z"/>
</g>
<g enable-background="new    ">
	<path fill="#FFFFFF" d="M103.316,460.864c0,6.059-2.645,9.875-7.932,11.451l9.613,13.343h-7.88l-8.772-12.345h-8.142v12.345h-6.199
		V448.94h13.658c5.603,0,9.613,0.945,12.029,2.837C102.108,453.667,103.316,456.697,103.316,460.864z M95.069,466.065
		c1.261-1.085,1.891-2.827,1.891-5.227c0-2.398-0.648-4.045-1.944-4.938c-1.296-0.893-3.607-1.339-6.934-1.339h-7.879v13.133h7.722
		C91.426,467.693,93.808,467.151,95.069,466.065z"/>
	<path fill="#FFFFFF" d="M121.438,477.306l-3.677,8.353h-6.619l16.179-36.719h6.619l16.179,36.719h-6.619l-3.677-8.353H121.438z
		 M137.303,471.58l-6.671-15.129l-6.671,15.129H137.303z"/>
	<path fill="#FFFFFF" d="M170.187,454.613v31.045h-6.199v-31.045h-11.136v-5.674h28.471v5.674H170.187z"/>
	<path fill="#FFFFFF" d="M227.18,480.037c2.136,0,3.975-0.358,5.516-1.076s3.152-1.865,4.833-3.441l3.992,4.098
		c-3.887,4.308-8.606,6.461-14.156,6.461c-5.551,0-10.157-1.786-13.815-5.357c-3.66-3.572-5.49-8.09-5.49-13.553
		c0-5.464,1.865-10.016,5.595-13.658c3.729-3.642,8.439-5.463,14.13-5.463c5.69,0,10.444,2.101,14.262,6.304l-3.939,4.307
		c-1.752-1.681-3.406-2.854-4.964-3.52c-1.56-0.664-3.389-0.998-5.49-0.998c-3.712,0-6.828,1.2-9.35,3.599
		c-2.521,2.399-3.782,5.463-3.782,9.193c0,3.729,1.251,6.847,3.756,9.35C220.78,478.786,223.748,480.037,227.18,480.037z"/>
	<path fill="#FFFFFF" d="M258.278,477.306l-3.678,8.353h-6.618l16.179-36.719h6.619l16.18,36.719h-6.619l-3.677-8.353H258.278z
		 M274.142,471.58l-6.672-15.129l-6.671,15.129H274.142z"/>
	<path fill="#FFFFFF" d="M310.703,485.658h-6.934l-14.761-36.719h6.934l11.294,27.421l11.294-27.421h6.935L310.703,485.658z"/>
	<path fill="#FFFFFF" d="M360.501,448.94v5.831h-19.594v9.718h17.598v5.516h-17.598v9.823h20.224v5.831h-26.423V448.94H360.501z"/>
</g>
<g enable-background="new    ">
	<path fill="#FFFFFF" d="M24.73,512.333c2.557,2.137,3.835,5.429,3.835,9.876c0,4.448-1.305,7.705-3.913,9.771
		c-2.609,2.067-6.611,3.1-12.004,3.1H6.134v10.769h-6.198v-36.719h12.607C18.112,509.129,22.173,510.197,24.73,512.333z
		 M20.344,527.488c1.242-1.313,1.864-3.238,1.864-5.778c0-2.539-0.788-4.334-2.363-5.384c-1.576-1.051-4.045-1.576-7.407-1.576
		H6.134v14.708h7.197C16.763,529.458,19.1,528.802,20.344,527.488z"/>
	<path fill="#FFFFFF" d="M69.17,521.054c0,6.059-2.645,9.875-7.933,11.451l9.613,13.343h-7.88l-8.772-12.345h-8.142v12.345h-6.199
		v-36.719h13.658c5.603,0,9.613,0.945,12.029,2.837C67.962,513.857,69.17,516.887,69.17,521.054z M60.923,526.254
		c1.261-1.085,1.891-2.827,1.891-5.227c0-2.398-0.648-4.045-1.943-4.938c-1.296-0.893-3.607-1.339-6.935-1.339h-7.879v13.133h7.722
		C57.281,527.883,59.663,527.34,60.923,526.254z"/>
	<path fill="#FFFFFF" d="M112.823,540.778c-3.712,3.625-8.3,5.438-13.763,5.438s-10.052-1.813-13.763-5.438
		c-3.713-3.624-5.568-8.142-5.568-13.553c0-5.41,1.855-9.928,5.568-13.553c3.711-3.625,8.3-5.437,13.763-5.437
		s10.051,1.812,13.763,5.437s5.568,8.143,5.568,13.553C118.391,532.637,116.535,537.154,112.823,540.778z M108.279,517.797
		c-2.504-2.592-5.577-3.888-9.219-3.888c-3.643,0-6.716,1.296-9.219,3.888c-2.505,2.592-3.756,5.734-3.756,9.429
		c0,3.695,1.251,6.838,3.756,9.43c2.503,2.592,5.576,3.887,9.219,3.887c3.642,0,6.715-1.295,9.219-3.887s3.756-5.734,3.756-9.43
		C112.035,523.531,110.783,520.389,108.279,517.797z"/>
	<path fill="#FFFFFF" d="M157.999,513.936c3.537,3.204,5.306,7.661,5.306,13.369s-1.717,10.226-5.148,13.553
		c-3.433,3.327-8.686,4.99-15.759,4.99h-12.188v-36.719h12.607C149.401,509.129,154.46,510.732,157.999,513.936z M157.053,527.462
		c0-8.404-4.815-12.607-14.446-12.607h-6.198v25.162h6.881c4.447,0,7.854-1.059,10.218-3.178
		C155.871,534.721,157.053,531.595,157.053,527.462z"/>
	<path fill="#FFFFFF" d="M183.528,537.443c1.681,1.962,3.957,2.942,6.829,2.942c2.871,0,5.147-0.98,6.829-2.942
		c1.681-1.96,2.521-4.622,2.521-7.984v-20.329h6.198v20.592c0,5.288-1.453,9.359-4.36,12.214s-6.637,4.281-11.188,4.281
		c-4.553,0-8.282-1.427-11.189-4.281c-2.906-2.854-4.359-6.926-4.359-12.214v-20.592h6.198v20.329
		C181.006,532.82,181.847,535.483,183.528,537.443z"/>
	<path fill="#FFFFFF" d="M236.373,540.227c2.136,0,3.975-0.358,5.516-1.076s3.152-1.865,4.833-3.441l3.992,4.098
		c-3.887,4.308-8.606,6.461-14.156,6.461c-5.552,0-10.157-1.786-13.815-5.357c-3.66-3.572-5.49-8.09-5.49-13.553
		c0-5.464,1.865-10.016,5.595-13.658c3.729-3.642,8.439-5.463,14.131-5.463c5.69,0,10.444,2.101,14.262,6.304l-3.939,4.307
		c-1.752-1.681-3.406-2.854-4.964-3.52c-1.56-0.664-3.389-0.998-5.49-0.998c-3.712,0-6.828,1.2-9.35,3.599
		c-2.521,2.399-3.782,5.463-3.782,9.193c0,3.729,1.251,6.847,3.756,9.35C229.972,538.976,232.94,540.227,236.373,540.227z"/>
	<path fill="#FFFFFF" d="M276.138,514.803v31.045h-6.199v-31.045h-11.136v-5.674h28.471v5.674H276.138z"/>
	<path fill="#FFFFFF" d="M297.99,509.129h6.198v36.719h-6.198V509.129z"/>
	<path fill="#FFFFFF" d="M349.102,540.778c-3.713,3.625-8.3,5.438-13.764,5.438c-5.463,0-10.051-1.813-13.763-5.438
		c-3.712-3.624-5.568-8.142-5.568-13.553c0-5.41,1.856-9.928,5.568-13.553s8.3-5.437,13.763-5.437
		c5.464,0,10.051,1.812,13.764,5.437c3.711,3.625,5.567,8.143,5.567,13.553C354.669,532.637,352.813,537.154,349.102,540.778z
		 M344.558,517.797c-2.505-2.592-5.577-3.888-9.22-3.888s-6.715,1.296-9.219,3.888s-3.756,5.734-3.756,9.429
		c0,3.695,1.252,6.838,3.756,9.43s5.576,3.887,9.219,3.887s6.715-1.295,9.22-3.887c2.503-2.592,3.756-5.734,3.756-9.43
		C348.314,523.531,347.061,520.389,344.558,517.797z"/>
	<path fill="#FFFFFF" d="M394.014,509.129h6.199v36.719h-6.724l-20.803-26.79v26.79h-6.198v-36.719h6.198l21.327,27.421V509.129z"/>
	<path fill="#FFFFFF" d="M425.506,513.962c-1.804,0-3.283,0.367-4.438,1.104c-1.155,0.735-1.733,1.847-1.733,3.335
		c0,1.489,0.578,2.627,1.733,3.415s3.615,1.637,7.381,2.548c3.764,0.91,6.601,2.188,8.51,3.834c1.908,1.646,2.862,4.071,2.862,7.275
		c0,3.205-1.208,5.805-3.624,7.801c-2.417,1.996-5.587,2.994-9.508,2.994c-5.744,0-10.84-1.978-15.287-5.936l3.888-4.675
		c3.712,3.222,7.564,4.832,11.557,4.832c1.996,0,3.58-0.428,4.754-1.287c1.173-0.857,1.76-1.996,1.76-3.414s-0.552-2.521-1.654-3.31
		c-1.104-0.788-3.004-1.505-5.7-2.153c-2.697-0.647-4.745-1.243-6.146-1.786c-1.401-0.543-2.645-1.252-3.729-2.128
		c-2.172-1.646-3.257-4.167-3.257-7.564c0-3.396,1.234-6.015,3.703-7.853c2.469-1.839,5.523-2.758,9.166-2.758
		c2.346,0,4.676,0.386,6.987,1.155c2.311,0.771,4.307,1.856,5.988,3.257l-3.31,4.676c-1.086-0.98-2.557-1.786-4.413-2.417
		C429.139,514.277,427.31,513.962,425.506,513.962z"/>
</g>
</svg>
