<?xml version="1.0" encoding="utf-8"?>
<!-- Generator: Adobe Illustrator 17.0.0, SVG Export Plug-In . SVG Version: 6.00 Build 0)  -->
<!DOCTYPE svg PUBLIC "-//W3C//DTD SVG 1.1//EN" "http://www.w3.org/Graphics/SVG/1.1/DTD/svg11.dtd">
<svg version="1.1" xmlns="http://www.w3.org/2000/svg" xmlns:xlink="http://www.w3.org/1999/xlink" x="0px" y="0px" width="3000px"
	 height="3000px" viewBox="0 0 3000 3000" enable-background="new 0 0 3000 3000" xml:space="preserve">
<g id="black" display="none">
	<rect display="inline" width="3000" height="3000"/>
</g>
<g id="bolexman">
	<g>
		<path fill="#FFFFFF" d="M1334.444,850.373c-2.465-124.428,23.223-199.021,87.516-225.403
			c-16.062,22.522-52.672,57.696-59.435,162.823c-6.602,102.438,49.231,237.664,165.523,271.94c0,0-0.445-5.277,28.208,4.273
			c0,0-37.051-14.984-68.608-37.729c-12.724-9.17-113.021-79.162-109.342-232.987c3.925-164.62,120.419-221.629,136.22-228.848
			c-13.523,6.721-130.365,79.965-129.288,230.483c1.082,151.344,89.953,212.535,105.462,223.146c0,0-80.669-67.85-83.376-194.887
			c-0.237-11.155,3.972-22.956,10.151-30c13.932-15.875,42.689-27.633,45.15,1.334c2.55,30.216,21.506,126.063,64.904,163.493
			c0,0-44.879-55.708-45.416-155.334c-1.025-190.648,125.427-257.341,125.427-257.341s-35.419,2.983-91.927,14.361
			C1288.606,605.409,1324.783,824.872,1334.444,850.373z"/>
		<path fill="#FFFFFF" d="M493.054,1904.395c13.872,1.423-28.595-33.388-31.932-37.594c-1.644-2.077,10.024-17.111,93.508-114.469
			c0,0-112.224,108.833-105.782,116.152c6.441,7.319,36.298,27.612,23.665,25.28c-14.143-2.615-107.67-14.907-107.67-14.907
			c-4.198,10.92,196.497,740.68,337.514,991.598c5.445,1.925,12.699,7.222,18.171,9.085
			c-104.485-204.683-225.713-573.922-343.498-988.63C377.03,1890.911,490.475,1904.132,493.054,1904.395z"/>
		<path fill="#FFFFFF" d="M116.877,2043.235c0,0-8.041,226.952,80.154,428.924c22.58,51.709,33.685,74.886,36.065,107.831
			c4.143,3.425,32.023,28.56,36.204,31.94c-2.016-37.657-11.744-85.779-43.777-143.635
			C139.355,2312.667,124.581,2060.388,116.877,2043.235z"/>
		<path fill="#FFFFFF" d="M1483.866,1807.297c-16.602-18.667-101.002-135.76-101.002-135.76s56.645,88.161,86.724,141.319
			c6.26,11.061-127.804,83.373-127.804,83.373c26.963,1.038,235.631-73.952,235.631-73.952s-89.114,240.002-175.481,440.303
			c-76.182,176.675-285.339,603.371-288.659,655.463c26.884-57.909,264.532-551.838,301.792-648.207
			c29.312-75.826,182.875-467.726,182.875-467.726l-207.355,75.549C1390.587,1877.661,1500.458,1825.964,1483.866,1807.297z"/>
		<path fill="#FFFFFF" d="M1303.84,1188.258c11.214-2.851,32.03-39.981,47.332-93.844c0,0-15.508,1.432-15.714-5.708
			c-0.107-3.68-4.705-4.144-10.381-1.832c3.151-4.554,5.433-7.979,6.304-9.394c3.971-6.426,5.512-31.824,6.003-34.275
			c0,0-1.398-3.074-7.528-5.503c-3.38-1.348-8.25-2.889-8.25-2.889c-36.413,60.285-85.09,98.057-85.09,98.057
			s9.802,11.016,13.468,11.631c3.548,0.589,14.816,0.023,28.54-5.538c-6.921,5.534-19.741,12.862-30.008,14.092
			c-5.784,0.693-18.84-10.315-20.666-13.172c0,0-54.371,39.404-119.659,50.213c0,0,114.66,0.161,168.518-0.762
			c-0.158,7.808-4.101,211.874-5.312,230.69c-1.231,19.173-6.278,22.898-7.511,24.529c-1.226,1.63-3.339,16.364,7.107,11.374
			c15.839-7.574,28.565-49.375,28.156-94.665c-0.245-27.506,2.708-166.362,2.855-172.749
			C1302.917,1188.433,1303.547,1188.339,1303.84,1188.258z"/>
		<path fill="#FFFFFF" d="M957.792,464.369c1.307,2.638,3.113,5.629,3.957,5.213c4.685-2.319,3.376-3.422,4.154-4.977
			c0.886-1.77,4.995-3.1,7.132-2.443c2.136,0.663,4.024-5.505,0.725-5.834c-3.283-0.334-2.05-3.499-8.133-4.203
			c-6.989-0.809-6.954,3.431-9.889,5.626C951.077,461.206,956.464,461.734,957.792,464.369z"/>
		<path fill="#FFFFFF" d="M1242.946,515.326c0,0,0-39.788-1.523-43.641c-1.511-3.86-108.035-9.074-108.035-9.074
			c0,10.636,97.613,54.857,100.983,56.076C1237.745,519.915,1242.946,515.326,1242.946,515.326z"/>
		<path fill="#FFFFFF" d="M928.045,992.71c-0.309,1.222-4.539,165.373-3.062,168.619c7.962,17.446,67.942,23.262,67.942,23.262
			c-46-11.93-55.115-24.184-55.994-26.933c-1.467-4.47,1.829-166.164,1.829-166.164C938.761,990.506,928.045,992.71,928.045,992.71z
			"/>
		<path fill="#FFFFFF" d="M908.074,998.277c-1.526,0.312-5.506,177.287-2.967,183.862c4.588,11.934,78.025,5.984,78.025,5.984
			c-48.21-8.192-62.518-17.383-62.433-22.912c0.103-5.202,3.683-170.355,3.683-170.355S909.613,997.972,908.074,998.277z"/>
		<path fill="#FFFFFF" d="M1378.306,495.431c4.282-0.812,21.003-12.645,22.644-10.403c1.633,2.245,7.347,6.529,8.357,13.874
			c1.026,7.346,6.435-15.32-6.922-27.274c-1.623-1.452-22.244,14.217-28.159,19.112
			C1372.177,492.432,1374.023,496.251,1378.306,495.431z"/>
		<path fill="#FFFFFF" d="M1368.516,476.868c-1.152,1.292,0,6.68,2.603,6.529c5.486-0.325,26.448-13.49,26.978-16.933
			c0.279-1.837-1.836-6.762-3.667-6.732C1391.138,459.786,1373.611,471.155,1368.516,476.868z"/>
		<path fill="#FFFFFF" d="M1386.677,447.693c-3.681,1.224-22.406,11.628-25.381,16.119c-1.643,2.459,0.694,6.325,4.563,5.095
			c3.885-1.221,25.548-13.256,25.526-14.888C1391.353,452.383,1390.344,446.468,1386.677,447.693z"/>
		<path fill="#FFFFFF" d="M1349.138,445.04c3.871-0.61,19.582-11.832,22.234-12.849c2.651-1.02,6.469-3.536,5.267-6.155
			c-1.188-2.62-5.052-5.679-8.119-3.439c-3.068,2.248-18.374,12.854-22.246,17.142
			C1345.274,440.841,1345.267,445.652,1349.138,445.04z"/>
		<path fill="#FFFFFF" d="M1368.516,416.073c-0.417-1.839-3.746-6.52-5.928-5.716c-3.455,1.29-23.043,14.006-23.25,18.36
			c-0.171,3.754,4.491,3.883,6.94,2.045C1348.724,428.925,1368.911,417.909,1368.516,416.073z"/>
		<path fill="#FFFFFF" d="M1958.037,1004.489c-0.384,0.358-0.755,0.721-1.147,1.077
			C1956.89,1005.566,1957.317,1005.183,1958.037,1004.489z"/>
		<path fill="#FFFFFF" d="M2029.135,846.436c-15.33,97.378-66.828,150.161-75.049,158.053
			c58.777-54.332,80.338-124.861,83.619-175.19c4.501-69.093-13.469-114.45-13.469-114.45
			C2031.889,746.062,2035.246,807.573,2029.135,846.436z"/>
		<path fill="#FFFFFF" d="M2064.726,831.749c-9.41,96.738-55.396,164.943-88.75,191.261c0,0,85.147-48.09,95.848-193.405
			c10.029-136.206-62.306-214.493-62.306-214.493S2076.349,712.097,2064.726,831.749z"/>
		<path fill="#FFFFFF" d="M1559.059,808.186c10.412,214.824,167.091,275.931,226.455,271.647c0,0-166.026-17.969-197.544-206.674
			c-1.668-9.981-8.218-53.416,13.819-91.083c15.47-26.464,62.534-107.246,57.408-78.087
			c-34.769,197.819,73.066,287.196,73.066,287.196s-65.352-74.556-60.59-209.111c4.248-119.998,22.348-141.997,66.761-205.549
			c-137.719,313.429,102.365,542.645,102.365,542.645S1700.301,953.63,1721.71,731.375c0,0,3.645-25.443,5.335-33.053
			c2.165-9.644-0.345,25.655,4.551,27.032c3.321,0.933,7.826,8.982,13.181,10.815c4.002,1.369,8.573-37.148,8.079-27.622
			c-18.863,363.415,212.517,528.486,355.479,505.261c193.269-31.395,280.091-272.201,265.079-451.833
			c-21.886-262.299-177.271-424.872-346.725-413.427c-131.602,8.887-207.281,82.22-250.817,163.648
			C1667.243,517.806,1549.4,608.836,1559.059,808.186z M1778.179,620.257c2.774,3.661,6.046,7.653,7.636,8.294
			c3.055,1.224,8.89,10.402,9.492,8.566c0.613-1.829,0.309-15.301-1.837-18.055c-2.141-2.753-8.571-19.584-4.89-20.807
			c3.666-1.225,5.133,10.706,7.005,14.688c1.861,3.979,6.447,18.059,9.513,19.284c3.067,1.217-2.446,3.539-3.066,5.134
			c-0.601,1.593,0,12.61,5.51,14.449c5.512,1.834,6.438-6.123,10.719,6.121c4.282,12.237,12.238,34.274,16.519,36.718
			c4.297,2.448-3.666-28.153-6.112-39.778c-2.45-11.635-13.161-54.342-15.614-56.706c-1.857-1.78-14.574-12.909-23.437-17.677
			c42.037-126.663,128.08-215.573,236.214-224.231c177.915-14.242,323.396,172.331,339.5,406.025
			c14.838,215.61-94.534,397.013-228.624,436.514c65.521-22.726,163.71-90.349,209.303-272.423
			c27.801-111.021,8.011-203.753,8.011-203.753s4.142,108.158-17.249,197.73c-19.094,79.969-87.268,254.848-246.26,282.534
			c-12.412,2.161-23.374,2.808-32.408,2.728c-79.257-8.584-154.132-61.671-208.801-141.86c0,0,6.818,5.354,66.776,8.63
			c71.446,3.913,192.449-78.754,197.892-261.952c4.486-150.968-98.78-241.033-110.611-253.688
			c-0.517-0.703,102.14,126.276,90.206,264.298c-8.906,103.107-69.325,249.389-215.88,231.604c0,0,160.398-1.887,178.357-234.866
			c6.687-86.901-35.775-156.348-44.799-170.943c7.523,12.457,38.683,66.143,37.03,168.084
			c-0.81,50.593-26.403,214.017-188.434,235.837c0,0-18.507-0.476-28.377-15.534c3.062-2.849,15.244-2.665,27.095-2.075
			c17.233,0.861,65.051-9.322,100.541-63.586c35.503-54.268,54.092-99.56,52.88-176.676c-1.23-77.12-34.68-177.597-133.44-228.602
			c-98.742-51.005,10.202,16.432,6.125,16.023c-4.068-0.411-23.449,9.79-19.668,11.834c3.767,2.039,25.78,21.213,28.243,26.925
			c2.45,5.715,86.593,68.636,77.264,203.995c-7.488,108.543-67.058,181.986-147.82,196.455c-0.693-1.315-1.353-2.676-2.035-4.006
			c15.034-0.911,131.556-26.43,146.034-188.964c4.261-48.071-9.791-158.923-100.508-213.293c-4-2.405-9.485-5.178-8.124-0.778
			c0.715,2.326-6.963,4.227-4.298,8.736c3.575,6.003,17.892,15.04,21.219,20.512c3.263,5.388,20.403,15.035,23.766,20.189
			c7.77,11.868,53.544,77.113,45.271,154.231c0,0-3.188-39.951-14.048-76.197c-9.916-33.125-30.864-62.419-32.126-64.269
			c-5.515-7.948-1.853,22.649-5.208,18.672c-3.372-3.981-11.025-21.423-9.497-13.463c1.535,7.956,1.535,20.5,3.683,22.029
			c2.149,1.532,2.149,4.591,0.302,4.286c-1.829-0.305-2.45,0.305-2.755,5.507c-0.308,5.21-0.91,5.21-3.059,3.981
			c-2.145-1.224-6.734-2.446-8.871,1.835c-2.139,4.281-7.038-7.342-7.653-6.425c-0.612,0.916-6.423,6.122-10.701-0.616
			c-4.292-6.731-7.035-3.362-6.435,0.31c0.602,3.672-15.3-12.55-14.087-10.713c1.23,1.834,9.193,22.646,7.365,23.567
			c-1.839,0.917-10.417,1.629-13.172,7.853c-2.754,6.221-19.889,9.891-21.727,4.386c-1.827-5.508,3.057-15.912,3.675-13.467
			c0.613,2.448,3.979,10.407,8.261,7.649c4.28-2.753,12.547-6.422,12.843-9.182c0.32-2.753-1.205-24.48-16.518-29.679
			c-15.296-5.206-19.572-11.02-11.322-8.569c8.269,2.446,11.934,0.61,10.714-2.45c-1.23-3.057-5.202-13.157-8.571-10.403
			c-3.358,2.752-5.191-3.673-5.515-7.347c-0.291-3.672-3.352-0.308-4.589-3.06c-1.213-2.756-0.289-7.349-3.968-10.709
			c-3.681-3.372-6.467-11.938-9.359-10.407c-2.887,1.531-3.843,11.017,0,14.383c3.847,3.368-4.727-2.142-5.636-0.307
			c-0.926,1.837-2.762,11.635,3.973,17.749c6.739,6.119,7.649,9.18,2.753,5.509c-4.898-3.673-10.751-3.979-7.661,0.61
			c3.074,4.593,7.366,12.243,10.418,13.158c3.066,0.924,11.315,7.655,12.55,13.163c1.228,5.503,7.342,10.713,5.203,12.85
			c-2.15,2.143-5.203,3.672-5.203,5.507c0,1.839-6.117,3.677-8.562-0.609c-2.462-4.283-6.487-9.958-8.228-9.657
			c-7.164,1.234-9.388,1.728-11.185,11.592c-0.347,1.902-2.218,47.944-1.292,53.761c0.923,5.811,6.43,7.956,6.126,12.546
			c-0.313,4.589-2.452,7.958,2.139,9.489c4.585,1.53,13.357-2.145,15.793,4.591c2.452,6.732,6.437,9.174,22.034,10.707
			c7.189,0.704,26.381-4.6,45.012-15.561c0.013,14.679-0.164,39.316-1.853,40.042c-2.147,0.917-3.372-1.835-6.437-3.364
			c-3.054-1.53-14.036-7.524-14.686-2.146c-0.326,2.762,2.89,10.529-1.526,11.634c-17.14,4.282-48.104-6.849-63.68-22.426
			c-4.908-4.898,2.606,36.195,3.24,38.031c0.596,1.837,57.065-10.095,74.203-12.548c17.136-2.447,53.256-11.319,55.085-14.995
			c1.835-3.672,0.925-8.569,3.681-8.871c2.755-0.307,7.038-9.794,6.727-6.737c-0.309,3.064-0.921,29.992-2.449,30.912
			c-1.523,0.917-5.51,10.715-0.308,17.445c5.193,6.732,15.908,12.236,14.69,15.915c-1.214,3.671-0.618,8.56-3.969,5.198
			c-3.377-3.366-6.439-3.67-7.653-1.835c-1.231,1.835-10.719,0.913-10.409-5.206c0.288-6.116,2.448-17.137-4.591-14.379
			c-7.035,2.754-77.113,33.359-114.152,36.418c-2.316,0.191-10.399,7.953,4.903,7.04c15.297-0.919,85.679-27.853,86.603-25.708
			c0.926,2.143-0.333,7.814,7.34,7.956c16.317,0.306-10.184,9.466-16.927,11.322c-6.195,1.709-66.378,20.667-82.378,25.922
			c-12.135-40.078-20.045-82.992-22.694-127.725C1758.881,736.785,1764.581,675.665,1778.179,620.257z M1875.181,832.97
			c-3.025,2.019-1.081-29.622-0.63-44.272c15.729-12.611,28.289-29.751,28.484-51.202c0.031-6.429-8.577-9.182-7.965-13.465
			c0.618-4.288,0.302-23.257-1.224-24.174c0,0,3.677-6.737,5.816,1.835c2.14,8.566,1.528,14.686,10.41,20.194
			c8.866,5.509,9.791,4.085,11.934,10.613c2.14,6.525,10.713,36.822,9.176,39.882c-1.524,3.062-8.884,12.246-13.459,24.482
			c-4.593,12.237-22.653,30.296-28.471,34.888c-5.805,4.587,3.68-7.348,3.985-13.467
			C1893.536,812.162,1878.847,830.527,1875.181,832.97z"/>
		<path fill="#FFFFFF" d="M1062.397,1188.286c56.468,6.575,109.797-45.946,113.836-113.252c3.37-56.261-31.123-116.494-78.95-127.76
			c-95.49-22.492-140.871,50.697-145.052,108.174c-11.022,151.36,113.676,135.372,113.676,135.372
			c-34.532-0.92-97.248-15.516-103.001-108.37c-0.52-8.609,0.949-37.408,8.909-57.297
			C971.815,1025.152,936.01,1173.568,1062.397,1188.286z M988.466,1061.433c4.46-51.888,41.729-90.366,86.607-87.832
			c44.871,2.529,78.85,47.061,75.882,99.451c-2.943,52.398-41.944,91.423-86.821,88.894
			C1019.262,1159.411,983.971,1113.714,988.466,1061.433z"/>
		<path fill="#FFFFFF" d="M941.206,1295.981c1.874,1.453,9.486-9.384,9.282-12.034c-0.211-2.659-9.984-5.513-10.203-4.286
			C940.086,1280.883,936.212,1292.1,941.206,1295.981z"/>
		<path fill="#FFFFFF" d="M931.723,1274.559c-3.884-1.017-14.703-2.857-15.303,1.632c-0.6,4.487,5.919,24.481,16.931,21.014
			C935.718,1296.453,935.591,1275.578,931.723,1274.559z"/>
		<path fill="#FFFFFF" d="M1004.756,1251.501c0.615-30.291-19.177-51.306-50.179-50.767c-29.905,0.518-46.615,21.074-46.615,21.074
			l-16.43,0.931c0,0-13.212,12.859-13.87,41.21c-0.644,27.338,19.137,44.537,28.97,49.575c15.912,8.16,32.335,6.015,32.335,6.015
			c-53.549-6.424-54.979-51.302-55.19-55.591c-0.205-4.283,3.883-1.634,5.713-1.224c1.837,0.407,5.923-3.877,6.941-5.92
			c1.021-2.037,3.863-1.624,3.863-7.661c0-6.032,11.644-43.953,55.913-43.953c44.267,0,44.871,48.968,44.472,43.143
			c-0.409-5.823-9.688-37.12-45.497-37.736c-42.259-0.717-53.654,33.155-55.481,47.944c-0.234,1.835-4.494-0.709-4.899,9.491
			c-0.415,10.202,10.196,49.979,59.981,47.325c49.766-2.647,46.105-62.224,46.295-63.446L1004.756,1251.501z M988.645,1251.912
			c-1.642-0.201-5.1-0.818-5.51,1.222c-0.412,2.047,2.649,4.901,4.487,4.901c1.827,0-1.027,12.647,0,14.073
			c1.023,1.434-10.205,0.818-10.41-1.017c-0.208-1.836,0.819-7.959-1.016-8.776c-1.839-0.814-14.085-7.544-12.238-10.604
			c1.838-3.064,0.197-5.509,4.075-4.284c3.875,1.22,10.821-3.673,8.164-4.696c-2.65-1.018-9.802-5.304-9.176-7.547
			c0.604-2.245,2.038-10.197-2.25-7.547c-4.286,2.651-6.116,11.017-9.781,12.443c-3.682,1.432-17.563,10.406-18.164,13.466
			c-0.612,3.06-6.742,14.693-1.234,19.999c5.512,5.304,15.104,6.727,20.603,4.28c5.524-2.449,9.184-7.953,10.2-5.303
			c1.026,2.649-0.194,7.548,3.469,9.789c3.684,2.244-7.135,3.593-6.724,5.432c0.41,1.836,9.073,8.841-4.332,9.867
			c-13.417,1.017-8.91,7.34-13.185,4.893c-4.289-2.448-10.031-1.117-12.376-0.552c-3.572,0.855-14.527-7.198-20.039-21.27
			c-6.016-15.372-3.617-34.244,9.02-48.658c12.101-13.773,26.631-14.836,36.268-13.156c14.074,2.444,27.14,12.748,30.149,24.173
			C988.645,1243.038,990.27,1252.117,988.645,1251.912z"/>
		<path fill="#FFFFFF" d="M1280.589,56.197c-1.128,27.283-142.91,91.349-157.329,97.796c-19.724-4.697-97.305-18.424-99.124-16.399
			c-3.461,3.875-0.412,21.214-0.412,21.214s30.135,5.094,65.51,10.227c-1.754,1.291-2.317,1.533-3.541,2.623
			c-12.979-1.935-52.365-7.754-55.429-7.754c-1.847,0-2.659,7.148,1.417,8.371c3.389,1.016,37.777,6.381,50.799,8.182
			c-0.485,4.474-1.051,9.973-1.729,12.626c-1.017,4.08-7.537,11.731-7.964,18.055c-0.409,6.324-3.051,28.153,12.344,39.071
			c14.761,10.454,15.203,25.91,25.614,31.012c10.399,5.102,20.298,11.93,26.615,12.542c6.332,0.617,24.289-6.017,23.269-7.85
			c-2.529-4.551-7.591-22.866-6.597-24.405c7.847-12.205,16.387-22.217,13.888-39.831c-2.634-18.478-9.441-32.571-35.661-40.631
			c-3.305-1.013-8.039-12.493-7.855-19.437c18.765-7.703,156.536-65.309,166.168-99.093c1.231-4.286,1.649,19.179,1.649,19.179
			s-1.85,8.568,0,10.4c1.826,1.839-2.453,4.898-7.965,3.675c-5.51-1.223-14.085,1.223,0,10.405
			c14.075,9.176,18.366,12.241,17.75,17.748c-0.613,5.506,7.349,11.02,4.898,12.852c-2.446,1.839-9.808,2.448-4.282,7.344
			c5.512,4.897,9.184,4.284,9.793,9.181c0.602,4.898,6.114,7.346,0,7.346c-6.126,0-5.511,2.448-3.059,7.345
			c2.45,4.898,6.088,14.486,2.853,21.216c-1.025,2.127,18.242-17.98,14.895-26.725c-20.404-53.247-32.644-116.9-38.562-119.347
			c-8.604-3.565-52.214-21.932-200.744,6.425C1087.796,49.562,1282.017,21.712,1280.589,56.197z M1125.34,261.02
			c-23.883,0.016-23.883-25.497-23.883-25.497c0-8.367,6.54,2.549,8.167,7.342c3.859,11.335,13.061,10.811,14.687,11.424
			C1125.941,254.907,1129.655,261.02,1125.34,261.02z"/>
		<path fill="#FFFFFF" d="M1000.887,120.133c0.906,4.282,1.228,10.403,4.894,12.547c3.668,2.139-1.542,46.365-1.841,51.838
			c-0.299,5.47,8.249-10.025,9.17-13.733c0.912-3.708,0.326-30.03,2.464-31.559c2.141-1.528,0.301-9.178,2.755-9.794
			c2.435-0.61,12.842-0.305,8.871-5.506c-3.976-5.203-7.036-22.889-21.126-22.751c-10.777,0.102-195.43,5.953-195.43,5.953
			l184.111,7.8C994.755,114.927,999.964,115.846,1000.887,120.133z"/>
		<path fill="#FFFFFF" d="M647.357,226.276c7.597,0.604,5.609-7.163,6.5-24.317c0.097-1.859,1.978-3.783,4.672-5.751
			c16.837,0.187,61.132,0.78,60.133,1.775c-1.225,1.22-7.278,14.072-6.971,16.219c0.308,2.139,8.459-1.351,13.163-10.096
			c15.297-28.463,51.062-59.856,80.751-62.002c29.688-2.139,62.968,4.625,78.07,56.489c0.937,3.228-18.966,10.1-18.966,15.608
			c0,5.505,39.167,11.933,48.035,14.379c5.513,1.528,22.34-22.337,34.286-25.094c8.206-1.888-41.019-2.446-41.322-5.201
			c-0.31-2.755-19.559-68.58-80.171-68.853c-49.272-0.22-83.514,32.513-99.93,55.581c-0.648,0.91-28.527,0.774-43.73-0.122
			c13.413-4.874,31.033-10.227,37.773-12.616c14.69-5.197,25.092-14.076,26.625-16.831c1.531-2.758-0.917-7.038-4.285-5.815
			c-3.371,1.227-75.893,30.912-85.995,35.195c-10.095,4.281-15.614,8.259-15.602,27.84
			C640.397,221.555,639.396,225.643,647.357,226.276z"/>
		<path fill="#FFFFFF" d="M987.877,228.655c4.434,2.058,5.663-5.426,4.434-7.382c-1.228-1.949-8.408-7.376-16.216-7.376
			c-18.361,0-23.563,14.758-23.563,14.758c5.202-4.814,10.493-1.98,18.209-5.426C979.302,219.402,983.439,226.596,987.877,228.655z"
			/>
		<path fill="#FFFFFF" d="M1279.056,436.367c-0.609,3.984,0.302,34.891,0.302,34.891s-3.053,0.611-2.452,4.587
			c0.625,3.982-2.137,25.328,2.749,28.421c4.911,3.1,4.51,6.466,3.018,7.999c-1.473,1.531-2.395,4.898-3.618,3.977
			c-1.223-0.916-20.513-12.851-29.687-3.977c-3.894,3.764-7.96,8.569-0.601,16.221c7.338,7.642,26.31,28.152,29.065,28.455
			c2.747,0.307,8.574-3.979,6.734,1.534c-1.737,5.208-2.098,46.112,13.916,62.011c-3.923,2.813-7.776,5.703-11.579,8.654
			c-23.656,18.36-36.309,16.449-36.309,16.449c-8.98,2.041-118.298,30.236-125.67,172.593
			c-4.432,85.399,41.812,144.961,81.481,174.51c-56.471-54.75-19.063-71.69-4.769-78.213c11.381-5.213,37.23-4.021,47.131-2.551
			c2.486,6.859,5.132,13.37,7.903,19.584h-20.314c-2.137,0-0.356,6.875,3.318,7.027c2.68,0.111,14.257,0.149,20.328,0.159
			c2.089,4.348,4.24,8.523,6.456,12.551h-20.453c-2.309,0,0.604,6.888,3.203,6.888h21.154c2.023,3.439,4.097,6.748,6.187,9.941
			h-20.108c-2.482,0,0.883,7.018,4.251,7.018c2.532,0,14.781,0.099,20.74,0.147c2.477,3.485,4.987,6.795,7.525,9.974h-20.452
			c-2.161,0,1.986,7.346,5.499,7.346h21.07c2.191,2.494,4.364,4.898,6.572,7.188h-20.505c-2.905,0,4.409,6.351,8.085,6.351h18.768
			c3.161,3.028,6.313,5.848,9.462,8.491h-18.975c-1.99,0,4.448,4.438,9.947,4.438h14.492c35.566,27.824,67.22,32.538,67.22,32.538
			c-117.506-49.778-147.339-163.454-147.706-235.02c-0.435-84.26,28.559-132.609,28.559-132.609
			c9.383-18.359,14.172-2.379,11.892,2.909c-8.482,19.743-26.139,50.952-25.356,129.7c1.34,134.7,90.311,190.478,90.311,190.478
			s-77.707-67.085-75.571-189.667c1.42-81.535,17.845-106.251,31.67-126.013c-7.957,21.837-12.229,34.359-15.333,72.141
			c-10.915,132.868,48.313,184.756,48.315,184.756c0,0-46.839-59.767-29.992-190.581
			c19.481-151.266,152.637-186.504,152.637-186.504s-53.856,9.251-89.757,15.783c-26.617,4.836-45.426,16.046-64.038,28.489
			c-14.143-17.306-11.855-27.501-9.875-31.047c2.035-3.674-0.409-9.79-2.054-10.199c-1.624-0.409-10.071-7.749,0.825-14.694
			c10.89-6.935,9.375,16.731,9.793,24.078c0.41,7.344,9.898,5.712,13.572,1.22c3.677-4.485-8.875-18.089,5.191-19.582
			c23.053-2.452,47.331-36.721,53.866-43.249c6.522-6.535,11.01-8.982,9.779-13.062c-1.202-4.076,6.124-9.793,0-8.155
			c-6.112,1.631-13.455,2.039-13.047,5.706c0.406,3.673-19.168,36.318-15.086,16.326c4.077-19.993-2.229-23.488-2.229-23.488
			c-0.488-19.764-20.381-30.938-20.381-30.938c-1.807,26.325-15.199,63.384-15.199,63.384c12.044-9.314,17.165-24.364,18.103-31.402
			c0.934-7.039,2.148,3.063,2.148,9.488c0,6.426,5.803,5.51,6.422,3.669c0.614-1.831,7.665-8.564,7.665-8.564
			c-2.152,40.091-42.248,31.585-42.248,31.585c7.04-14.076,18.061-70.143,18.061-70.143s-19.895-6.224-34.789,15.195
			c-4.92,7.085-5.954,19.169-5.954,19.169s-2.905-44.335-3.388-47.422c-0.897-5.778-1.401-14.539,2.269-18.119
			c2.445-2.384,9.359-12.573,14.933-15.65c16.83-9.266,28.906-23.416,37.169-20.971c8.258,2.444,11.458,2.997,13.947,4.897
			c4.01,3.083,8.868,1.998,11.915,2.918c3.074,0.921,8.274,7.654,9.193,10.097c0.906,2.448-0.414,10.508,2.344,14.487
			c0.663,0.955,1.259,2.129,1.832,3.379c-6.155,3.676-24.48,14.714-25.506,16.409c-1.214,2.041-1.832,6.327,3.883,5.715
			c4.405-0.474,18.596-9.295,25.352-13.881c0.629,1.111,1.309,2.075,2.081,2.761c0,0,4.958,1.118,4.997-1.122
			c0.241-11.209-1.728-30.6-16.827-41.214c-12.271-8.625-9.602-1.47-28.251-11.931c-6.855-3.845-13.369-0.308-27.434,6.731
			C1304.766,404.851,1280.581,426.269,1279.056,436.367z M1260.784,678.634c-5.579,12.825-12.877,31.311-18.785,53.655
			c-6.472,10.698-28.48,6.743-37.105,5.508c-28.56-4.079-30.904-13.058-26.823-27.741c4.088-14.686,16.148-31.891,34.102-40.054
			C1230.13,661.845,1264.878,669.253,1260.784,678.634z"/>
		<path fill="#FFFFFF" d="M943.474,851.567c-0.781,2.747-1.797,12.785-1.384,21.354c0.395,8.569-3.683,26.933,36.719,29.781
			c35.199,2.492,81.362,5.427,112.201,13.472c37.536,9.793,64.213,49.557,80.797,72.217c32.236,44.07,39.567,69.365,55.487,62.839
			c9.814-4.029,8.318-18.046,0.881-29.182c-6.677-10.012-9.868-13.254-26.186-24.272c-17.227-11.626-94.831-75.248-85.27-191.367
			c8.162-99.145,68.134-142.399,116.698-164.428c6.179-2.805,12.242-20.813,13.869-28.563c1.643-7.752-5.303-15.502-12.242-15.915
			c-6.931-0.406-19.585,16.325-51.406,53.854c-31.821,37.541-55.913,50.605-73.047,56.721c-17.139,6.121-90.574,2.042-110.164,2.451
			c-19.583,0.41-40.393,0.813-45.289,5.712c-8.31,8.302-7.757,30.601-7.347,40.802c0.41,10.201,8.571,9.385,10.612,9.385
			c2.039,0-1.624,76.301-2.04,78.341C955.959,846.81,945.753,843.543,943.474,851.567z M973.904,809.266
			c0.829-10.607,5.302-18.335,14.289-18.357c10.611-0.026,13.853,10.188,13.869,16.315c0.024,10.612-3.683,20.404-13.869,20.404
			C977.99,827.628,973.095,819.877,973.904,809.266z"/>
		<path fill="#FFFFFF" d="M911.522,793.293c0,0-1.628,5.305-3.662,22.036c-2.049,16.726-7.008,171.88-3.319,175.911
			c3.714,4.024,5.753-6.176,6.981-9.441c1.224-3.26,6.935-175.449,6.116-179.533C916.834,798.186,915.194,787.581,911.522,793.293z"
			/>
		<path fill="#FFFFFF" d="M892.006,1005.876c2.792-4.081,4.97-26.114,4.97-26.114l4.351-197.893c0,0,1.518-8.976-4.351-5.304
			c0,0-3.817,0.404-4.231,9.381c-0.405,8.978-5.699,212.987-5.699,212.987S889.221,1009.948,892.006,1005.876z"/>
		<path fill="#FFFFFF" d="M871.945,1000.975c0,0,10.202,13.465,10.202,7.346c0-6.12,4.897-157.094,4.897-157.094H873.98
			L871.945,1000.975z"/>
		<path fill="#FFFFFF" d="M684.27,1596.766c0,0-34.227,73.118-90.228,99.561c-56.003,26.446-500.916,210.01-510.247,261.348
			c-4.513,24.819-23.179,220.765-41.591,427.077v0.004c-0.203,2.435-0.414,5.12-0.631,8.016c3.143,3.825,6.309,7.628,9.487,11.421
			c0.29-5.054,0.552-9.591,0.782-13.521c21.713-206.233,43.011-402.581,47.505-426.776
			c8.813-47.436,459.146-239.099,500.466-259.712C643.236,1682.522,679.599,1632.743,684.27,1596.766z"/>
	</g>
	<path fill="#FFFFFF" d="M1726.133,1743.158c90.229,23.875,165.185,46.246,179.382,58.059c39.686-12.184,65.941,58.848,72.934,64.37
		c6.989,5.519,8.828,25.756,11.406,32.746c2.575,6.989,10.3,18.03,17.293,28.331c6.992,10.301,78.732,108.871,85.734,129.516
		c16.568,48.867,42.783,126.979,71.447,130.569c43.02,5.387,120.743,33.052,227.447,77.18
		c-10.828,10.789-31.669,30.662-35.081,36.017c-7.221,11.344-3.664,42.441-1.64,85.344c-14.706,60.63-21.958,123.382,10.931,154.436
		c-14.636-0.556-39.956-0.297-52.675,21.428c-5.926,10.126,9.017,41.99,9.017,41.99c-3.17,0.947-16.652,12.744-18.401,21.242
		c-2.996,14.546,11.846,34.636,16.548,41.495c0.494,7.905,0.919,21.809,4.354,37.675c-21.732-0.088-84.105-27.514-95.529-32.273
		c-16.692-6.951-164.242-72.195-168.614-74.691c-22.284-12.713-54.016-27.573-74.737-38.398
		c-43.325-22.627-117.219-159.24-126.602-168.9c-9.385-9.657-24.802-36.111-32.049-52.577c-4.311-9.799-27.659-56.315-21.808-119.45
		c28.705-186.815,78.687-339.844,78.687-339.844s-100.734,210.437-126.139,524.513c-11.256,139.167,0.518,380.622-1.46,456.305
		l20.812-14.653c1.271-32.273-9.883-314.142-0.847-458.631c1.488-23.777,2.01-32.399,5.724-58.976
		c27.249,51.241,48.5,74.144,56.228,81.87c7.726,7.729,92.214,135.519,136.675,160.712c7.948,4.503,50.881,23.712,75.857,36.483
		c5.129,2.621,169.993,75.112,176.618,79.527c6.619,4.414,79.014,33.741,101.229,34.166c32.11,60.762,114.797,61.536,147.936,51.578
		c1.098,0.189,11.243,4.832,28.905,4.28c17.663-0.551,27.599-7.173,49.121-8.278c21.526-1.105,29.804-4.969,36.427-8.281
		c6.626-3.311,30.36,0,64.024-7.728c33.667-7.724,89.41-40.288,105.416-52.984c16.005-12.692,16.005-32.013,18.767-55.188
		c2.758-23.182,6.625-27.048,16.004-37.534c9.384-10.485,18.214-20.42,23.734-29.25c5.52-8.831-0.322-39.738-0.322-39.738
		c0.708-2.34,6.764-1.721,23.503-14.903c26.427-20.815,16.053-78.119,6.174-94.421c0.33,11.527,16.301,53.845-4.61,83.979
		c-5.948,8.567-25.928,18.266-25.929,18.267c-2.529,1.447-4.991,2.696-7.481,4.01l-0.001-0.001
		c-0.009,0.005-0.028,0.016-0.038,0.022c-1.854,0.977-3.726,1.993-5.653,3.155c-0.26,0.142-0.53,0.324-0.801,0.514
		c-25.484,14.51-115.578,64.643-128.385,66.164c-12.598-2.716-2.966-4.941-1.646-11.115c0.868-4.073,0-7.904-3.293-6.917
		c-3.293,0.988-9.964,12.304-16.55,14.325c-9.108,2.8-33.182-1.811-38.778-3.821c-5.599-2.01-7.246-7.54-5.27-11.162
		c1.975-3.625,4.282-9.551,2.965-14.163c-3.378-2.963-3.378,7.41-8.891,8.562c-2.325,0.485-4.283-4.939-14.492-21.078
		c-10.206-16.138-52.713-19.239-59.609-19.759c-4.365-0.33-20.091,13.502-27.005,22.723c-6.75,8.998-7.267,14.091-4.323,21.908
		c-7.215-6.851-11.256-13.302-10.563-26.946c2.454-24.217,22.498-65.34,94.75-70.543c48.925-3.521,88.998-1.688,95.279-7.627
		c4.583-5.247,9.777-8.51,23.278-13.781c16.323-6.37,26.957-15.648,43.885-38.294c17.703-20.656,21.328-25.355,38.125-25.648
		c-8.075-6.697-25.531-6.04-23.653-13.87c9.684-13.592,22.101-27.09,30.213-38.785l13.209-14.425
		c1.435-0.383,2.896-0.787,4.343-1.207c2.267,10.093,4.678,29.519,13.756,33.761c-5.229-10.86-6.52-21.092-6.021-36.243
		c3.088-1.115,5.505-2.202,6.48-3.088c3.592-3.27,5.633-4.305,14.197-7.271c8.563-2.963,16.138-7.905,21.167-12.749l-0.007,0.003
		c6.176-2.608,12.488-5.42,18.948-8.453c-0.154,0.055-0.288,0.088-0.427,0.129c47.078-18.749,75.967-54.802,87.149-87.973
		c10.688-21.18,15.529-49.45,13.77-82.145c-3.398-63.406-31.405-128.381-69.68-161.684c-32.713-28.46-75.463-44.136-120.387-44.136
		c-44.906,0-87.131,15.456-119.485,42.651c-71.878,41.941-85.529,119.473-74.696,181.101c-0.354,5.623-0.393,12.316,0.019,19.814
		c-1.991,2.668-4.154,6.834-4.281,7.586c-0.655,3.737-1.155,7.427-1.581,11.084c-32.745-1.873-49.681,9.395-56.005,14.541
		c-6.621,5.387-12.697,7.306-21.524,3.996c-8.832-3.314-38.635,0.548-59.057,5.52c-20.42,4.964-35.319,25.385-38.632,33.663
		c-1.414,3.534-0.004,1.438-10.159,11.598c-60.78-21.161-188.562-72.867-234.508-78.249
		c-26.349-3.088-54.656-105.181-62.018-123.578c-7.359-18.395-78.003-121.419-84.625-129.515
		c-6.625-8.094-13.25-21.338-17.665-27.228c-4.412-5.885-2.988-26.586-9.566-33.112c-7.553-7.493-28.496-74.406-83.246-77.457
		c-0.523-0.029-0.967-0.321-1.407-0.451c-80.594-25.763-118.354-35.953-171.283-49.254c-30.883-7.761-203.329-48.35-241.671-59.728
		c-129.293-38.368-197.92-91.834-227.525-122.884c-0.003-28.41,0.392-67.117,0.388-85.412c0.245-1.234,0.143-2.968-0.01-4.349
		c0-0.01,0-0.022,0-0.028h-0.003c-0.138-1.219-0.308-2.153-0.308-2.153s-349.452,20.032-367.672,23.329
		c-0.496-6.711-1.299-14.305-2.404-16.295c-2.037-3.666-9.396-2.041-10.611-1.632c-1.233,0.412,1.215,2.453,5.701,6.126
		c4.497,3.665-5.701,10.603-8.97,11.825c-3.255,1.231-2.45,3.677,0,5.718c2.46,2.041-4.484,9.797-9.794,5.467
		c-5.289-4.333-2.443,6.367-0.802,8.818c1.627,2.441-14.499-1.023-28.776-6.326c-1.514-0.561-4.073-1.479-7.375-2.643
		c24.338,1.933,32.818-15.931,39.377-40.658c6.41-24.226,6.009-144.594,6.009-144.594c-0.569-13.926-10.826-22.536-11.594-30.91
		c-0.285-3.093-0.398-29.159,0-32.744c0.407-3.582,8.316-15.857,11.173-20.35c2.848-4.487,1.438-8.669,1.438-16.835
		c0-8.16-4.346-13.672-6.795-15.301c-2.447-1.628-3.873-3.825-3.873-7.492c0-3.675-4.288-3.629-4.288-3.629l3.879-172.846
		c0,0-13.004-8.125-13.057-5.818c-0.143,6.526-9.79,424.658-10.201,431.598c-0.41,6.938-8.166,36.315-20.405,35.09
		c-5.957-0.592-67.921-18.812-133.523-38.362c-69.002-20.553-126.546-42.561-144.219-52.25
		c-4.286-2.348-13.417-56.236-16.895-130.064c-2.173-46.29,2.625-661.932,8.08-675.152c4.156-10.092,13.599-12.439,39.711-19.784
		c26.108-7.344,281.128-87.727,283.99-85.687c2.861,2.042,4.891,1.634,4.891,17.953c0,16.322-2.443,180.35-3.671,183.206
		c0,0-1.44,9.815-10.413,10.225c-8.97,0.404-16.315-2.879-26.312,11.176c-6.98,9.827-8.982,20.01-8.16,45.104
		c0.94,28.991,13.711,32.747,18.363,34.684c14.687,6.119,23.866-4.286,25.488,14.279c0.046,0.374,0.086,0.689,0.135,0.971
		c-8.139,21.118-17.817,51.384-20.74,81.862c-5.292,55.491,1.23,93.436,6.537,118.325c2.561,11.997,15.101,15.502,15.101,15.502
		s0.406-105.268,1.64-107.304c1.205-2.039,2.031-10.204,0.397-9.792c-1.63,0.404-3.27-7.756,0-11.023
		c3.249-3.263-2.037-4.074-3.677-3.669c-1.628,0.406,1.226-7.758,2.857-8.98c1.628-1.218,2.175-43.182,2.014-51.762
		c-0.29-15.524-10.351,30.656-7.267,7.161c2.626-20.007,12.752-34.548,14.837-37.734c-1.672,11.304-2.244,48.88-1.833,48.976
		c0.415,0.101,2.037,0.31,2.446,3.166c0.41,2.859,2.039,7.751,4.894,8.571c2.863,0.816,4.094-7.751,4.094-7.751
		s1.625-47.743,1.625-53.861c0-6.12-3.268-6.533-3.268-6.533v-13.464l-7.345-0.203c0,0,3.381-229.177,5.13-286.359
		c0.232,0.033,0.489,0.047,0.793,0.033c31.171-1.567,38.42-23.407,36.505-13.284c-1.937,10.111-1.084,39.202,5.394,39.448
		c2.756-5.072,1.128-28.104,2.882-32.495c1.751-4.391,4.843,0,5.268,1.755c0.44,1.759,2.58,2.632,6.772,2.01
		c3.124-0.464,1.764-4.39,2.2-8.775c0.447-4.397-11.16-4.253-12.913-3.819c-1.766,0.445-2.634-2.15,0.438-3.904
		c3.079-1.754,6.766-4.073,3.944-6.766c-2.822-2.693-15.804,2.375-26.34,4.131c-7.392,1.234-20.599,11.617-24.809,17.563
		c0.174-5.03,0.328-8.061,0.458-8.617c1.33-5.716,4.279-11.022,10.597-12.042c6.331-1.022-2.732-1.725-6.191-1.512
		c-3.472,0.199-37.462,13.344-37.462,13.344s-7.551-4.792-11.834-4.589c-4.278,0.204-10.611-1.324-11.226,0.717
		c-0.606,2.039,3.074,8.233,0.835,9.048c-2.246,0.816-6.543,2.172-6.337,0.335c0.205-1.837,3.117-11.423-3.006-9.181
		c-6.123,2.244-10.409,1.43-10.409,3.061c0,1.631-1.019,11.421-2.445,11.018c-1.425-0.411-0.458-10.405-2.907-8.773
		c-2.449,1.632-33.51,10.152-34.12,12.138c-1.343,4.362,0.354,9.943-2.294,11.17c-2.653,1.225-114.199,36.874-115.831,36.874
		c-1.634,0-0.628-1.323,1.474-5.711c1.01-2.097-0.166-6.672-1.015-7.295c-2.048-1.507-11.479-0.459-11.02,2.192
		c0.922,5.323,1.488,6.124-0.068,6.325c-1.562,0.203-12.323,1.584-12.631,9.54c-0.047,1.228-2.896-8.568-3.619-8.93
		c-2.41-1.175-36.47,11.533-36.47,13.062c0,2.859,1.643,9.885-0.458,10.403c-6.28,1.546-44.673,12.036-50.387,18.564
		c-5.71,6.531-8.568,10.201-10.2,34.277c-0.081,1.184-69.472-39.376-66.312-108.325c2.594-56.806,25.508-107.114,119.45-112.008
		c-1.996,0.832-3.986,1.662-5.966,2.485c-11.116,4.639-8.001,26.485-8.001,26.485s323.833-136.81,334.99-141.588
		c8.568-3.671,13.608,4.201,14.929,11.838c1.643,9.384-2.285,143.211-2.285,143.211h38.353c0,0,0.208-119.146,0.208-150.155
		c0-12.113-4.543-19.735-10.71-24.47c0.705-18.618,10.502-24.73,15.598-28.976c5.513-4.592,90.286-13.16,93.951-11.634
		c1.832,0.768-1.371,8.168-0.924,22.858c0.359,11.087,4.577,29.525,4.591,34.321l-102.714-6.988c0,0,2.241,3.746,10.201,5.71
		c2.842,0.702,14.187-0.204,14.893,1.938c0.719,2.146,6.231,8.568,10.612,6.635c4.381-1.943,3.372-8.743,6.526-7.28
		c3.162,1.46,12.956,1.153,14.482,2.791c1.522,1.631,11.429,0,13.054,2.65c1.635,2.653,5.618,10.403,8.578,8.669
		c2.946-1.733,9.785-8.567,12.65-6.122c2.844,2.45,15.192-0.41,18.36,2.45c3.165,2.855,8.259,5.206,7.136,2.751
		c-1.001-2.201-11.075-9.8-0.35-9.809c7.758,6.448,11.817,22.271,12.793,29.399c1.231,8.977,2.517,140.76,2.517,140.76h21.555
		c0,0,0.007,0.598-0.027-3.736c13.268,0.99,18.372,4.942,24.145,2.905c3.48-1.229,10.946,2.371,12.816,3.618
		c4.3,2.866,8.872,0.274,13.46-1.557c4.588-1.839,14.391,6.739,17.754,7.958c5.691,2.063,11.622-0.303,14.685-1.531
		c3.063-1.227,15.457,5.111,18.505,5.899c4.966,1.283,12.705-4.064,18.526-3.143c5.806,0.915,10.422,7.609,12.43,8.004
		c7.348,1.449,9.601-4.945,16.022-4.945c6.438,0,9.484,11.626,17.137,11.616c7.662-0.015,3.061-9.474,4.589-20.955
		c1.534-11.486,16.97-21.876,16.97-21.876c-7.13,0.507-22.607,6.435-30.023,21.876c-2.958,4.483-139.159-12.212-157.062-14.039
		c-0.039-4.414-0.085-10.088-0.143-16.615c2.184,1.167,4.922,2.258,8.377,3.267c25.097,7.346,35.3,3.272,45.504,7.754
		c10.202,4.491,20.593-7.754,31.005,0c6.893,5.141,18.366,1.858,21.427-3.555c3.049-5.418,8.558-2.358,12.841-4.199
		c4.294-1.831,2.454-8.052-0.608-16.571c-3.053-8.524-4.903-6.074-3.675-23.208c1.235-17.14,17.053-94.655,21.433-120.571
		l-20.811,15.297c0,0-13.886,108.943-12.459,123.632c1.449,14.687-4.076,0.618-5.912-23.868
		c-1.827-24.483-11.011-64.879-15.901-65.492c-2.706-0.331-11.44,11.019-8.577,23.264c2.14,9.23-29.955,1.285-39.171-1.226
		c-13.955-3.809-25.697-7.958-25.697,1.226c0,9.177,29.873,10.669,20.184,12.504c-6.47,1.232-3.657,15.034-3.657,15.034
		s-16.527,10.182-24.681,20.174c-0.295-25.812-0.689-53.005-1.138-67.607c-1.222-39.271-14.994-41.108-19.688-42.326
		c-1.514-0.398-4.369-0.541-7.55-0.549c-13.366-29.276-8.92-45.083-5.33-56.581c1.369-4.388,5.14-6.12,6.339-7.65
		c1.238-1.528,0-5.202,0-5.202s-76.156,7.522-114.128,13.158c-24.558,3.647-29.211,25.989-30.1,35.045
		c-10.787-3.873-22.512-2.523-24.799-1.583c-29.658,12.234-135.268,57.489-240.959,102.053
		c-1.238-30.543,0.453-90.599,0.453-105.489c0-3.797-9.377-3.955-9.377,0.504c0,20.001-0.527,78.311-0.009,108.541
		c-15.785,6.652-31.472,13.252-46.794,19.68c-8.968-2.09-19.35-4.362-26.965-6.865c-30.947-10.163-77.936-17.544-126.08-18.355
		c-48.138-0.817-77.933,4.076-141.99,29.373c-69.982,27.634-152.195,59.165-159.135,110.168
		c-6.936,51.004,42.849,73.856,104.46,100.374c61.611,26.523,67.321,52.228,139.954,62.838
		c61.503,8.986,103.684,7.732,123.098,11.099c-5.412,151.998-7.492,565.393-4.105,606.005
		c4.084,48.964,6.694,123.444,22.503,134.648c19.035,13.492,78.496,38.04,145.525,60.779c-6.42-0.33-11.204,1.027-11.809,6.38
		c-1.234,10.947-5.275,79.243-0.609,87.934c1.159,2.158,10.322,7.037,24.268,13.473c-1.174,5.978-2.07,12.942-3.024,23.029
		c-5.186,54.962,2.909,583.489,35.702,967.604c0,0,15.401,185.592,18.476,270.319c0.409,11.31,3.613,49.961,4.291,75.457
		c4.269,1.309,2.855,7.813,7.139,9.086c-3.506-144.874-8.569-372.854-8.733-401.698c-0.194-33.869,21.659-324.94,42.685-428.155
		c22.817-112.003,99.275-193.586,96.45-220.897c-0.626-6.058-20.74-43.559-32.153-47.708
		c-11.41-4.15-113.041,114.082-113.041,114.082s126.38-203.47,166.823-206.582c40.448-3.109,203.419,217.989,203.419,217.989
		s-109.93-110.959-122.382-109.931c-6.741,0.551-23.26,16.606-22.815,29.039c1.041,29.037,45.631,100.596,53.931,143.115
		c24.689,126.473,61.514,303.199,63.141,638.031c-5.558,111.072-10.723,244.099-12.585,336.313c3.761,0.297,1.29,0.03,5.058,0.297
		c2.149-84.963,122.433-1120.728,143.317-1355.805c24.314-2.173,40.143-3.793,41.729-4.432c1.771-0.717-0.185-36.689-0.497-38.497
		c-0.005-0.867,78.519,76.714,229.625,121.562C1527.641,1697.324,1686.671,1732.717,1726.133,1743.158z M828.486,730.042
		c-0.193-29.576,7.547-43.448,16.327-43.448c6.322,0,7.346,8.569,7.346,8.569C836.444,686.593,828.486,730.042,828.486,730.042z
		 M524.954,623.589c-8.992-1.3-31.921-9.244-63.482-20.911c-10.588-3.91-24.591-16.007-20.849-26.456
		c2.033-5.711-18.537-43.659-23.842-64.06c-7.115-27.35,3.77-63.846,13.682-63.653c0,0-12.651,36.316-4.488,59.979
		c8.162,23.67,22.083,83.093,99.145,108.538L524.954,623.589z M689.969,1539.972c-4.608-2.145-4.691-8.152-4.691-22.022
		c0-13.877-0.411-57.945,4.691-58.862c10.615-1.914,122.204,37.849,159.756,48.247c37.53,10.405,39.972,15.708,40.781,17.345
		c0.82,1.634-1.831,78.742-1.831,84.455c0,5.715-2.039,5.316-6.115,6.526C878.468,1616.896,706.375,1547.65,689.969,1539.972z
		 M918.188,1702.947c-32.251,0.669-107.404-63.736-158.249-121.48c61.951,25.435,135.681,53.59,135.681,53.59
		c4.616,0.124,69.47-4.537,143.816-10.226C990.235,1667.899,937.478,1702.548,918.188,1702.947z M1252.848,1569.729
		c-0.859,9.775-3.881,20.398-9.76,28.58c-2.957,4.126-6.066-9.247-11.086-1.682c-7.156,10.78-10.749-6.835-14.068-2.849
		c-3.493,4.197,0.3,14.051-9.785,7.622c0.667,0.424-8.314-3.793-16.977,1.044c-2.826,1.578-10.474,5.057-10.234,1.723
		c0.171-2.387,7.409-22.102,3.214-21.579c-9.511,1.186-19.244,18.195-20.243,20.984c-1.804,5.036-12.417,4.857-17.538,4.712
		c-14.894-0.395-26.197,2.3-41.59,3.087c-30.739,1.568-61.526,3.985-92.276,4.819c-6.293,0.171-20.726,3.122-23.153-6.218
		c-0.904-3.437-9.74,8.559-11.253,5.878c-5.435-9.635-7.768-6.037-15.99-3.56c-3.977,1.2-7.511,7.618-13.818,9.12
		c-11.413,2.719-34.73,6.579-35.564,2.04c-0.069-0.38,16.011-7.109,13.515-9.259c-1.777-1.539-15.645-4.232-14.736-8.996
		c0.643-3.376,15.204-16.726,6.501-16.726c-16.647,0-7.768-25.948-7.341-36.708c0.556-14.041,0.271-28.081,0.438-42.142
		c0.213-17.876,1.311-17.658,19.272-19.085c0.022,0.033,2.452,6.05,5.893,7.552c6.361-1.127,2.617-9.318,10.357-8.165
		c6.263,0.933,11.544-2.411,16.771,0.753c0.468,0.284,21.894-0.324,23.006-0.701c1.853-0.633,7.67,0.133,12.088-1.213
		c3.675-1.121,8.56-2.796,14.352,0.293c0.158,0.085,11.101-1.789,14.865-0.399c10.096,3.73,25.109-2.401,25.777-3.033
		c7.742-7.382,6.704,5.838,10.179,4.351c8.574-3.682,5.506-7.774,17.543-6.827c6.583,0.517,12.286-2.645,19.178-1.602
		c8.069,1.221,20.745-1.314,29.269-1.412c5.78-0.066,25.646-8.369,29.542-5.198c5.954,4.866,18.881,2.173,26.194,3.57
		c3.15,0.602,11.371-5.006,14.778-5.42c5.536-0.671,11.348,2.805,16.864,3.298c-0.351-0.032,3.758-0.079,7.318,1.184
		c3.744,1.328,6.213,1.854,6.855,3.704c8.427,24.278,15.101-5.935,17.396-7.032c2.043,0.134,3.35,0.741,4.09,2.876
		C1253.321,1507.677,1255.543,1539.317,1252.848,1569.729z M2954.275,2135.82c-0.672-1.348-0.89-2.698-1.256-4.113
		c0.38,1.168,0.756,2.335,1.113,3.492C2954.275,2134.831,2954.275,2135.82,2954.275,2135.82z M2953.495,2107.968
		c-0.209-1.789-1.194-2.775-2.185-4.751c0.99,1.975,1.976,2.962,2.207,4.69C2953.507,2107.931,2953.499,2107.948,2953.495,2107.968z
		 M2949.125,2073.298c1.149,2.55,2.26,5.089,3.322,7.618c-0.191,0.441-0.388,0.884-0.581,1.327
		c-1.168-2.467-2.371-4.931-3.609-7.401C2948.544,2074.327,2948.843,2073.811,2949.125,2073.298z M2777.058,2230.203
		c-2.095-2.47-4.165-4.895-6.208-7.278c2.623-2.137,4.597-8.065,6.575-8.065C2786.316,2216.835,2782.364,2223.752,2777.058,2230.203
		z M2778.885,2256.792c-1.805-2.383-3.63-4.732-5.474-7.041c1.209-1.6,2.441-3.238,3.717-4.94
		C2781.377,2248.452,2784.339,2253.392,2778.885,2256.792z M2937.552,2075.658c0.917-4.058-6.001-5.046-3.035-8.999
		c0.986,2.965,2.963,4.941,3.847,7.624C2938.096,2074.739,2937.828,2075.198,2937.552,2075.658z M2941.699,2102.619
		c-0.268,0.598-1.255,0.598-1.255,1.585c0-3.952-5.928-5.929-3.278-10.868C2938.745,2096.437,2940.261,2099.529,2941.699,2102.619z
		 M2931.551,2137.795c0,0,0,0.988-0.332,0.642c0.767,1.962,1.468,3.893,2.173,5.832c-1.841,1.431-2.828,3.406-3.815,5.382
		C2931.551,2145.7,2921.672,2142.736,2931.551,2137.795z M2648.727,2118.084c3.221-1.036,7.173,0.94,10.136,0.94
		c-3.952,6.916-7.905,14.82-16.802,10.234C2644.183,2125.676,2646.412,2121.935,2648.727,2118.084z M2639.103,2108.156
		c-0.988,0,0.989-3.952,2.362-5.683c2.305-0.391,4.645-0.705,7.021-0.935C2646.02,2106.179,2643.054,2112.107,2639.103,2108.156z
		 M2911.962,2084.329c-1.548-2.921-4.069-5.849-5.332-8.795c-1.26-2.948-1.26-5.91,2.198-8.875c0.988,1.977,2.963,3.952,3.77,5.932
		c1.185,1.978,2.361,3.951,3.529,5.922C2914.843,2080.431,2912.906,2082.381,2911.962,2084.329z M2916.823,2108.316
		c-1.08,1.815-3.055,3.791-4.043,5.767c-2.964-4.939-6.915-8.891-0.842-13.793
		C2913.616,2102.948,2915.247,2105.62,2916.823,2108.316z M2906.635,2092.197c-1.759,2.127-3.735,4.102-4.723,6.078
		c-2.964-4.939-9.881-11.855-3.952-17.783c0.988,1.975,2.965,3.951,4.783,5.717
		C2904.042,2088.205,2905.339,2090.203,2906.635,2092.197z M2758.651,2150.639c-0.986,0.99-3.952-0.988-5.142-3.429
		c-1.669-1.553-3.36-3.073-5.068-4.565c3.293-3.862,5.27-7.814,8.233-11.765C2765.568,2137.795,2769.521,2144.711,2758.651,2150.639
		z M2767.545,2174.668c1.234,3.142,0.492,6.107-3.953,7.587c-1.976,0-6.917-4.938-9.043-8.471c1.67-2.549,3.372-5.14,5.121-7.792
		C2763.107,2168.201,2766.311,2171.524,2767.545,2174.668z M2846.583,2103.217c0.99,0.986-2.963,7.903-6.914,7.903
		c-0.989,0.986-2.966-1.976-4.511-3.201c-1.663-1.466-3.345-2.92-5.04-4.369C2834.728,2093.336,2842.631,2094.323,2846.583,2103.217
		z M2848.56,2076.539c0.986-0.986,3.952,1.976,5.285,3.623c1.62,1.583,3.24,3.172,4.853,4.768c-1.247,3.464-4.21,9.393-7.173,9.393
		C2840.656,2092.347,2840.656,2083.456,2848.56,2076.539z M2838.587,2074.665c-1.332,1.977-2.666,3.961-4.001,5.959
		c-2.758-1.728-4.665-3.537-5.849-5.397c-1.178-1.864-1.673-3.768-1.586-5.698c0.167-3.856,2.636-7.808,6.587-11.76
		c1.485,2.964,4.695,5.433,6.529,8.041C2842.097,2068.42,2842.571,2071.169,2838.587,2074.665z M2822.871,2097.288
		c-1.976-1.976-2.963-2.965-4.95-4.489c-1.672-1.573-3.3-3.166-4.926-4.776c0.491-2.283,1.974-3.674,3.455-5.107
		c1.481-1.436,2.963-2.917,3.458-5.389c1.482,1.976,3.212,3.702,4.944,5.356C2833.738,2086.419,2826.823,2092.347,2822.871,2097.288
		z M2823.429,2057.271c-1.455,2.087-2.943,4.227-4.452,6.398c-9.938-7.877-10.926-17.758-0.057-20.721
		C2821.882,2041.961,2830.776,2050.85,2823.429,2057.271z M2813.704,2071.298c-2.688,3.266-5.653,6.23-6.641,10.183
		c-3.952-2.966-6.915-6.917-10.868-9.88c2.963-2.964,7.903-13.832,12.645-5.379
		C2810.479,2067.88,2812.097,2069.576,2813.704,2071.298z M2793.56,2060.825c-1.207,1.75-2.419,3.511-3.631,5.277
		c-3.613-1.418-7.565-4.381-8.552-7.347c-0.989-3.952,2.962-8.891,5.926-8.891c2.963-0.988,6.916,2.965,9.881,5.929
		C2795.207,2056.781,2794.219,2058.755,2793.56,2060.825z M2784.277,2074.36c-2.9,3.168-4.878,7.121-6.852,10.083
		c-2.966-2.962-7.905-4.939-8.894-7.903c-1.976-2.963,4.941-4.939,5.988-9.659C2777.82,2069.263,2781.068,2071.771,2784.277,2074.36
		z M2767.544,2098.274c-0.988,0.99-3.952-0.986-5.24-2.677c-1.645-1.209-3.301-2.394-4.959-3.562
		c1.307-2.652,3.283-6.604,5.26-6.604C2771.496,2085.433,2775.447,2093.336,2767.544,2098.274z M2754.699,2118.036
		c-4.938-4.94-13.832-5.929-6.12-13.032c1.321-1.964,2.644-3.926,3.976-5.903
		C2763.592,2103.217,2761.616,2110.131,2754.699,2118.036z M2760.364,2071.941c-1.773-1.25-3.537-2.483-5.286-3.722
		c-1.366-1.56-4.331-2.546-4.331-3.535c0-2.47,1.481-5.68,3.609-7.473c2.127-1.79,4.902-2.164,7.489,1.032
		c1.799,1.198,3.612,2.4,5.425,3.623C2764.891,2065.324,2762.602,2068.661,2760.364,2071.941z M2755.411,2079.191
		c-1.805,2.646-3.587,5.267-5.337,7.846c-1.765-1.194-3.528-2.371-5.269-3.552c-1.745-1.184-3.46-2.38-5.161-3.575
		c1.769-2.672,3.539-5.346,5.314-8.013c1.707,1.215,3.425,2.442,5.163,3.665C2751.862,2076.782,2753.631,2077.983,2755.411,2079.191
		z M2735.927,2104.203c-1.481,0.989-4.693-0.247-6.581-2.45c-1.887-2.203-2.454-5.374,1.355-8.257
		c1.332-2.033,2.678-4.077,4.03-6.135c3.012,1.01,5.148,2.378,6.52,3.915C2745.376,2095.866,2742.596,2101.981,2735.927,2104.203z
		 M2742.619,2059.35c-2.842-1.999-5.683-3.913-8.523-5.733c2.198-3.295,4.373-6.542,6.522-9.737
		c2.859,1.795,5.717,3.683,8.574,5.642C2747.012,2052.768,2744.822,2056.044,2742.619,2059.35z M2737.693,2066.752
		c-2.754,7.811-8.683,9.787-12.634,2.871c-1.974-2.965,1.977-5.928,4.079-8.556
		C2731.99,2062.862,2734.838,2064.764,2737.693,2066.752z M2723.18,2088.79c-1.366,2.09-2.717,4.154-4.046,6.195
		c-2.967-1.649-4.943-3.625-8.894-4.614c2.962-7.905,9.88-17.785,15.806-7.905C2727.036,2083.456,2724.072,2086.419,2723.18,2088.79
		z M2726.548,2049.106c-2.477-2.207-8.406-2.207-8.406-5.17c0-7.904,7.905-9.88,14.895-4.514
		C2730.908,2042.592,2728.743,2045.818,2726.548,2049.106z M2721.537,2056.631c-0.709,4.522-3.533,6.78-6.551,7.139
		c-3.019,0.367-6.23-1.219-7.71-4.26c-0.989-1.036,2.965-3.842,4.433-7.514C2715.212,2053.483,2718.503,2055.037,2721.537,2056.631z
		 M2710.643,2073.085c-4.356,4.443-4.356,13.334-12.26,11.357c-1.976-0.987-3.951-2.962-5.928-2.962
		c2.966-3.952,4.94-8.894,8.089-12.747C2704.02,2070.059,2707.392,2071.528,2710.643,2073.085z M2696.983,2057.503
		c-3.541-0.722-6.505-1.71-10.456-2.7c2.963-6.914,9.88-8.891,16.48-6.105C2701.001,2051.609,2698.994,2054.549,2696.983,2057.503z
		 M2691.51,2065.724c-3.007,6.863-9.922,13.78-17.827,9.829c2.965-3.952,4.94-7.905,7.653-12.128
		C2684.768,2064.005,2688.167,2064.778,2691.51,2065.724z M2679.612,2084.442c-1.977,2.966-3.951,6.918-6.21,10.351
		c-3.252-0.781-6.499-1.349-9.729-1.697C2664.791,2086.419,2672.695,2081.48,2679.612,2084.442z M2677.898,2104.512
		c2.701,2.656,8.629,1.667,8.629,4.632c-0.988,7.903-6.916,8.891-14.028,3.982
		C2674.331,2110.186,2676.131,2107.317,2677.898,2104.512z M2682.178,2097.679c1.679-4.294,4.251-7.189,6.892-8.083
		c2.645-0.897,5.365,0.18,7.337,3.727c0.988,1.99-1.975,5.942-4.793,8.873C2688.471,2100.505,2685.321,2098.986,2682.178,2097.679z
		 M2694.812,2113.481c8.512,3.567,9.5,8.506,2.583,15.422c-1.974-2.963-5.927-3.952-8.221-6.643
		C2691.065,2119.306,2692.943,2116.38,2694.812,2113.481z M2699.161,2106.755c2.186-7.49,11.079-12.432,14.041-4.528
		c0.989,2.966-2.962,6.918-5.927,10.869c0-0.989-0.989-0.989-1.122-1.527C2703.804,2109.876,2701.476,2108.283,2699.161,2106.755z
		 M2710.179,2125.065c3.488,2.412,6.714,4.854,7.957,7.312c1.242,2.454,0.502,4.925-3.942,7.394
		c-2.963,0.988-6.918-2.965-9.75-5.767C2706.339,2131.038,2708.252,2128.055,2710.179,2125.065z M2714.815,2117.876
		c0.677-2.39,2.002-4.08,3.38-5.688c1.378-1.608,2.808-3.137,3.693-5.206c11.075,3.149,9.099,10.065,2.891,17.737
		C2721.427,2122.405,2718.093,2120.153,2714.815,2117.876z M2727.003,2137.359c5.96,2.412,11.888,11.304,3.984,14.27
		c-2.962,0.987-7.902-1.978-9.609-5.574C2723.177,2143.244,2725.034,2140.364,2727.003,2137.359z M2732.035,2129.756
		c2.904-3.815,5.867-10.731,7.843-10.731c10.869,1.976,9.883,9.879,1.765,17.974C2738.48,2134.5,2735.283,2132.07,2732.035,2129.756
		z M2743.345,2150.336c5.427,2.279,9.379,6.231,8.39,11.173c-0.988,10.866-9.879,0-13.71-2.996
		C2739.736,2155.863,2741.509,2153.14,2743.345,2150.336z M2765.427,2117.549c1.299-1.91,2.578-3.791,3.843-5.652
		c10.129,6.138,10.129,13.054,2.225,20.958C2768.531,2127.916,2756.675,2123.963,2765.427,2117.549z M2774.015,2104.939
		c1.432-3.698,3.41-5.674,5.385-8.64c5.929,4.941,15.808,11.857,4.94,16.797c-1.976,0.988-3.951-1.975-5.262-3.487
		C2777.416,2108.004,2775.727,2106.448,2774.015,2104.939z M2785.698,2090.618c-1.11-3.212,0.145-6.701,5.679-9.362
		c1.028-1.065,2.935,2.023,4.822,3.435c1.708,1.568,3.41,3.153,5.1,4.747c-3.127,2.908-4.114,9.826-7.08,8.836
		C2790.267,2096.793,2786.809,2093.829,2785.698,2090.618z M2796.271,2112.255c7.828,5.78,11.781,14.673,2.888,18.625
		c-2.963,0-6.915-5.929-9.108-9.577C2792.132,2118.272,2794.206,2115.255,2796.271,2112.255z M2802.865,2106.179
		c-0.743-3.458,0.74-7.409,5.186-10.866c0.988,1.976,2.967,3.95,4.606,5.037c1.652,1.585,3.328,3.158,5.022,4.724
		c-2.56,3-4.593,8.955-6.625,8.987C2806.569,2112.603,2803.606,2109.638,2802.865,2106.179z M2808.054,2134.255
		c1.176-1.699,2.358-3.4,3.552-5.106c3.362,4.695,11.265,9.634,4.47,14.754c-1.269,1.781-2.524,3.552-3.776,5.321
		c-2.124-2.751-4.915-5.115-6.311-7.479C2804.595,2139.38,2804.595,2137.014,2808.054,2134.255z M2812.622,2164.039
		c2.289,3.112,4.51,6.226,6.713,9.307c-2.146,2.911-4.23,5.742-6.274,8.517c-0.443-0.5-0.865-0.998-1.316-1.499
		c-1.968-2.252-3.918-4.531-5.837-6.848C2808.124,2170.387,2810.366,2167.225,2812.622,2164.039z M2817.931,2156.551
		c1.293-1.823,2.586-3.651,3.896-5.488c2.033-1.411,3.021-3.387,4.009-5.362c4.94,3.951,8.892,9.88,3.059,14.699
		c-1.376,1.866-2.749,3.726-4.119,5.579C2822.549,2162.824,2820.279,2159.676,2817.931,2156.551z M2825.836,2130.88
		c-0.988-1.977-1.976-3.952-4.326-4.793c-1.485-1.512-2.99-3.017-4.505-4.519c1.915-3.533,5.866-9.462,7.843-9.462
		C2835.716,2114.083,2833.738,2123.963,2825.836,2130.88z M2840.656,2126.928c7.905,5.927,5.928,13.831-1.476,20.052
		c-2.303-3.192-4.719-6.342-7.243-9.435C2833.738,2132.855,2837.691,2130.88,2840.656,2126.928z M2848.446,2149.414
		c1.381-1.718,2.782-3.438,4.187-5.164c7.783,7.378,7.783,15.28-1.108,21.209C2848.56,2160.52,2841.642,2153.604,2848.446,2149.414z
		 M2854.488,2128.903c-2.963-4.94-11.857-9.879-4.123-14.924c1.223-1.652,2.412-3.283,3.57-4.895
		C2863.38,2114.083,2862.391,2121.987,2854.488,2128.903z M2863.342,2130.939c1.026-2.036,2.013-4.011,3.992-4.999
		c4.936,6.915,5.927,17.784-1.978,22.723c0-1.976-1.975-3.952-2.879-6.393c-1.085-2-2.202-3.994-3.355-5.977
		C2860.756,2134.574,2862.067,2132.727,2863.342,2130.939z M2867.34,2110.128c-0.99,0.989-2.972-1.973-4.161-3.473
		c-1.42-1.582-2.904-3.141-4.43-4.674c2.653-3.706,4.631-6.668,6.606-10.62c3.458,3.458,6.43,6.666,7.315,9.738
		C2873.559,2104.175,2872.321,2107.14,2867.34,2110.128z M2869.562,2084.658c0.734-3.177,4.686-5.154,5.674-8.119
		c1.976,1.976,4.446,4.199,5.933,6.67c1.487,2.465,2.006,5.166,0.038,8.125c-2.962,3.95-5.965,1.01-7.242-1.714
		C2872.527,2087.95,2871.056,2086.297,2869.562,2084.658z M2879.188,2110.131c8.891,1.976,7.904,15.809,0,20.749
		c0-1.977-1.977-3.952-2.983-6.05c-1.164-1.999-2.382-3.982-3.647-5.945C2875.235,2116.059,2877.211,2110.131,2879.188,2110.131z
		 M2883.933,2101.956c1.182-2.691,3.159-7.632,5.135-6.643c6.915,1.976,9.88,12.843,2.963,18.771
		c-0.986-1.977-2.963-3.952-3.944-6.299C2886.745,2105.824,2885.355,2103.881,2883.933,2101.956z M2899.717,2064.584
		c-2.745-5.829-10.649-10.768-3.734-16.695c1.977,3.952,5.929,6.914,7.987,11.008
		C2902.584,2060.76,2901.169,2062.654,2899.717,2064.584z M2893.813,2072.371c-2.768,2.193-2.768,5.156-5.732,7.133
		c-1.482-3.458-4.694-6.67-6.176-9.51c-1.482-2.839-1.235-5.31,4.199-7.286c0.988-0.986,2.963,1.977,3.886,4.076
		C2891.294,2068.624,2892.566,2070.487,2893.813,2072.371z M2885.825,2046.51c-2.686-3.562-13.556-12.454-5.651-14.431
		c2.966-0.988,5.93,6.917,9.591,8.959C2888.488,2042.829,2887.176,2044.649,2885.825,2046.51z M2880.195,2054.184
		c-1.995,2.596-3.972,4.57-5.948,7.536c-4.941-6.918-11.857-10.87-2.963-17.784c0.985,1.975,1.976,3.952,4.377,5.102
		C2877.199,2050.73,2878.71,2052.448,2880.195,2054.184z M2869.035,2069.325c-2.033,2.878-3.98,5.725-5.844,8.554
		c-4.752-3.315-8.704-7.268-7.717-12.206C2857.451,2055.793,2866.344,2064.684,2869.035,2069.325z M2859.575,2044.842
		c-2.54-0.948-4.808-2.406-6.43-4.372c-1.62-1.969-2.609-4.439-2.609-7.402c0.495-2.471,2.223-3.952,4.15-4.175
		c1.929-0.222,4.078,0.805,5.392,3.36c1.548,1.689,3.101,3.388,4.653,5.097C2862.612,2038.874,2860.586,2041.865,2859.575,2044.842z
		 M2853.851,2052.644c-2.327,3.149-4.305,6.111-6.278,9.076c-2.472-3.459-5.682-6.918-7.04-10.003
		c-1.359-3.088-0.864-5.806,4.079-7.785c1.002-1.001,2.962,1.979,4.568,3.635
		C2850.728,2049.271,2852.282,2050.966,2853.851,2052.644z M2843.627,2028.656c-2.971-2.504-6.923-5.467-8.899-10.409
		c-0.99-3.951,3.952-7.904,6.914-5.929c2.966,2.966,4.941,5.929,7.776,8.331C2847.483,2023.319,2845.548,2025.998,2843.627,2028.656
		z M2838.5,2035.788c-0.809,3.208-4.762,5.183-5.749,8.148c-6.916-2.964-11.856-12.844-3.952-17.784
		c0.988,1.975,2.966,3.951,5.049,4.848C2835.5,2032.637,2837.049,2034.242,2838.5,2035.788z M2826.6,2013.607
		c-7.68-2.275-13.609-11.169-4.718-14.131c2.966-0.988,6.917,3.952,10.348,6.277
		C2830.352,2008.373,2828.471,2010.995,2826.6,2013.607z M2821.702,2020.444c-1.924,4.37-4.591,6.289-7.269,6.246
		c-2.677-0.045-5.394-2.02-7.369-5.478c-0.989-1.975,2.963-4.94,4.631-7.689C2815.215,2015.802,2818.565,2018.12,2821.702,2020.444z
		 M2811.384,2035.14c-3.333,3.856-5.31,11.759-9.262,11.759c-12.842-1.975-8.89-10.868,0-17.783c0-0.989,2.966,1.975,4.511,2.549
		C2808.304,2032.823,2809.887,2033.985,2811.384,2035.14z M2798.541,2016.933c-2.159-1.319-4.968-2.236-7.219-3.222
		c-5.993-0.402-4.018-7.319-2.041-9.295c4.939-3.954,9.879,1.975,14.913,4.44
		C2802.297,2011.568,2800.414,2014.255,2798.541,2016.933z M2787.873,2020.779c1.994,1.022,3.939,2.037,5.837,3.055
		c-2.711,5.605-6.288,9.643-9.681,10.92c-3.395,1.277-6.604-0.205-8.58-5.642c-0.492-1.494,0.777-5.763,3.087-8.565
		C2780.847,2017.744,2784.183,2016.436,2787.873,2020.779z M2779.6,2044.032c-2.32,3.338-4.61,6.639-6.871,9.904
		c-9.138-3.086-13.091-10.987-5.186-14.94C2770.507,2038.008,2775.447,2041.961,2779.6,2044.032z M2756.675,2020.223
		c-0.988-1.975,4.941-7.905,8.275-12.125c3.028,1.673,6,3.401,8.945,5.127C2769.521,2022.201,2761.616,2030.103,2756.675,2020.223z
		 M2760.111,2033.359c-2.024,2.98-4.025,5.934-6.016,8.882c-2.885-1.902-5.766-3.761-8.651-5.516c1.917-2.83,3.834-5.67,5.776-8.537
		C2754.171,2029.865,2757.128,2031.582,2760.111,2033.359z M2752.738,2010.383c-1.449,2.12-2.89,4.23-4.323,6.328
		c-2.608-2.415-8.537-1.427-8.537-5.379c0-9.88,9.883-15.808,15.809-6.915C2756.675,2005.404,2753.712,2008.367,2752.738,2010.383z
		 M2743.471,2023.974c-1.326,4.092-3.942,6.605-6.73,7.231c-2.79,0.627-5.754-0.608-7.731-4.065
		c-0.985-1.975,2.972-4.975,4.401-7.799C2736.782,2020.74,2740.131,2022.285,2743.471,2023.974z M2733.756,2002.939
		c-1.34,1.979-2.666,3.938-3.984,5.886c-3.725-0.458-6.687-1.445-9.651-2.433c2.964-6.916,9.88-13.833,17.782-9.881
		C2735.927,1998.489,2734.939,2001.452,2733.756,2002.939z M2724.824,2016.174c-1.368,3.522-3.777,6.009-6.341,6.881
		c-2.562,0.872-5.281,0.133-7.255-2.833c-0.988-0.986,1.974-4.939,3.979-6.838C2718.4,2014.186,2721.608,2015.127,2724.824,2016.174
		z M2714.703,2031.355c-1.737,3.821-3.594,6.458-6.13,7.708c-2.533,1.25-5.743,1.122-10.19-0.537
		c1.977-3.755,3.954-6.581,6.554-9.828C2708.187,2029.467,2711.44,2030.317,2714.703,2031.355z M2700.733,2019.24
		c-3.338-0.992-6.301-1.011-9.264-1.046c0.987-3.893,2.963-6.117,5.511-7.092c2.549-0.971,5.667-0.687,8.945,0.376
		C2704.196,2014.048,2702.467,2016.635,2700.733,2019.24z M2695.597,2026.795c-1.165,8.249-10.058,9.237-15.985,8.249
		c1.976-3.952,5.928-5.928,6.55-9.483C2689.264,2025.857,2692.41,2026.26,2695.597,2026.795z M2683.63,2043.841
		c-3.03,6.022-8.959,10.961-15.873,9.974c2.962-2.966,2.962-7.904,6.876-11.021
		C2677.631,2043.01,2680.636,2043.359,2683.63,2043.841z M2671.448,2062.358c-2.705,4.301-6.658,17.145-12.585,10.228
		c-2.963-1.975,1.975-5.927,3.881-9.995C2665.66,2062.311,2668.559,2062.235,2671.448,2062.358z M2668.93,2102.104
		c-1.576,4.026-3.351,6.768-5.721,8.015s-5.332,1.001-9.284-0.975c1.976-1.977,3.952-4.941,5.023-8.019
		C2662.26,2101.234,2665.586,2101.539,2668.93,2102.104z M2654.741,2141.891c3.136,0.844,8.074,1.833,8.074,3.809
		c-0.986,7.905-6.915,9.88-13.357,4.927C2651.114,2147.873,2652.879,2144.961,2654.741,2141.891z M2660.193,2132.986
		c3.612-8.035,7.564-14.95,16.455-8.035c-2.965,3.952-3.952,7.904-7.163,11.845
		C2666.306,2135.265,2663.206,2134.009,2660.193,2132.986z M2671.865,2149.556c2.805,3.059,7.747,3.059,7.747,5.035
		c0,9.88-5.929,10.869-13.757,4.559C2667.734,2156.139,2669.742,2152.934,2671.865,2149.556z M2677.171,2141.145
		c2.441-4.339,5.404-10.265,7.38-10.265c9.881,0,7.905,9.879,1.211,16.106C2682.822,2144.864,2679.958,2142.916,2677.171,2141.145z
		 M2688.084,2159.843c3.309,1.987,6.681,3.989,10.094,6.096c-1.974,3.114-3.881,6.139-5.75,9.111
		c-3.46-2.085-6.825-4.086-10.073-6.033C2684.191,2166.057,2686.106,2162.999,2688.084,2159.843z M2692.919,2152.147
		c1.512-3.484,4.476-6.447,6.452-10.398c2.966,2.962,8.921,2.946,9.013,6.825c0.07,2.908-3.831,6.815-5.523,9.96
		C2699.377,2156.348,2696.051,2154.245,2692.919,2152.147z M2705.819,2170.714c4.422,1.661,8.373,4.626,8.373,6.603
		c0,8.891-7.904,7.905-14.046,2.373C2702.005,2176.751,2703.878,2173.779,2705.819,2170.714z M2710.471,2163.328
		c1.745-2.808,3.721-8.737,6.684-8.737c8.892,0,9.881,8.894,2.953,15.266C2716.847,2167.543,2713.629,2165.368,2710.471,2163.328z
		 M2722.441,2182.497c5.584,4.699,14.474,11.615,4.595,15.566c-2.965,0.989-6.915-3.951-10.201-7.284
		C2718.715,2188.028,2720.582,2185.267,2722.441,2182.497z M2727.237,2175.235c1.773-2.859,3.75-8.787,6.714-8.787
		c8.891,1.976,12.843,12.844,2.963,16.797c-0.988,0.986-2.963-1.976-4.616-3.729
		C2730.62,2178.028,2728.93,2176.605,2727.237,2175.235z M2738.484,2197.985c5.348,5.018,11.277,10.947,3.372,16.874
		c-1.978-3.952-5.929-6.917-8.446-9.476C2735.08,2202.958,2736.779,2200.484,2738.484,2197.985z M2743.467,2190.599
		c2.34-3.402,4.315-8.344,6.293-8.344c9.878,1.976,10.866,12.844,1.974,16.797c-0.988,0.988-2.963-1.976-4.023-3.65
		C2746.296,2193.761,2744.881,2192.16,2743.467,2190.599z M2764.323,2197.77c3.588,3.11,5.628,6.396,5.783,9.519
		c0.155,3.125-1.574,6.088-5.527,8.558c-1.975-3.952-4.94-4.94-6.859-8.449C2759.88,2204.254,2762.085,2201.041,2764.323,2197.77z
		 M2769.344,2190.407c1.775-2.594,3.584-5.236,5.428-7.926c2.604,2.949,5.157,5.908,7.672,8.855
		c-1.897,2.673-3.761,5.299-5.609,7.904C2774.296,2196.222,2771.802,2193.281,2769.344,2190.407z M2773.473,2168.423
		c-0.989-1.976-1.977-3.952-4.168-5.081c-1.52-1.642-3.047-3.283-4.587-4.914c2.826-3.838,4.803-9.765,7.766-9.765
		C2782.364,2151.629,2782.364,2161.509,2773.473,2168.423z M2777.597,2139.504c2.791-3.684,4.766-9.613,7.731-9.613
		c8.891,2.964,10.868,13.833,0.988,18.772c-0.988,0.988-2.964-1.976-4.266-3.989
		C2780.574,2142.929,2779.09,2141.206,2777.597,2139.504z M2795.854,2151.916c1.186-1.718,2.374-3.439,3.564-5.164
		c1.28,1.67,2.553,3.335,3.824,4.981c1.273,1.647,2.545,3.274,3.805,4.902c-2.319,3.271-4.623,6.522-6.907,9.75
		c-2.594-3.141-5.218-6.231-7.832-9.325C2793.487,2155.35,2794.667,2153.636,2795.854,2151.916z M2800.749,2180.81
		c8.29,4.411,7.302,12.314,0.387,17.253c-0.988-3.951-5.929-3.951-7.213-7.592
		C2796.177,2187.281,2798.449,2184.064,2800.749,2180.81z M2802.297,2211.341c7.729,4.506,6.742,11.421-0.175,16.363
		c-0.987-2.965-4.938-4.941-6.107-7.977C2798.113,2216.935,2800.211,2214.13,2802.297,2211.341z M2814.483,2226.867
		c5.425,5.777,1.473,10.717-3.467,12.692c-0.989,0.988-2.964-1.976-3.466-4.1C2809.849,2232.613,2812.16,2229.749,2814.483,2226.867
		z M2815.245,2211.807c-7.194-4.852-8.182-12.755-1.268-15.719c1.978-0.988,4.943,5.928,7.83,7.53
		C2819.654,2206.308,2817.473,2209.031,2815.245,2211.807z M2827.201,2211.04c4.564,4.807,2.586,10.735-3.341,13.699
		c0-1.977-1.978-3.952-3.151-5.607C2822.932,2216.369,2825.093,2213.673,2827.201,2211.04z M2826.777,2197.372
		c-6.869-6.223-8.846-11.165-1.929-17.093c1.976,2.965,4.939,6.917,7.422,10.157
		C2830.418,2192.781,2828.594,2195.087,2826.777,2197.372z M2837.52,2198.089c5.111,4.914,4.122,8.866-0.817,12.818
		c-0.988-1.976-2.966-3.952-4.449-6.191C2834.006,2202.518,2835.759,2200.312,2837.52,2198.089z M2837.378,2183.955
		c-2.65-4.663-11.542-11.579-3.075-16.011c1.413-1.918,2.829-3.836,4.255-5.763c1.293,1.79,2.561,3.579,3.805,5.37
		c1.244,1.792,2.465,3.584,3.657,5.381c-1.509,1.931-2.996,3.831-4.444,5.674
		C2840.133,2180.448,2838.738,2182.224,2837.378,2183.955z M2846.713,2186.432c1.418-1.81,2.888-3.687,4.397-5.611
		c4.214,3.652,4.072,6.726,2.369,9.638c-1.702,2.908-4.919,5.628-6.896,8.593C2843.62,2194.112,2841.642,2190.16,2846.713,2186.432z
		 M2855.654,2201.768c1.491-1.774,3.043-3.631,4.645-5.563c6.045,6.798,2.091,14.703-4.824,19.643
		c-0.988-2.47-2.47-4.94-2.945-7.315C2852.053,2206.156,2852.583,2203.874,2855.654,2201.768z M2861.591,2180.656
		c-7.104-6.305-3.151-11.244,2.776-16.185c1.977,1.977,2.966,4.941,4.663,6.865
		C2866.585,2174.431,2864.095,2177.54,2861.591,2180.656z M2870.276,2183.89c1.255-1.569,2.503-3.14,3.747-4.707
		c7.14,7.025,3.188,12.952-2.738,18.88C2869.306,2193.124,2863.38,2188.183,2870.276,2183.89z M2874.872,2163.915
		c-3.276-2.191-3.68-5.51-2.646-8.774c1.034-3.266,3.516-6.481,6.017-8.478c-0.021,2.978,3.948,4.942,3.91,7.957
		C2879.726,2157.711,2877.305,2160.808,2874.872,2163.915z M2887.23,2162.355c3.388,3.034,4.836,6.034,4.573,9.016
		c-0.264,2.98-2.242,5.946-5.699,8.909c-1.978-2.963-3.952-5.929-6.079-8.707C2882.469,2168.467,2884.869,2165.392,2887.23,2162.355
		z M2888.022,2147.205c-6.859-4.469-2.907-16.324,4.009-16.324c0.989,0,1.977,3.951,3.32,6.973
		C2892.922,2140.98,2890.478,2144.099,2888.022,2147.205z M2899.777,2146.341c5.099,5.288,5.099,14.179-0.83,18.13
		c-1.976-2.962-4.94-5.928-6.028-9.389C2895.202,2152.184,2897.489,2149.272,2899.777,2146.341z M2901.292,2129.996
		c-5.31-5.045-4.321-14.924,1.607-15.913c1.977,0,2.965,4.941,4.314,7.858C2905.28,2124.6,2903.309,2127.283,2901.292,2129.996z
		 M2911.933,2130.5c5.787,6.306,4.799,13.225-1.128,18.163c-0.989-3.952-2.966-6.914-4.943-10.126
		C2907.936,2135.844,2909.96,2133.146,2911.933,2130.5z M2915.476,2157.641c1.841-2.379,3.681-4.786,5.529-7.232
		c4.619,4.182,2.642,12.087-2.298,13.076C2916.732,2164.471,2914.755,2160.52,2915.476,2157.641z M2923.028,2132.657
		c-1.356-5.729-9.26-12.646-1.356-14.621c2.964,0,1.976,6.916,4.933,9.4C2925.438,2129.168,2924.243,2130.909,2923.028,2132.657z
		 M2921.119,2086.803c1.611,2.609,3.204,5.2,4.751,7.795c-1.234,1.701-3.21,3.676-4.198,5.653
		C2918.707,2095.313,2916.732,2091.36,2921.119,2086.803z M2926.437,2078.895c1.176-1.38,1.176-1.38,2.157-2.359
		c-0.948,3.923,7.912,4.933,2.39,9.94C2929.472,2083.954,2927.952,2081.427,2926.437,2078.895z M2932.175,2118.851
		c-2.599-5.755-8.528-10.695-1.611-15.634c1.976,2.962,3.952,5.928,5.183,9.787
		C2934.591,2114.945,2933.401,2116.891,2932.175,2118.851z M2934.782,2049.518c-0.266-4.594-9.158-6.569-4.218-12.497
		c1.976,2.963,3.952,6.915,5.669,9.996C2935.767,2047.837,2935.27,2048.685,2934.782,2049.518z M2929.887,2057.658
		c-0.31,1.097-1.3,1.097-1.3,2.086c0.989-5.928-8.893-6.915-4.94-13.832c0.989,1.977,2.964,3.952,3.162,6.095
		C2927.86,2053.886,2928.886,2055.769,2929.887,2057.658z M2923.476,2067.665c-0.63,0.948-1.278,1.916-1.926,2.878
		c-1.857-4.87-7.783-6.847-4.819-14.75C2919.694,2059.744,2920.684,2063.696,2923.476,2067.665z M2916.732,2040.972
		c-1.977-4.94-7.905-7.903-6.917-13.832c1.976,1.977,3.952,3.952,4.714,5.489c1.378,1.906,2.715,3.831,4.015,5.771
		C2917.72,2038.996,2917.72,2039.984,2916.732,2040.972z M2911.917,2047.942c-1.113,0.934-1.113,2.908-2.102,3.898
		c0-6.917-10.868-3.952-5.929-14.82c1.978,0.988,2.966,2.963,4.067,5.228C2909.321,2044.123,2910.64,2046.022,2911.917,2047.942z
		 M2902.568,2022.46c-1.644-5.199-10.538-6.188-7.573-13.104c1.977,4.94,7.904,4.94,9.359,10.448
		C2903.768,2020.675,2903.173,2021.558,2902.568,2022.46z M2897.718,2029.629c-0.746,1.462-1.735,2.45-2.722,4.427
		c-2.965-3.954-8.891-5.929-7.903-11.855c0-3.953,4.939-1.978,5.949,2.21C2894.595,2026.162,2896.165,2027.893,2897.718,2029.629z
		 M2887.278,2004.965c-0.603-2.734-3.116-3.863-5.111-5.416c-1.992-1.555-3.472-3.53-1.992-7.977
		c1.978,1.481,3.706,3.21,5.207,5.019c1.501,1.807,2.777,3.694,3.859,5.484C2888.594,2003.02,2887.939,2003.984,2887.278,2004.965z
		 M2882.401,2012.135c-2.031,1.071-2.978,3.024-2.91,4.962c-2.11-2.891-5.172-5.058-6.938-7.389
		c-1.762-2.329-2.257-4.799,0.708-8.257c1.975,1.977,3.959,3.95,4.736,5.469C2879.47,2008.651,2880.937,2010.39,2882.401,2012.135z
		 M2874.039,2024.245c-1.247,1.769-2.513,3.566-3.814,5.402c-2.891-3.495-8.823-8.435-7.833-12.385
		C2865.355,2011.332,2870.295,2021.212,2874.039,2024.245z M2864.368,2000.463c-3.952-5.926-14.821-7.904-6.917-14.819
		c0.989,1.975,2.965,3.952,5.053,4.819c1.728,1.532,3.404,3.126,5.044,4.756C2865.355,1996.51,2864.368,1998.489,2864.368,2000.463z
		 M2858.774,2007.643c-1.323,1.714-3.299,3.689-3.299,5.666c-3.951-2.966-6.915-6.917-10.867-9.88
		c1.975-0.99,2.966-2.966,3.952-4.94c1.975,0.988,3.952,1.974,5.137,4.436C2855.436,2004.448,2857.123,2006.022,2858.774,2007.643z
		 M2846.269,1986.005c-4.627-0.36-6.6-5.302-10.553-6.288c2.965-7.904,9.88-1.977,14.16,1.142
		C2848.711,1982.519,2847.516,1984.228,2846.269,1986.005z M2835.989,1990.104c1.75,1.076,3.447,2.152,5.09,3.228
		c-1.41,2.192-2.399,3.179-3.388,5.157c-3.953-3.952-14.82-6.917-6.915-10.869
		C2831.765,1986.632,2834.728,1988.606,2835.989,1990.104z M2827.88,1975.188c-4.02-2.388-9.948-3.376-9.948-6.341
		c0-9.88,7.905,0,13.634,1.114C2830.338,1971.701,2829.105,1973.451,2827.88,1975.188z M2822.757,1982.44
		c-3.837,8.144-12.73,0.239-13.718-2.724c-0.988-4.94,3.952-2.966,8.011-0.487C2818.968,1980.31,2820.873,1981.379,2822.757,1982.44
		z M2814.396,1994.275c-1.674,6.045-4.273,7.122-7.297,6.296c-3.988-1.094-8.928-2.082-8.928-5.047
		c-0.495-2.471,0.988-4.94,3.175-6.151c2.188-1.21,5.079-1.162,7.411,1.401C2810.65,1991.94,2812.531,1993.109,2814.396,1994.275z
		 M2800.351,1975.763c-3.166-2.963-8.107-1.975-8.107-4.939c0-5.928,5.928-0.988,11.107,0.83
		C2802.351,1973.014,2801.355,1974.386,2800.351,1975.763z M2795.275,1982.772c-1.756,2.433-3.525,4.896-5.307,7.401
		c-2.936-1.806-5.859-3.522-8.778-5.158c1.745-2.423,3.463-4.79,5.157-7.102C2789.375,1979.47,2792.345,1981.094,2795.275,1982.772z
		 M2784.923,1997.304c-1.953,2.801-3.923,5.64-5.92,8.517c-3.556-1.405-7.507-3.383-7.507-5.358
		C2771.496,1992.558,2779.399,1991.572,2784.923,1997.304z M2762.604,1976.751c1.975-1.974,2.965-4.939,4.994-7.022
		c3.646,1.288,7.223,2.723,10.72,4.292C2775.447,1982.68,2769.521,1979.716,2762.604,1976.751z M2768.296,1987.958
		c-2.728,8.553-10.631,10.531-15.572,2.627c-0.989-0.988,3.951-3.952,5.115-7.108
		C2761.406,1984.817,2764.887,1986.321,2768.296,1987.958z M2754.148,1973.302c-3.401-1.49-6.366-2.478-9.329-2.478
		c1.975-6.917,7.905-5.928,13.799-3.802C2757.153,1969.061,2755.665,1971.161,2754.148,1973.302z M2748.979,1980.677
		c-3.172,6.943-10.088,10.895-14.04,4.968c-0.988-0.989,3.952-3.952,4.523-7.092
		C2742.672,1979.14,2745.848,1979.848,2748.979,1980.677z M2735.36,1969.321c-3.387-0.474-7.335-0.474-10.301-1.461
		c2.966-5.928,9.88-3.952,14.328-3.994C2738.058,1965.647,2736.718,1967.47,2735.36,1969.321z M2729.677,1977.183
		c-2.641,6.484-8.57,9.448-15.486,6.484c1.976-1.975,2.963-4.94,5.224-7.143C2722.856,1976.611,2726.277,1976.84,2729.677,1977.183z
		 M2718.32,1993.33c-2.078,4.065-4.606,7.603-7.333,9.345c-2.724,1.741-5.687,1.741-8.65-1.223
		c-1.977-0.989,3.951-4.941,5.834-9.012C2711.543,1992.636,2714.927,1992.933,2718.32,1993.33z M2703.799,1983.387
		c-2.708-0.059-5.395-0.042-8.044,0.084c1.476-2.112,2.958-4.201,4.448-6.257c2.796-0.316,5.587-0.523,8.367-0.617
		C2706.979,1978.835,2705.388,1981.1,2703.799,1983.387z M2697.716,1992.266c-1.982,2.941-3.96,5.909-5.933,8.901
		c-2.599-0.172-5.164-0.245-7.694-0.226c1.735-2.704,3.484-5.389,5.245-8.041C2692.134,1992.569,2694.93,1992.361,2697.716,1992.266
		z M2686.203,2009.743c-0.663,4.553-5.603,10.48-11.532,6.529c0.99-1.975,2.965-3.954,3.752-6.311
		C2680.963,2009.796,2683.552,2009.722,2686.203,2009.743z M2674.722,2024.986c-0.051,0.177,0.939,0.177,0.939,0.177
		c-2.966,4.939-6.918,12.844-10.87,7.905c-1.975-0.989,1.977-4.941,4.042-7.852
		C2670.76,2025.081,2672.712,2024.992,2674.722,2024.986z M2664.547,2042.643c-3.709,5.245-5.684,13.149-12.6,13.149
		c1.977-3.952,2.963-8.893,6.052-12.392C2660.17,2043.034,2662.356,2042.772,2664.547,2042.643z M2659.69,2082.358
		c-4.78,3.075-2.804,12.955-13.67,10.978c1.977-2.964,3.952-6.917,5.781-10.213
		C2654.39,2082.734,2657.012,2082.462,2659.69,2082.358z M2641.08,2076.539c2.965-2.963,1.974-6.915,4.952-9.826
		c1.91-0.743,3.817-1.377,5.732-1.94C2647.008,2068.636,2648.984,2077.528,2641.08,2076.539z M2635.151,2061.72
		c0.989-1.977,2.965-3.952,2.832-6.1c0.902-2.073,1.829-4.159,2.785-6.26c2.286-1.472,4.264-1.472,6.24-2.461
		C2642.068,2051.841,2642.068,2060.733,2635.151,2061.72z M2636.473,2087.02c1.643-0.722,2.63-0.747,4.607-1.82
		c-1.482,1.568-1.977,4.11-2.933,6.276c-0.956,2.164-2.371,3.954-5.704,4.073C2633.733,2092.811,2635.077,2089.978,2636.473,2087.02
		z M2630.095,2079.982c-0.871-0.479-1.858,0.509-2.849,0.509c2.966-1.977,1.978-6.916,6.234-7.592
		C2632.322,2075.32,2631.196,2077.679,2630.095,2079.982z M2627.746,2105.651c1.478-0.459,1.478-0.459,2.466-0.459
		c-1.975,1.976-1.975,4.939-4.798,5.609C2626.159,2109.143,2626.935,2107.427,2627.746,2105.651z M2632.771,2118.588
		c2.379-0.552,3.368-0.552,5.344-0.552c-2.965,4.941-3.952,11.855-10.421,10.214
		C2629.267,2125.214,2630.962,2121.984,2632.771,2118.588z M2636.878,2138.078c3.214,1.693,8.154-0.283,8.154,1.693
		c0,5.929-5.929,7.905-11.753,4.532C2634.393,2142.357,2635.597,2140.275,2636.878,2138.078z M2644.794,2158.464
		c2.721,1.247,5.562,2.625,8.522,4.139c-1.173,1.899-2.308,3.734-3.379,5.479c-3.032-1.582-5.837-2.934-8.391-4.052
		C2642.581,2162.249,2643.662,2160.397,2644.794,2158.464z M2653.054,2179.922c2.845,1.636,5.832,3.424,8.971,5.385
		c-1.114,1.845-2.173,3.609-3.174,5.282c-3.501-2.282-6.534-4.102-8.976-5.382
		C2650.843,2183.588,2651.903,2181.823,2653.054,2179.922z M2657.682,2172.336c1.097-1.782,2.25-3.65,3.447-5.584
		c2.934,1.615,5.962,3.36,9.053,5.202c-1.219,1.977-2.396,3.897-3.531,5.751C2663.537,2175.765,2660.547,2173.98,2657.682,2172.336z
		 M2669.441,2190.081c3.132,2.06,6.359,4.251,9.671,6.563c-1.167,1.971-2.291,3.89-3.371,5.744
		c-3.346-2.454-6.552-4.752-9.568-6.851C2667.208,2193.795,2668.298,2191.98,2669.441,2190.081z M2674.067,2182.463
		c2.581-9.099,9.497-5.146,12.46-0.208c0.989,1.976-0.988,4.941-2.738,6.653C2680.438,2186.67,2677.198,2184.519,2674.067,2182.463z
		 M2686.405,2201.711c5.063,3.268,10.99,8.208,4.073,11.171c-1.975,0.989-4.939-2.963-7.599-5.195
		C2683.997,2205.762,2685.167,2203.778,2686.405,2201.711z M2691.239,2193.832c2.204-1.697,3.193-4.658,4.182-6.635
		c5.926,2.963,11.855,6.915,4.446,12.589C2696.973,2197.726,2694.087,2195.741,2691.239,2193.832z M2701.645,2212.93
		c3.655,2.917,9.584,5.882,9.584,8.845c-0.988,9.88-8.892,0-13.616-2.831C2698.91,2216.988,2700.256,2214.989,2701.645,2212.93z
		 M2707.004,2205.08c1.259-2.077,3.237-4.051,4.224-6.028c5.927,3.951,13.831,8.891,5.927,13.831
		c-0.988,0.989-2.963-1.975-5.047-3.71C2710.42,2207.776,2708.715,2206.412,2707.004,2205.08z M2718.398,2227.188
		c2.709,2.491,5.674,5.456,9.109,8.424c-1.241,1.814-2.441,3.567-3.575,5.228c-2.996-2.594-6.125-5.253-9.335-7.957
		C2715.791,2231.07,2717.054,2229.182,2718.398,2227.188z M2723.684,2219.451c2.363-1.628,3.352-4.592,4.341-6.568
		c1.976,4.94,7.902,4.94,8.89,9.88c0,1.977-1.975,3.952-3.951,4.941c-1.977,0-3.954-1.977-4.782-3.956
		C2726.684,2222.299,2725.186,2220.865,2723.684,2219.451z M2734.013,2241.741c2.501,2.403,4.965,4.849,7.414,7.322
		c-1.135,1.59-2.223,3.121-3.27,4.589c-2.307-2.185-4.835-4.507-7.544-6.935C2731.7,2245.129,2732.831,2243.472,2734.013,2241.741z
		 M2739.076,2234.355c1.223-1.785,2.494-3.631,3.809-5.533c2.465,2.561,4.938,5.164,7.396,7.801
		c-1.247,1.759-2.461,3.464-3.647,5.132C2744.139,2239.249,2741.617,2236.791,2739.076,2234.355z M2748.173,2221.191
		c1.588-2.379,3.562-4.356,4.551-6.332c2.963,4.94,9.88,9.88,2.859,14.308C2753.083,2226.486,2750.615,2223.822,2748.173,2221.191z
		 M2756.358,2243.318c1.948,2.199,3.875,4.44,5.781,6.718c-1.175,1.549-2.298,3.033-3.395,4.484
		c-1.928-2.129-3.881-4.234-5.861-6.317C2754.011,2246.617,2755.169,2244.991,2756.358,2243.318z M2761.674,2235.837
		c1.268-1.78,2.557-3.592,3.876-5.448c1.972,2.376,3.942,4.802,5.912,7.265c-1.301,1.733-2.578,3.427-3.811,5.074
		C2765.672,2240.389,2763.684,2238.093,2761.674,2235.837z M2767.88,2257.078c1.772,2.235,3.517,4.503,5.242,6.801
		c-1.065,1.31-2.083,2.562-3.059,3.765c-1.747-2.143-3.537-4.271-5.352-6.382C2765.73,2259.918,2766.793,2258.517,2767.88,2257.078z
		 M2779.963,2174.948c1.181-1.707,2.366-3.426,3.556-5.153c1.194-1.727,2.394-3.467,3.606-5.22c2.641,3.045,5.224,6.12,7.76,9.216
		c-1.205,1.699-2.404,3.389-3.596,5.07c-1.192,1.682-2.374,3.353-3.551,5.01C2785.199,2180.884,2782.615,2177.906,2779.963,2174.948
		z M2788.664,2197.9c6.543,4.115,9.508,11.032,1.603,13.995c-2.963,0.988-3.951-3.952-7.317-5.958
		C2784.84,2203.278,2786.752,2200.589,2788.664,2197.9z M2788.741,2244.655c-7.364-5.095-4.402-12.011,1.526-16.951
		c1.977,2.963,2.966,5.928,5.486,8.295C2793.305,2239.023,2790.953,2241.928,2788.741,2244.655z M2790.848,2263.375
		c-1.35,1.495-2.68,2.963-4.001,4.414c-0.848-1.224-1.706-2.434-2.565-3.643c0.424-0.517,0.822-1.009,1.253-1.539
		c0.812-0.997,1.673-2.06,2.523-3.101C2788.99,2260.8,2789.921,2262.06,2790.848,2263.375z M2800.747,2243.868
		c5.328,5.571,1.376,8.536-3.562,12.488c-0.989,0-1.978-1.977-3.093-4.277C2796.202,2249.474,2798.421,2246.742,2800.747,2243.868z
		 M2808.079,2257.269c4.912,4.027,1.948,8.967-2.991,10.943c-0.989-1.976-1.977-2.965-2.95-4.219
		C2804.016,2261.88,2806.002,2259.636,2808.079,2257.269z M2815.491,2270.905c0.264,0.467,0.527,0.931,0.792,1.397
		c-1.766,1.586-3.554,3.183-5.361,4.79c-0.219-0.334-0.441-0.668-0.662-1.004C2811.847,2274.53,2813.603,2272.791,2815.491,2270.905
		z M2814.893,2249.467c1.063-3.98,6.002-3.98,6.989-7.932c3.954,5.929,0.989,9.881-4.009,14.212
		C2816.876,2253.63,2815.886,2251.539,2814.893,2249.467z M2822.065,2264.284c1.923-1.962,3.952-4.053,6.08-6.254
		c2.631,6.229-5.274,4.253-5.274,8.206C2822.871,2265.247,2821.882,2265.247,2822.065,2264.284z M2832.596,2269.416
		c0.262,0.683,0.492,1.334,0.732,1.994c-1.727,1.423-3.421,2.808-5.09,4.164c-0.268-0.487-0.535-0.96-0.805-1.444
		C2829.174,2272.551,2830.894,2270.981,2832.596,2269.416z M2831.412,2241.548c-4.589-5.941-1.625-10.881,3.316-14.833
		c1.976,1.977,2.963,4.94,3.216,7.914C2835.75,2236.961,2833.569,2239.268,2831.412,2241.548z M2834.897,2251.001
		c2.004-2.101,4.053-4.253,6.132-6.442c2.591,4.881-3.338,6.858-5.313,9.821C2835.716,2253.392,2834.728,2252.404,2834.897,2251.001
		z M2844.86,2257.965c2.713,4.319-3.219,4.319-4.205,7.282c0-0.988-0.986-0.988-1.21-2.181
		C2841.275,2261.354,2843.08,2259.656,2844.86,2257.965z M2844.057,2228.13c-3.401-6.355-3.401-9.318,1.539-14.258
		c0.988,2.963,2.965,4.94,3.95,8.385C2847.709,2224.235,2845.878,2226.194,2844.057,2228.13z M2852.906,2231.931
		c4.545,4.664-0.393,7.628-4.345,9.604c0-0.988-0.987-2.963-1.152-3.737C2849.228,2235.869,2851.063,2233.908,2852.906,2231.931z
		 M2851.738,2251.411c1.83-1.76,3.622-3.496,5.391-5.22c3.287,5.225-1.653,6.213-4.616,8.188
		C2852.512,2253.392,2851.524,2252.404,2851.738,2251.411z M2860.481,2259.838c0.058,0.31,0.124,0.63,0.176,0.938
		c-1.69,1.324-3.337,2.605-4.938,3.839c-0.042-0.166-0.082-0.329-0.12-0.495C2857.214,2262.711,2858.84,2261.284,2860.481,2259.838z
		 M2859.173,2225.159c1.61-2.186,3.402-3.773,5.065-5.318c1.661-1.548,3.195-3.06,4.253-5.098c2.449,3.476,1.384,6.007-0.687,8.289
		c-2.068,2.275-5.144,4.324-6.853,6.946C2860.389,2228.399,2859.775,2226.776,2859.173,2225.159z M2868.983,2234.425
		c1.605-1.623,3.187-3.233,4.748-4.832c0.464,1.658,0.907,3.306,1.295,4.935c-3.188,3.036-6.372,6.024-9.539,8.932
		c-0.425-1.354-0.907-2.751-1.376-4.144C2865.755,2237.675,2867.381,2236.045,2868.983,2234.425z M2876.924,2244.857
		c0.108,0.848,0.192,1.688,0.274,2.528c-2.987,2.499-5.918,4.906-8.765,7.202c-0.113-0.51-0.237-1.036-0.361-1.557
		C2871.011,2250.365,2873.968,2247.638,2876.924,2244.857z M2875.609,2206.822c2.591-2.83,4.565-6.782,7.531-9.746
		c5.928,5.927-0.988,10.866-5.325,15.559C2877.125,2210.698,2876.391,2208.761,2875.609,2206.822z M2888.665,2213.788
		c2.379,7-2.561,9.964-6.513,13.917c-0.989-1.977-0.989-3.952-1.295-5.462C2883.517,2219.418,2886.124,2216.593,2888.665,2213.788z
		 M2891.607,2230.682c0.153,1.294,0.325,2.584,0.441,3.835c-2.357,2.11-4.689,4.18-6.992,6.182
		c-0.167-1.021-0.347-2.045-0.544-3.076C2886.85,2235.359,2889.21,2233.051,2891.607,2230.682z M2897.96,2180.28
		c2.965,3.951,3.952,7.903-1.14,10.865c-1.315,1.543-2.665,3.115-4.05,4.718C2887.092,2190.16,2894.008,2185.221,2897.96,2180.28z
		 M2900.056,2200.845c1.344-1.557,2.658-3.091,3.942-4.598c3.841,6.756-2.086,10.708-6.038,15.648
		C2895.983,2207.943,2895.983,2203.992,2900.056,2200.845z M2903.647,2218.153c1.369-1.478,2.736-2.966,4.088-4.457
		c3.07,6.104-2.858,10.056-7.801,13.019C2897.96,2222.763,2902.9,2220.787,2903.647,2218.153z M2900.905,2250.447
		c2.3-1.953,4.607-3.956,6.911-5.989c-0.137,0.732-0.323,1.428-0.487,2.142c-2.174,1.664-4.349,3.292-6.522,4.887
		C2900.844,2251.145,2900.872,2250.794,2900.905,2250.447z M2901.09,2238.455c2.796-2.848,4.774-4.823,7.738-7.788
		c0,0,0,0.708,0.043,0.777C2906.261,2233.852,2903.668,2236.183,2901.09,2238.455z M2906.856,2179.21
		c-2.473-2.429-2.72-4.879-1.856-7.215c0.864-2.336,2.846-4.563,4.839-6.551c0.973,1.987,2.941,3.968,3.11,6.264
		C2911.009,2174.146,2908.984,2176.639,2906.856,2179.21z M2916.718,2180.974c3.967,6.222-0.975,10.175-3.938,14.125
		c-0.989-1.975-0.989-4.94-2.211-6.652C2912.711,2185.883,2914.758,2183.392,2916.718,2180.974z M2921.468,2198.038
		c2.179,5.954,0.204,9.905-5.725,12.87c0-1.976,0-3.952-0.571-5.557C2917.317,2202.9,2919.417,2200.466,2921.468,2198.038z
		 M2917.738,2235.455c2.012-1.883,4.018-3.789,6.007-5.729c-0.097,1.26-0.205,2.503-0.368,3.702
		c-1.914,1.691-3.847,3.354-5.802,4.985C2917.643,2237.434,2917.704,2236.452,2917.738,2235.455z M2919.036,2220.787
		c1.626-1.676,3.245-3.359,4.84-5.068C2923.708,2218.741,2920.958,2219.526,2919.036,2220.787z M2922.622,2173.55
		c2.015-2.161,3.99-4.138,4.979-7.104c1.482,2.966,1.976,5.188,1.524,7.234c-0.448,2.045-1.843,3.914-4.138,6.17
		C2924.261,2177.762,2923.459,2175.657,2922.622,2173.55z M2933.193,2183.614c1.323,4.569,1.323,9.51-3.617,12.474
		c-0.989-1.976-0.989-3.952-1.509-6.022C2929.806,2187.92,2931.515,2185.77,2933.193,2183.614z M2936.58,2201.409
		c0.9,3.571-3.051,4.559-5.029,7.523c0-0.989,0-0.989-0.068-1.61C2933.204,2205.364,2934.907,2203.396,2936.58,2201.409z
		 M2931.422,2238.129c0.4-0.358,0.801-0.71,1.193-1.073c-0.451,0.922-0.967,1.789-1.486,2.65
		C2931.238,2239.187,2931.322,2238.653,2931.422,2238.129z M2932.575,2220.796c1.941-1.985,2.927-2.974,4.904-4.949
		c0.989,3.952-1.977,5.928-4.853,8.988C2932.638,2223.519,2932.616,2222.17,2932.575,2220.796z M2936.218,2164.817
		c-1.702-4.297-3.629-6.309,0.344-10.274c-0.026,1.993,1.922,3.989,2.457,6.274
		C2938.093,2162.167,2937.151,2163.498,2936.218,2164.817z M2940.444,2122.977c0.986,1.974,0.986,3.951,2.263,6.32
		c-1.098,1.898-2.245,3.83-3.452,5.799C2935.503,2130.88,2936.492,2125.94,2940.444,2122.977z M2942.213,2171.551
		c1.194,3.789,2.183,6.752-0.782,9.718c-0.986-1.977-0.986-3.952-1.702-6.304C2940.564,2173.834,2941.39,2172.694,2942.213,2171.551
		z M2943.407,2083.456c0.989,2.963,1.977,5.929,3.671,8.916c-0.126,0.252-0.255,0.504-0.383,0.756
		C2946.37,2089.385,2939.455,2088.395,2943.407,2083.456z M2944.448,2063.368c-0.349,0.668-0.718,1.351-1.085,2.033
		c2.021-4.669-6.871-2.695-1.932-9.609C2941.43,2058.755,2942.418,2061.72,2944.448,2063.368z M2936.151,2028.031
		c1.328,4.048,4.293,6.025,5.279,9.977c-1.975-2.964-3.951-5.929-5.932-9.025C2935.72,2028.66,2935.933,2028.348,2936.151,2028.031z
		 M2923.173,2007.87c2.451,4.448,8.378,7.414,7.391,13.342c-2.966-3.951-4.94-8.894-8.515-11.716
		C2922.431,2008.942,2922.803,2008.408,2923.173,2007.87z M2925.265,2028.478c-0.606,0.901-1.227,1.819-1.856,2.753
		c-0.75-6.067-9.642-5.079-6.677-13.97C2919.694,2021.212,2923.647,2023.188,2925.265,2028.478z M2908.672,1989.461
		c1.534,1.756,3.045,3.546,4.535,5.369c1.493,1.824,2.963,3.679,4.413,5.57c-0.413,0.587-0.824,1.168-1.257,1.786
		c-1.457-1.836-2.941-3.655-4.446-5.457c-1.507-1.802-3.035-3.587-4.587-5.352
		C2907.79,1990.719,2908.225,1990.094,2908.672,1989.461z M2906.731,2004.165c1.53,1.794,3.04,3.6,4.526,5.419
		c-1.441,0.759-1.441,1.748-2.429,2.734c-1.975-4.939-12.844-9.88-6.916-12.842
		C2902.9,1998.489,2905.864,2002.438,2906.731,2004.165z M2893.312,1973.481c4.648,2.283,5.636,7.222,9.588,9.199
		c-0.988,0.988-0.988,0.988-1.975,1.975c-2.965-3.952-6.917-5.928-8.862-9.431
		C2892.487,1974.626,2892.899,1974.049,2893.312,1973.481z M2891.815,1986.895c1.501,1.631,2.979,3.285,4.439,4.961
		c-1.259,0.702-1.259,1.691-2.246,2.68c-0.988-4.94-9.881-3.952-6.916-12.844
		C2888.078,1983.667,2890.055,1985.644,2891.815,1986.895z M2875.915,1959.198c4.259,2.734,7.225,5.699,11.177,8.662
		c-5.929,0.988-7.904-5.928-12.091-7.411C2875.302,1960.029,2875.617,1959.599,2875.915,1959.198z M2870.23,1967.156
		c2.922,2.21,5.808,4.513,8.626,6.963c3.296,1.645,2.307,2.632,0.332,4.608C2876.223,1974.776,2869.306,1975.764,2870.23,1967.156z
		 M2874.294,1985.423c-0.646,0.944-1.296,1.891-1.97,2.872c-2.028-4.628-7.956-5.616-10.922-9.568
		C2869.306,1974.776,2870.295,1983.667,2874.294,1985.423z M2857.932,1947.885c3.469,1.202,7.423,4.167,10.387,7.13
		c-3.952-1.975-7.904-3.951-10.801-6.545C2857.656,1948.273,2857.796,1948.083,2857.932,1947.885z M2852.504,1955.572
		c3.959,1.42,9.886,4.384,9.886,6.36c0,6.915-6.916-3.952-11.396-4.203C2851.488,1957.017,2852.002,1956.287,2852.504,1955.572z
		 M2850.045,1943.744c-0.046,0.06-0.087,0.124-0.13,0.184c-1.144-0.644-2.285-1.288-3.433-1.906
		C2847.663,1942.576,2848.851,1943.156,2850.045,1943.744z M2851.488,1967.88c1.739,1.085,3.441,2.184,5.107,3.296
		c-2.107,5.575-10.011-1.339-10.999-4.303C2843.62,1963.907,2849.546,1966.872,2851.488,1967.88z M2834.116,1945.743
		c3.575,1.697,7.119,3.502,10.63,5.45c-0.446,0.639-0.904,1.282-1.354,1.916c-3.458-2.091-6.908-4.092-10.38-5.966
		C2833.378,1946.675,2833.752,1946.199,2834.116,1945.743z M2832.963,1957.234c1.82,0.994,3.633,1.989,5.425,2.992
		c-2.673,6.646-7.613-3.234-12.552-3.234C2827.811,1951.064,2829.787,1956.992,2832.963,1957.234z M2816.747,1938.626
		c3.025,1.048,6.027,2.19,9,3.416c-0.259,0.333-0.521,0.664-0.785,1c-2.88-1.382-5.767-2.671-8.669-3.88
		C2816.445,1938.981,2816.6,1938.804,2816.747,1938.626z M2810.366,1946.34c3.064,1.226,6.067,2.531,9.003,3.901
		c-0.548,0.715-1.095,1.432-1.65,2.161c-2.933-1.498-5.871-2.913-8.815-4.234C2809.396,1947.551,2809.882,1946.937,2810.366,1946.34
		z M2807.676,1935.763c-0.007,0.01-0.02,0.02-0.028,0.033c-0.266-0.095-0.535-0.18-0.803-0.276
		C2807.121,1935.6,2807.398,1935.683,2807.676,1935.763z M2812.38,1959.458c-1.218,1.634-2.452,3.293-3.702,4.978
		c-3.004-1.568-6.013-3.017-9.017-4.393c1.263-1.653,2.5-3.26,3.718-4.832C2806.447,1956.547,2809.436,1957.968,2812.38,1959.458z
		 M2789.996,1939.724c3.989,0.998,7.889,2.142,11.69,3.421c-0.387,0.493-0.784,1.002-1.182,1.506
		c-3.75-1.46-7.511-2.779-11.282-3.94C2789.483,1940.378,2789.739,1940.049,2789.996,1939.724z M2783.594,1948.046
		c3.71,1.042,10.625,2.029,10.625,4.006c0,6.915-8.891,0.988-13.718,0.116C2781.544,1950.774,2782.575,1949.395,2783.594,1948.046z
		 M2780.388,1938.22c-1.493-0.497-2.733-0.743-3.956-0.956C2777.896,1936.989,2779.391,1936.727,2780.388,1938.22z
		 M2786.17,1963.398c-0.937,1.259-1.881,2.525-2.832,3.808c-3.939-0.334-6.904-4.286-10.854-4.286
		C2774.459,1955.015,2781.377,1962.92,2786.17,1963.398z M2772.726,1936.452c0.029,0.046,0.062,0.075,0.092,0.117
		c-0.055-0.013-0.107-0.024-0.165-0.038C2772.68,1936.509,2772.705,1936.481,2772.726,1936.452z M2766.236,1943.969
		c3.284,1.167,5.26,1.167,8.223,1.167c-0.986,6.917-6.915,1.977-10.894,2.036
		C2764.462,1946.086,2765.351,1945.018,2766.236,1943.969z M2757.803,1954.285c2.892,0.591,5.753,1.277,8.574,2.049
		c-1.798,6.585-7.726,1.645-11.678,1.645C2755.687,1956.992,2756.675,1955.015,2757.803,1954.285z M2747.033,1942.158
		c2.728,0.015,5.691,0.015,8.654,0.015c-0.988,4.94-6.916,1.975-10.498,2.014
		C2745.806,1943.499,2746.419,1942.827,2747.033,1942.158z M2738.463,1951.926c3.393,0.126,6.356,0.126,9.32,1.114
		c-1.976,4.94-7.905,2.965-12.099,2.254C2736.616,1954.152,2737.545,1953.027,2738.463,1951.926z M2728.903,1943.02
		c2.084,0.14,4.061,0.14,6.037-0.848c-1.976,2.963-4.939,0-6.58,1.388C2728.542,1943.379,2728.72,1943.201,2728.903,1943.02z
		 M2719.976,1952.424c2.12-0.372,5.083-0.372,7.06-0.372c-0.989,4.94-5.929,1.975-9.597,3.258
		C2718.285,1954.334,2719.132,1953.371,2719.976,1952.424z M2709.602,1964.798c2.738-0.375,5.491-0.664,8.237-0.879
		c-1.001,1.334-2.007,2.684-3.016,4.05c-2.637-0.022-5.227,0.006-7.791,0.116C2707.881,1966.977,2708.74,1965.88,2709.602,1964.798z
		 M2701.598,1955.698c1.714-0.452,3.426-0.859,5.133-1.224c-0.617,0.75-1.234,1.508-1.854,2.273
		c-1.697,0.277-3.389,0.594-5.082,0.939C2700.396,1957.025,2700.99,1956.352,2701.598,1955.698z M2689.885,1969.217
		c2.279-0.719,4.557-1.372,6.826-1.944c-0.467,0.621-0.925,1.241-1.38,1.861c-2.108,0.309-4.193,0.672-6.266,1.102
		C2689.338,1969.897,2689.613,1969.555,2689.885,1969.217z M2684.728,1961.566c-0.065,0.082-0.133,0.164-0.204,0.249
		c-0.462,0.156-0.933,0.305-1.401,0.47C2683.66,1962.045,2684.195,1961.797,2684.728,1961.566z M2680.464,1981.492
		c2.51-0.816,5.024-1.518,7.536-2.12c-1.218,1.746-2.426,3.513-3.631,5.292c-2.417,0.379-4.803,0.837-7.171,1.379
		C2678.269,1984.514,2679.365,1983.001,2680.464,1981.492z M2669.545,1997.421c2.647-0.913,5.303-1.69,7.955-2.348
		c-1.399,2.17-2.788,4.353-4.161,6.551c-2.431,0.293-4.819,0.687-7.173,1.171
		C2667.276,2000.999,2668.396,1999.209,2669.545,1997.421z M2662.842,1989.03c0.843-0.453,1.688-0.881,2.531-1.31
		c-0.527,0.793-1.051,1.587-1.57,2.38c-0.719,0.272-1.446,0.517-2.162,0.809C2662.039,1990.276,2662.443,1989.657,2662.842,1989.03z
		 M2659.802,2013.37c2.027-1.052,4.989-1.052,6.966-2.039c-0.988,4.94-4.939,7.905-10.048,7.297
		C2657.725,2016.883,2658.755,2015.131,2659.802,2013.37z M2653.489,2004.721c0.435-0.305,1.422-1.293,1.422-1.293
		c0,1.975,0,3.951-2.608,3.426C2652.695,2006.143,2653.089,2005.432,2653.489,2004.721z M2650.797,2029.164
		c2.139-1.036,5.103-1.036,7.08-2.024c-3.952,3.952-4.941,11.857-11.414,10.34
		C2647.864,2034.708,2649.301,2031.941,2650.797,2029.164z M2645.424,2019.814c0.166-0.149,0.596-0.577,0.596-0.577
		c0,0.986-0.988,2.964-2.123,3.617C2644.406,2021.84,2644.906,2020.828,2645.424,2019.814z M2365.921,2387.76
		c-3.943-50.894-3.952-73.112-0.492-81.016c3.456-7.905,47.916-49.893,50.386-56.316c2.47-6.422,15.808-28.158,28.652-32.604
		c12.845-4.446,50.467-9.792,60.762-7.903c17.949,3.293,9.714,18.443,27.664-3.458c8.638-10.54,35.074-19.265,50.736-14.788
		l-70.302,122.944c-19.956,20.285-60.484-8.506-57.522-33.805c-6.658,12.366-8.867,82.764,18.922,101.736l-52.035,95.301
		C2400.957,2463.979,2369.928,2439.463,2365.921,2387.76z M2324.194,2658.772c-5.227-4.925-15.167-17.689-15.823-31.422
		c-0.214-4.472,11.155-19.649,16.918-15.834c3.013,5.019,6.642,11.177,10.625,17.878
		C2342.334,2657.232,2334.435,2659.123,2324.194,2658.772z M2491.072,2759.022c-6.965,0.716-22.891-0.434-49.569-5.374
		c-26.674-4.94-75.15-23.824-85.626-38.858c-23.052-33.1-22.313-42.98-25.557-50.259c12.383,0.83,13.661-10.505,14.066-20.979
		c11.979,19.8,27.221,39.635,36.108,48.758c18.772,19.265,63.728,36.556,81.016,41.497c17.291,4.939,32.687,7,36.639,14.903
		C2500.326,2753.063,2495.836,2756.663,2491.072,2759.022z M2589.81,2751.6c-3.283,1.156-6.666,2.679-10.152,4.094
		c-19.43,4.842-26.511,3.059-37.325-1.067c-18.714-8.421-47.854-21.208-79.094-29.466c-42.977-11.364-67.677-31.616-77.064-39.027
		c-5.367-4.239-18.556-25.239-31.418-46.151c-2.396-10.727-1.163-22.981-0.445-42.522c0.988-26.923-10.127-35.567-16.797-38.283
		c-6.669-2.717-6.066,1.023-4.197,1.976c21.161,10.777,14.077,38.038,11.854,46.93c-1.759,7.032-4.427,7.733-6.823,5.273
		c-3.259-5.203-6.162-9.722-8.492-13.109v-0.001c-1.966-5.242-10.91-21.68-10.865-31.434c0.08-18.197,43.254-22.183,49.893-16.798
		c-2.77,3.754-5.632,11.475,1.944,25.555c8.018,14.905,28.372,39.184,38.235,48.628c13.607,13.032,43.609,51.416,59.28,59.938
		c28.157,15.314,64.135,16.985,79.205,17.125c71.136,0.658,102.915-3.621,103.246-1.645
		C2653.556,2707.826,2618.108,2738.006,2589.81,2751.6z M2503.42,2573.832c0.272-10.213,23.794-30.462,27.005-30.956
		c5.869-0.902,37.214,3.293,49.401,11.196c7.261,4.711,4.319,15.507,4.469,24.367c0.103,6.003,2.319,12.107,1.786,13.836
		c-1.317,4.281-3.541,4.693-31.286,4.268l0.013,0.001c-18.209-0.317-30.934-3.142-30.934-3.142
		C2507.947,2589.311,2503.007,2589.311,2503.42,2573.832z M2498.067,2596.475c13.861,9.341,74.369,8.354,97.812,9.385
		c20.085,0.884,49.154,9.635,73.359,9.385c13.42-0.135,26.257-7.393,31.939-2.7c2.762,2.282,4.043,2.288,6.495-7.88
		c1.582-4.486,61.839-37.351,61.839-37.351c22.486-12.832,11.019,10.219,11.019,10.219l0.007-0.01
		c-2.816,6.645-5.899,10.541-7.91,15.917c8.916-8.245,24.117-39.805,26.311-42.149c9.115-9.731,16.69,12.004,2.483,36.48
		c-3.133,5.402-15.919,17.971-20.173,22.785c-4.256,4.813-5.25,10.317-6.517,14.902c-2.972,10.77-4.706,51.362-13.443,60.678
		c-2.207,2.35-55.659,41.824-61.916,29.638c-0.989-9.88,37.049-46.93,47.917-74.593c-1.522-0.554-18.031,24.698-32.746,35.257
		c-6.446,4.428-15.434,5.156-32.956,5.744c-29.394,0.989-93.859,5.187-120.782,4.941c-18.142-0.167-41.798-0.116-63.183-3.889
		c-7.211-2.039-6.137-4.114-7.376-9.286c-1.974-8.232-10.209-13.18-8.233-8.891c5.098,10.556,0.678,13.756-5.98,13.177
		c-2.661-1.073-5.091-2.271-7.193-3.626c-12.918-8.32-30.561-27.621-43.117-41.422c-5.751-11.567-6.485-57.588-27.692-72.652
		c-4.232-3.008-6.9-0.372-3.952,1.605c8.423,5.642,19.505,31.656,20.511,59.045v0.001c-1.094-1.106-2.016-1.982-2.725-2.565
		c-4.549-3.742-33.862-35.391-39.026-55.493c-2.306-8.975,26.958-33.358,47.652-31.635c29.906,2.49,39.661,9.432,49.761,19.124
		C2477.504,2558.276,2475.344,2581.159,2498.067,2596.475z M2785.587,2322.333c0,0-43.715,66.808-87.533,131.952
		c-2.903,0.842-16.307,6.833-26.283,15c-4.684,3.837-63.758,1.747-97.211,6.242c-71.059,9.55-94.525,41.66-99.049,63.376
		c0,0-5.078-8.309-23.554-12.817c22.831-37.61,167.019-290.863,167.019-290.863s-15.604-40.104-16.89-61.042
		c41.959,116.754,135.818,146.063,222.375,135.732C2808.711,2316.624,2785.587,2322.333,2785.587,2322.333z M2800.128,2293.43
		c-79.95-5.39-162.619-64.679-185.135-132.569c-28.644-86.367-1.015-140.278,27.298-171.594c-1.636,2.091-3.245,4.208-4.782,6.384
		l0.016,0.018c-0.025,0.022-0.055,0.049-0.076,0.071c-0.437,0.608-0.884,1.211-1.307,1.828c-3.593,5.224-6.763,10.574-9.546,16.025
		l0.034,0.036c-0.032,0.032-0.066,0.068-0.1,0.103c-2.462,4.835-4.612,9.75-6.462,14.728l0.541,0.472
		c-0.402,0.437-0.792,0.893-1.189,1.338c-1.724,4.853-3.174,9.756-4.348,14.709l0.553,0.372c-0.305,0.392-0.604,0.802-0.906,1.201
		c-4.745,21.084-4.633,42.897-0.568,64.272c0.292,1.652,0.169,0.697,0.489,2.515c0.683,3.325,1.467,6.642,2.334,9.939
		c0,0,0.413,1.941,1.175,4.259c0.916,3.167,1.908,6.315,2.986,9.442c0.711,2.22,2.404,6.584,2.404,6.584
		c1.026,2.657,2.108,5.298,3.246,7.919c2.102,4.782,4.723,10.392,5.299,11.283c1.519,2.988,3.106,5.938,4.762,8.855
		c1.188,1.938,3.168,5.294,5.44,9.074c5.316,8.37,11.211,16.376,17.602,23.929c0,0,9.976,10.971,21.958,22.384
		c2.237,1.961,4.514,3.863,6.826,5.716c6.351,5.041,19.108,13.275,28.029,18.722c65.276,39.856,148.144,30.626,168.46,22.125
		c39.862-16.678,54.899-35.39,59.759-40.302C2910.02,2280.177,2854.821,2297.116,2800.128,2293.43z M2624.23,2092.232
		c-0.993,2.111-1.957,4.17-2.878,6.163c-0.105,0.034-0.206,0.059-0.316,0.092c0.652-1.794,1.36-3.713,2.101-5.694
		C2623.498,2092.591,2623.87,2092.424,2624.23,2092.232z M2944.298,2193.508c-0.076-0.425-0.147-0.844-0.231-1.276
		c1.318-1.083,1.318-2.073,2.304-3.059C2947.359,2191.149,2945.384,2192.135,2944.298,2193.508z M2946.37,2209.92
		c0-1.977,0-3.952,0.852-5.548c0.014,1.53-0.007,3.024-0.068,4.48C2947.359,2208.932,2946.37,2209.92,2946.37,2209.92z
		 M2945.203,2151.244c-1.795-3.568-2.784-8.508,1.168-11.473c0.989,1.978,0.989,3.954,2.016,6.095
		C2947.354,2147.664,2946.293,2149.454,2945.203,2151.244z M2948.347,2120.011c0-2.963-4.94-3.952-2.239-7.297
		c0.817,1.983,1.601,3.967,2.353,5.938C2948.347,2119.025,2948.347,2120.011,2948.347,2120.011z M2950.434,2167.979
		c-0.529-1.953-1.114-3.931-1.715-5.917c0.994-1.535,1.962-3.076,2.918-4.62c0.533,2.093,1.022,4.165,1.469,6.221
		C2952.245,2165.109,2951.341,2166.542,2950.434,2167.979z M2953.225,2179.781c0.727-1.064,1.415-2.145,2.123-3.217
		c0.058,0.431,0.091,0.853,0.142,1.281c-0.659,1.034-1.34,2.057-2.026,3.084C2953.394,2180.552,2953.304,2180.16,2953.225,2179.781z
		 M2956.224,2196.323c-0.177,0.276-0.347,0.552-0.526,0.825c-0.084-1.083-0.181-2.178-0.292-3.28
		c0.308-0.417,0.606-0.837,0.91-1.253C2956.3,2193.859,2956.285,2195.102,2956.224,2196.323z M2958.123,2096.229
		c-0.476-1.128-0.946-2.254-1.434-3.387c0.099-0.205,0.193-0.41,0.294-0.614c0.442,1.173,0.886,2.346,1.313,3.51
		C2958.242,2095.903,2958.181,2096.069,2958.123,2096.229z"/>
</g>
<g id="circle">
	<line fill="none" x1="1241.42" y1="245.723" x2="1312.207" y2="189.209"/>
</g>
</svg>
